<svg width="28" height="29" viewBox="0 0 28 29" fill="none" xmlns="http://www.w3.org/2000/svg">
<path d="M20.4834 3.17659C22.9838 3.17659 25.0173 5.21003 25.0173 7.71045V21.312C25.0173 23.8124 22.9838 25.8459 20.4834 25.8459H6.88184C4.38141 25.8459 2.34798 23.8124 2.34798 21.312V7.71045C2.34798 5.21003 4.38141 3.17659 6.88184 3.17659H20.4834ZM20.4834 0.909668H6.88184C5.07816 0.909668 3.34835 1.62618 2.07296 2.90157C0.797563 4.17696 0.0810547 5.90677 0.0810547 7.71045L0.0810547 21.312C0.0810547 23.1157 0.797563 24.8455 2.07296 26.1209C3.34835 27.3963 5.07816 28.1128 6.88184 28.1128H20.4834C22.2871 28.1128 24.0169 27.3963 25.2923 26.1209C26.5677 24.8455 27.2842 23.1157 27.2842 21.312V7.71045C27.2842 5.90677 26.5677 4.17696 25.2923 2.90157C24.0169 1.62618 22.2871 0.909668 20.4834 0.909668Z" fill="url(#paint0_linear_798_490)"/>
<path d="M13.6823 21.312C13.3817 21.312 13.0934 21.1926 12.8808 20.98C12.6682 20.7675 12.5488 20.4792 12.5488 20.1785V8.84391C12.5488 8.5433 12.6682 8.255 12.8808 8.04243C13.0934 7.82987 13.3817 7.71045 13.6823 7.71045C13.9829 7.71045 14.2712 7.82987 14.4838 8.04243C14.6963 8.255 14.8158 8.5433 14.8158 8.84391V20.1785C14.8158 20.4792 14.6963 20.7675 14.4838 20.98C14.2712 21.1926 13.9829 21.312 13.6823 21.312Z" fill="url(#paint1_linear_798_490)"/>
<path d="M6.88184 14.5114C6.88184 14.2108 7.00125 13.9225 7.21382 13.7099C7.42639 13.4973 7.71469 13.3779 8.0153 13.3779H19.3499C19.6505 13.3779 19.9388 13.4973 20.1514 13.7099C20.364 13.9225 20.4834 14.2108 20.4834 14.5114C20.4834 14.812 20.364 15.1003 20.1514 15.3129C19.9388 15.5254 19.6505 15.6449 19.3499 15.6449H8.0153C7.71469 15.6449 7.42639 15.5254 7.21382 15.3129C7.00125 15.1003 6.88184 14.812 6.88184 14.5114Z" fill="url(#paint2_linear_798_490)"/>
<defs>
<linearGradient id="paint0_linear_798_490" x1="13.6826" y1="0.909668" x2="13.6826" y2="28.1128" gradientUnits="userSpaceOnUse">
<stop stop-color="#D425FC"/>
<stop offset="1" stop-color="#9733EE"/>
</linearGradient>
<linearGradient id="paint1_linear_798_490" x1="13.6823" y1="7.71045" x2="13.6823" y2="21.312" gradientUnits="userSpaceOnUse">
<stop stop-color="#D425FC"/>
<stop offset="1" stop-color="#9733EE"/>
</linearGradient>
<linearGradient id="paint2_linear_798_490" x1="13.6826" y1="13.3779" x2="13.6826" y2="15.6449" gradientUnits="userSpaceOnUse">
<stop stop-color="#D425FC"/>
<stop offset="1" stop-color="#9733EE"/>
</linearGradient>
</defs>
</svg>
