<svg width="23" height="24" viewBox="0 0 23 24" fill="none" xmlns="http://www.w3.org/2000/svg">
<path d="M4.8228 2.14507C4.73904 2.23831 4.70762 2.6838 4.72856 3.46082L4.75998 4.6419L5.06364 4.67298L5.3673 4.71442L5.294 5.33604C5.21023 6.1545 4.86469 6.89008 4.08983 7.91575C3.01131 9.32475 3.03226 9.14863 3.03226 15.6342C3.03226 19.54 3.06367 21.2287 3.14744 21.4152C3.51392 22.2026 5.11599 22.1094 5.28353 21.2909C5.38824 20.8247 5.50342 20.7004 5.81755 20.7004C6.06886 20.7004 6.12121 20.7522 6.20498 21.0733C6.3411 21.6742 6.70759 21.9436 7.37774 21.9436C8.04788 21.9436 8.41437 21.6742 8.55049 21.0733C8.63426 20.7314 8.67615 20.7004 9.0531 20.6486C9.38818 20.6071 9.48242 20.545 9.50336 20.3688C9.57666 19.8715 8.62379 19.799 8.18401 20.2652C8.06883 20.3896 7.9327 20.6589 7.88035 20.8558C7.78611 21.1873 7.75469 21.2184 7.37774 21.2184C7.00078 21.2184 6.96937 21.1873 6.87513 20.8558C6.82277 20.6589 6.68665 20.3896 6.57147 20.2652C6.06886 19.7265 5.07411 19.9026 4.8228 20.5657C4.60291 21.1459 4.54009 21.2184 4.2469 21.2495C3.69193 21.322 3.66052 21.208 3.66052 19.1878V17.3333H6.32016C8.61332 17.3333 8.99028 17.3125 9.11593 17.1675C9.21017 17.0535 9.22064 16.9603 9.13687 16.836C9.04263 16.6806 8.71803 16.6598 6.3411 16.6288L3.66052 16.608V13.9662V11.3243H5.58719C7.59763 11.3243 7.83846 11.2725 7.6814 10.8684C7.62904 10.7234 7.36727 10.7027 5.62907 10.7027H3.63958L3.71287 10.2572C3.85947 9.39727 4.05842 9.0761 4.66574 8.73421C5.34636 8.36124 5.43012 8.35088 5.92226 8.68241C6.1631 8.84818 6.45629 8.94142 6.69712 8.94142C6.93795 8.94142 7.23114 8.84818 7.47198 8.68241C7.95364 8.36124 8.10024 8.36124 8.63426 8.68241C9.1264 8.98286 9.51383 9.00358 10.006 8.77566C10.3515 8.60989 10.3829 8.60989 10.519 8.79638C10.6028 8.91034 10.7285 9.15899 10.7913 9.35583C10.8541 9.55268 10.9588 9.7806 11.0217 9.84277C11.1578 10.0189 11.4824 10.0085 11.5452 9.83241C11.6709 9.5216 11.2101 8.47521 10.6866 7.88467C9.9955 7.08693 9.41959 5.82297 9.41959 5.06667C9.41959 4.75586 9.451 4.70406 9.71278 4.67298L9.9955 4.6419L10.0269 3.46082C10.0479 2.6838 10.0164 2.23831 9.93267 2.14507C9.83843 2.0311 9.33582 2.00002 7.37774 2.00002C5.41965 2.00002 4.91704 2.0311 4.8228 2.14507ZM9.39865 3.36758L9.36724 4.02028L7.3568 4.05136L5.33588 4.07208V3.39866V2.72524H7.37774H9.43006L9.39865 3.36758ZM8.73897 5.18063C8.86463 6.00946 9.1997 6.93152 9.56618 7.48062L9.93267 8.00899L9.70231 8.1644C9.40912 8.3716 9.29394 8.36124 8.95886 8.10224C8.34107 7.62566 7.97459 7.63602 6.97984 8.17476C6.70759 8.33016 6.66571 8.3198 6.22592 8.07116C5.97462 7.92611 5.62907 7.80179 5.45107 7.80179C5.27306 7.80179 5.12646 7.78107 5.12646 7.74999C5.12646 7.72927 5.27306 7.41846 5.45107 7.06621C5.63954 6.71396 5.85944 6.04054 5.94321 5.56396L6.11074 4.6937H7.38821H8.66568L8.73897 5.18063Z" fill="url(#paint0_linear_705_826)"/>
<path d="M14.7074 7.2423C12.833 8.37157 12.7493 8.46481 12.7912 9.29364C12.8226 9.89453 12.833 9.92561 13.0843 9.92561C13.3252 9.92561 13.3461 9.88417 13.3985 9.36616L13.4508 8.8067L14.9168 7.895C16.0686 7.18014 16.4141 7.01437 16.5607 7.08689C16.8016 7.21122 16.8016 7.41842 16.5712 7.61527C16.4665 7.70851 15.8801 8.09184 15.2623 8.46481L14.1419 9.15895L14.1105 9.90489L14.0791 10.6508L11.4823 10.7026L8.87498 10.7544L8.62368 11.0445C8.17342 11.5625 8.39332 12.3499 9.04252 12.5779C9.47183 12.7333 9.38806 12.2567 9.9535 17.5922C10.299 20.8764 10.4142 21.7674 10.5504 21.8607C10.7388 22.0161 16.7073 22.0575 16.9377 21.9021C17.0319 21.8503 17.1995 20.7107 17.4822 18.1517C17.9324 14.0801 17.9743 13.5932 17.8591 13.417C17.7649 13.2513 17.5345 13.2616 17.4089 13.417C17.3461 13.4896 17.1262 15.1783 16.9167 17.1778C16.7073 19.167 16.5084 20.9075 16.477 21.0319L16.4351 21.2701H13.7231H11.0215L10.8959 20.0476C10.8226 19.3846 10.6551 17.8098 10.5189 16.5562C10.3828 15.3026 10.2362 13.9143 10.1943 13.4688L10.121 12.6711H14.2571C18.3199 12.6711 18.4036 12.6711 18.6759 12.4535C19.0738 12.1427 19.189 11.7905 19.0528 11.3657C18.8434 10.7441 18.6968 10.7026 16.6131 10.7026H14.7492L14.7807 10.1121L14.8121 9.52156L16.0162 8.77562C17.2832 7.98824 17.5555 7.66707 17.4194 7.12833C17.3356 6.77608 16.8016 6.35131 16.456 6.35131C16.278 6.35131 15.5869 6.70356 14.7074 7.2423ZM18.2989 11.4175C18.3827 11.4693 18.4246 11.5936 18.4036 11.6972C18.3722 11.8837 18.1733 11.8941 13.7754 11.9252C8.95875 11.9459 8.88545 11.9459 9.11582 11.5107C9.21006 11.3346 9.4823 11.3243 13.6917 11.3243C16.1524 11.3243 18.2256 11.3657 18.2989 11.4175Z" fill="url(#paint1_linear_705_826)"/>
<path d="M6.30974 12.3086C5.80713 12.609 5.33594 13.4275 5.33594 14.0077C5.34641 15.1784 6.47728 16.1212 7.67098 15.9451C8.29924 15.8518 9.02174 15.3338 8.97986 15.023C8.93798 14.7018 8.64479 14.6915 8.24689 14.9816C7.79663 15.3131 7.45109 15.3856 6.99036 15.2509C6.06891 15.0023 5.74431 13.873 6.39351 13.1374C6.88565 12.5883 7.0113 12.6505 7.0113 13.4379C7.0113 13.873 7.06366 14.132 7.1579 14.2149C7.25214 14.2978 7.60815 14.3289 8.13171 14.3081C8.93798 14.2771 8.94845 14.2771 8.97986 13.987C9.01127 13.7072 9.01127 13.7072 8.38301 13.7072H7.74428V13.0442C7.74428 12.6816 7.71286 12.3086 7.68145 12.2154C7.57674 11.9563 6.82283 12.0081 6.30974 12.3086Z" fill="url(#paint2_linear_705_826)"/>
<path d="M12.8228 14.5256C10.5087 15.572 11.2207 18.9287 13.7652 18.9287C15.1159 18.9287 16.0583 17.9963 16.0583 16.6598C16.0583 14.9814 14.3306 13.8418 12.8228 14.5256ZM13.3987 15.9242C13.3987 16.5148 13.4406 16.8256 13.5348 16.8877C13.5976 16.9292 14.0479 16.9913 14.5191 17.0224L15.3777 17.0742L15.2102 17.4161C14.8123 18.2242 13.6291 18.535 12.8647 18.0274C12.4772 17.7787 12.0375 17.0224 12.0375 16.6184C12.0375 16.204 12.4354 15.4995 12.8018 15.2715C13.3568 14.9193 13.3987 14.9607 13.3987 15.9242ZM14.6343 15.2612C14.9379 15.4477 15.3882 16.0175 15.3882 16.2143C15.3882 16.2661 15.1055 16.2972 14.7599 16.2972H14.1317V15.6756C14.1317 15.3337 14.1631 15.054 14.2154 15.054C14.2573 15.054 14.4458 15.1472 14.6343 15.2612Z" fill="url(#paint3_linear_705_826)"/>
<defs>
<linearGradient id="paint0_linear_705_826" x1="7.29916" y1="21.958" x2="7.29916" y2="2.00002" gradientUnits="userSpaceOnUse">
<stop stop-color="#D425FC"/>
<stop offset="1" stop-color="#9733EE"/>
</linearGradient>
<linearGradient id="paint1_linear_705_826" x1="13.7471" y1="22" x2="13.7471" y2="6.35131" gradientUnits="userSpaceOnUse">
<stop stop-color="#D425FC"/>
<stop offset="1" stop-color="#9733EE"/>
</linearGradient>
<linearGradient id="paint2_linear_705_826" x1="7.16311" y1="15.9663" x2="7.16311" y2="12.0487" gradientUnits="userSpaceOnUse">
<stop stop-color="#D425FC"/>
<stop offset="1" stop-color="#9733EE"/>
</linearGradient>
<linearGradient id="paint3_linear_705_826" x1="13.7391" y1="18.9287" x2="13.7391" y2="14.3238" gradientUnits="userSpaceOnUse">
<stop stop-color="#D425FC"/>
<stop offset="1" stop-color="#9733EE"/>
</linearGradient>
</defs>
</svg>
