<svg width="15" height="28" viewBox="0 0 15 28" fill="none" xmlns="http://www.w3.org/2000/svg">
<path d="M12.123 0.819824C12.6602 0.820535 13.1758 1.03386 13.5557 1.41357C13.9354 1.79327 14.1494 2.30818 14.1504 2.84521V25.1548C14.1494 25.6918 13.9355 26.2068 13.5557 26.5864C13.1758 26.9661 12.6601 27.1795 12.123 27.1802H2.64258C2.10559 27.1795 1.5908 26.966 1.21094 26.5864C0.831093 26.2068 0.61721 25.6918 0.616211 25.1548V2.84521L0.625977 2.64502C0.672737 2.18143 0.878507 1.74584 1.21094 1.41357C1.59081 1.03396 2.10554 0.820534 2.64258 0.819824H12.123ZM2.64258 1.73584C2.34822 1.73593 2.06576 1.85214 1.85742 2.06006C1.6491 2.26812 1.53177 2.5508 1.53125 2.84521V25.1538L1.53711 25.2642C1.56274 25.5183 1.67516 25.7569 1.85742 25.939C2.06579 26.1471 2.34808 26.2641 2.64258 26.2642H12.123C12.4175 26.2641 12.6998 26.147 12.9082 25.939C13.1165 25.731 13.2338 25.4491 13.2344 25.1548V2.84521C13.2339 2.55079 13.1165 2.26812 12.9082 2.06006C12.6999 1.85222 12.4173 1.73591 12.123 1.73584H10.959V1.88428C10.9584 2.21094 10.8277 2.5244 10.5967 2.75537C10.3656 2.98627 10.0523 3.11634 9.72559 3.1167H5.04004C4.71338 3.11626 4.4 2.9863 4.16895 2.75537C3.93792 2.5244 3.80819 2.21094 3.80762 1.88428V1.73584H2.64258ZM6.71582 10.5601C7.18728 10.43 7.68699 10.4409 8.15234 10.5913C8.6004 10.7362 8.99662 11.0056 9.29883 11.3657C9.34239 11.3616 9.38592 11.3572 9.42969 11.3569H9.43066C9.65864 11.3572 9.8838 11.4062 10.0918 11.4995C10.2998 11.5929 10.486 11.7288 10.6377 11.8989C10.7894 12.0691 10.9037 12.2695 10.9727 12.4868C11.0361 12.6869 11.0578 12.8971 11.041 13.106C11.4238 13.4277 11.7028 13.8557 11.8398 14.3374C11.9817 14.8362 11.9653 15.3668 11.793 15.856C11.6206 16.3451 11.3011 16.7691 10.8779 17.0688C10.4548 17.3684 9.94911 17.5295 9.43066 17.5298H5.33496C4.7008 17.5299 4.08982 17.2894 3.62598 16.8569C3.16215 16.4244 2.88015 15.8314 2.83594 15.1987C2.79185 14.5663 2.98867 13.9404 3.3877 13.4478C3.77143 12.9741 4.31475 12.6582 4.91406 12.5562C4.99144 12.0992 5.19283 11.6719 5.49902 11.3228C5.82141 10.9552 6.24451 10.6901 6.71582 10.5601ZM7.93555 11.4849C7.61383 11.3658 7.2616 11.3535 6.93262 11.4507C6.60383 11.5479 6.31569 11.7494 6.11035 12.0239C5.90501 12.2986 5.79319 12.6322 5.79297 12.9751C5.79306 13.0966 5.74491 13.2132 5.65918 13.2993C5.59492 13.3638 5.51371 13.4074 5.42578 13.4253L5.33594 13.4341C4.91448 13.4341 4.50999 13.602 4.21191 13.8999C3.91386 14.198 3.74615 14.6024 3.74609 15.0239C3.74609 15.4455 3.91381 15.8498 4.21191 16.1479C4.51001 16.446 4.91438 16.6138 5.33594 16.6138H9.43066C9.77375 16.6137 10.108 16.5028 10.3828 16.2974C10.6575 16.092 10.8579 15.803 10.9551 15.4741C11.0523 15.1451 11.041 14.793 10.9219 14.4712C10.8028 14.1494 10.5829 13.8745 10.2949 13.688C10.2122 13.6345 10.1485 13.5557 10.1143 13.4634C10.0803 13.3713 10.0767 13.2705 10.1045 13.1763L10.126 13.0767C10.1308 13.0431 10.1338 13.0091 10.1338 12.9751C10.1341 12.8658 10.1084 12.7575 10.0596 12.6597C10.0107 12.5621 9.93999 12.4769 9.85254 12.4116C9.7649 12.3462 9.66237 12.3027 9.55469 12.2837C9.44725 12.2648 9.33693 12.2709 9.23242 12.3022H9.23047C9.13597 12.3293 9.03548 12.3258 8.94336 12.2915C8.8512 12.2572 8.77256 12.1941 8.71875 12.1118H8.71777C8.53131 11.824 8.25716 11.6039 7.93555 11.4849ZM4.72266 1.8833C4.72265 1.92498 4.73111 1.96687 4.74707 2.00537C4.76303 2.04373 4.787 2.07856 4.81641 2.10791C4.84581 2.1372 4.88059 2.16042 4.91895 2.17627C4.95747 2.19216 4.99934 2.20077 5.04102 2.20068H9.72559C9.76726 2.20077 9.80913 2.19216 9.84766 2.17627C9.88599 2.16041 9.92081 2.1372 9.9502 2.10791C9.97962 2.07854 10.0036 2.04375 10.0195 2.00537C10.0355 1.96687 10.043 1.92498 10.043 1.8833V1.73486H4.72266V1.8833Z" fill="#272727" stroke="#272727" stroke-width="0.2"/>
</svg>
