<svg width="33" height="21" viewBox="0 0 33 21" fill="none" xmlns="http://www.w3.org/2000/svg">
<path opacity="0.5" d="M32.6142 10.3328C32.6142 15.7276 28.2539 20.105 22.8677 20.105C17.4814 20.105 13.1211 15.7361 13.1211 10.3413V10.3328C13.1211 4.93795 17.4814 0.560547 22.8677 0.560547C28.2454 0.560547 32.6142 4.9294 32.6142 10.3328C32.6142 10.3242 32.6142 10.3242 32.6142 10.3328Z" fill="#CECECE"/>
<path opacity="0.3" d="M9.72676 0.560547C4.3747 0.594745 0.0400391 4.95505 0.0400391 10.3328C0.0400391 15.7276 4.4089 20.105 9.78661 20.105C12.3087 20.105 14.6086 19.1389 16.3442 17.5572C16.7033 17.2323 17.0281 16.8818 17.3359 16.5141H15.3353C15.0703 16.1893 14.8223 15.8558 14.6086 15.5053H18.0541C18.2678 15.1719 18.4559 14.8213 18.6184 14.4622H14.0358C13.8819 14.1288 13.7451 13.7868 13.6254 13.4363H19.0202C19.3451 12.4616 19.5246 11.4186 19.5246 10.3413C19.5246 9.62315 19.4477 8.92208 19.3023 8.24666H13.3432C13.4202 7.89612 13.5142 7.55414 13.6168 7.2207H19.0116C18.892 6.86162 18.7466 6.51108 18.5927 6.17765H14.0272C14.1897 5.82711 14.3778 5.48513 14.5829 5.15169H18.0284C17.7976 4.78406 17.5497 4.43353 17.2761 4.10864H15.361C15.6602 3.75811 15.9851 3.42467 16.3356 3.12543C14.6 1.54375 12.3002 0.577647 9.77806 0.577647C9.76951 0.560548 9.75241 0.560547 9.72676 0.560547Z" fill="#DEDEDE"/>
<path d="M13.2917 12.8209L13.4199 11.9403C13.3515 11.9403 13.2404 11.9745 13.1549 11.9745C12.7958 11.9745 12.7531 11.7864 12.7787 11.641L13.0694 9.83705H13.6166L13.7448 8.8624H13.2233L13.3259 8.25537H12.2999C12.2743 8.28102 11.6844 11.6752 11.6844 12.0856C11.6844 12.7012 12.0263 12.9748 12.5137 12.9662C12.8984 12.9491 13.1891 12.8465 13.2917 12.8209ZM13.6251 11.128C13.6251 12.5986 14.5912 12.9491 15.4205 12.9491C16.1815 12.9491 16.5149 12.7781 16.5149 12.7781L16.6944 11.7778C16.6944 11.7778 16.1131 12.0343 15.5915 12.0343C14.4801 12.0343 14.6767 11.205 14.6767 11.205H16.7885C16.7885 11.205 16.9253 10.5296 16.9253 10.256C16.9253 9.57202 16.5833 8.73415 15.4462 8.73415C14.3946 8.73415 13.6251 9.85415 13.6251 11.128ZM15.4462 9.66606C16.0276 9.66606 15.925 10.3244 15.925 10.3757H14.7708C14.7708 10.3073 14.8819 9.66606 15.4462 9.66606ZM22.0123 12.8209L22.2004 11.6838C22.2004 11.6838 21.6874 11.9403 21.3454 11.9403C20.6102 11.9403 20.3109 11.376 20.3109 10.769C20.3109 9.53782 20.9436 8.8624 21.6532 8.8624C22.1833 8.8624 22.6022 9.16164 22.6022 9.16164L22.7732 8.05873C22.7732 8.05873 22.1405 7.80225 21.6019 7.80225C20.405 7.80225 19.2337 8.8453 19.2337 10.8032C19.2337 12.1027 19.8663 12.9577 21.106 12.9577C21.4566 12.9577 22.0123 12.8209 22.0123 12.8209ZM7.58909 8.75125C6.87947 8.75125 6.33229 8.98209 6.33229 8.98209L6.1784 9.8798C6.1784 9.8798 6.63153 9.70026 7.30695 9.70026C7.69168 9.70026 7.97382 9.74301 7.97382 10.0593C7.97382 10.2474 7.93962 10.3244 7.93962 10.3244C7.93962 10.3244 7.63183 10.2987 7.49504 10.2987C6.59733 10.2987 5.65687 10.6835 5.65687 11.8377C5.65687 12.7525 6.27244 12.9577 6.65718 12.9577C7.39245 12.9577 7.70023 12.4789 7.72588 12.4789L7.69168 12.8807H8.60649L9.01687 10.0166C9.01687 8.78545 7.95672 8.75125 7.58909 8.75125ZM7.81138 11.0767C7.82848 11.2563 7.70023 12.0685 7.07611 12.0685C6.75122 12.0685 6.66573 11.8206 6.66573 11.6752C6.66573 11.3931 6.81962 11.0511 7.58054 11.0511C7.76008 11.0511 7.77718 11.0767 7.81138 11.0767ZM9.98298 12.9235C10.2138 12.9235 11.5561 12.9833 11.5561 11.5983C11.5561 10.3073 10.3164 10.5638 10.3164 10.0422C10.3164 9.78576 10.5216 9.70026 10.8892 9.70026C11.0346 9.70026 11.5989 9.75156 11.5989 9.75156L11.7271 8.83675C11.7271 8.83675 11.3595 8.7598 10.7695 8.7598C10.0001 8.7598 9.22206 9.06759 9.22206 10.1192C9.22206 11.3076 10.5216 11.1879 10.5216 11.6923C10.5216 12.0258 10.1625 12.0514 9.88038 12.0514C9.39306 12.0514 8.95703 11.889 8.95703 11.889L8.82023 12.7952C8.84588 12.8038 9.11092 12.9235 9.98298 12.9235ZM30.6132 7.92194L30.3909 9.31553C30.3909 9.31553 29.9976 8.7769 29.3906 8.7769C28.4416 8.7769 27.6465 9.92255 27.6465 11.2477C27.6465 12.1027 28.0654 12.932 28.9375 12.932C29.5616 12.932 29.9036 12.496 29.9036 12.496L29.8608 12.8636H30.8697L31.6648 7.92194H30.6132ZM30.1344 10.6407C30.1344 11.1879 29.8608 11.9232 29.2966 11.9232C28.9204 11.9232 28.7494 11.6068 28.7494 11.1195C28.7494 10.3158 29.1085 9.77721 29.5702 9.77721C29.9378 9.77721 30.1344 10.0337 30.1344 10.6407ZM1.97199 12.8722L2.60466 9.13599L2.6987 12.8722H3.41687L4.75061 9.13599L4.16069 12.8722H5.22084L6.0416 7.92194H4.40008L3.37412 10.9571L3.31428 7.92194H1.80099L0.97168 12.8722H1.97199ZM17.9598 12.8807C18.259 11.1622 18.3189 9.76011 19.037 10.0166C19.1653 9.34973 19.285 9.09324 19.4218 8.8111C19.4218 8.8111 19.3534 8.794 19.2251 8.794C18.7634 8.794 18.4129 9.42667 18.4129 9.42667L18.507 8.8453H17.5408L16.8911 12.8722H17.9598V12.8807ZM24.4147 8.75125C23.7051 8.75125 23.1579 8.98209 23.1579 8.98209L23.0041 9.8798C23.0041 9.8798 23.4572 9.70026 24.1326 9.70026C24.5173 9.70026 24.7995 9.74301 24.7995 10.0593C24.7995 10.2474 24.7653 10.3244 24.7653 10.3244C24.7653 10.3244 24.4575 10.2987 24.3207 10.2987C23.423 10.2987 22.4825 10.6835 22.4825 11.8377C22.4825 12.7525 23.0981 12.9577 23.4828 12.9577C24.2181 12.9577 24.5344 12.4789 24.543 12.4789L24.5088 12.8807H25.4236L25.834 10.0166C25.834 8.78545 24.7824 8.75125 24.4147 8.75125ZM24.637 11.0767C24.6541 11.2563 24.5259 12.0685 23.9018 12.0685C23.5769 12.0685 23.4999 11.8206 23.4999 11.6752C23.4999 11.3931 23.6538 11.0511 24.4147 11.0511C24.5857 11.0511 24.6028 11.0767 24.637 11.0767ZM26.6718 12.8807C26.9711 11.1622 27.0309 9.76011 27.7491 10.0166C27.8773 9.34973 27.997 9.09324 28.1338 8.8111C28.1338 8.8111 28.0654 8.794 27.9372 8.794C27.4755 8.794 27.125 9.42667 27.125 9.42667L27.219 8.8453H26.2529L25.6031 12.8722H26.6718V12.8807Z" fill="#606060"/>
</svg>
