<svg width="39" height="13" viewBox="0 0 39 13" fill="none" xmlns="http://www.w3.org/2000/svg">
<path d="M14.3721 11.9994L16.2911 1.20508H19.2895L17.4305 11.9994H14.3721Z" fill="#3C58BF"/>
<path d="M14.3721 11.9994L16.8308 1.20508H19.2895L17.4305 11.9994H14.3721Z" fill="#293688"/>
<path d="M28.2846 1.32545C27.6849 1.08558 26.7254 0.845703 25.526 0.845703C22.5276 0.845703 20.3687 2.34492 20.3687 4.50379C20.3687 6.12294 21.8679 6.96251 23.0673 7.50222C24.2667 8.04194 24.6265 8.40175 24.6265 8.8815C24.6265 9.60113 23.667 9.96094 22.8274 9.96094C21.6281 9.96094 20.9684 9.78104 19.9489 9.36125L19.5292 9.18135L19.1094 11.6401C19.829 11.9399 21.1483 12.2397 22.5276 12.2397C25.7059 12.2397 27.8048 10.7405 27.8048 8.46172C27.8048 7.20238 27.0252 6.24288 25.2262 5.46329C24.1467 4.92357 23.4871 4.62373 23.4871 4.08401C23.4871 3.60426 24.0268 3.12451 25.2262 3.12451C26.2456 3.12451 26.9653 3.30442 27.505 3.54429L27.8048 3.66423L28.2846 1.32545Z" fill="#3C58BF"/>
<path d="M28.2846 1.32545C27.6849 1.08558 26.7254 0.845703 25.526 0.845703C22.5276 0.845703 20.9084 2.34492 20.9084 4.50379C20.9084 6.12294 21.8679 6.96251 23.0673 7.50222C24.2667 8.04194 24.6265 8.40175 24.6265 8.8815C24.6265 9.60113 23.667 9.96094 22.8274 9.96094C21.6281 9.96094 20.9684 9.78104 19.9489 9.36125L19.5292 9.18135L19.1094 11.6401C19.829 11.9399 21.1483 12.2397 22.5276 12.2397C25.7059 12.2397 27.8048 10.7405 27.8048 8.46172C27.8048 7.20238 27.0252 6.24288 25.2262 5.46329C24.1467 4.92357 23.4871 4.62373 23.4871 4.08401C23.4871 3.60426 24.0268 3.12451 25.2262 3.12451C26.2456 3.12451 26.9653 3.30442 27.505 3.54429L27.8048 3.66423L28.2846 1.32545Z" fill="#293688"/>
<path d="M33.4426 1.20508C32.723 1.20508 32.1832 1.26505 31.8834 1.98467L27.3857 11.9994H30.6241L31.2237 10.2004H35.0617L35.4215 11.9994H38.3L35.7814 1.20508H33.4426ZM32.0633 8.40132C32.2432 7.8616 33.2627 5.22298 33.2627 5.22298C33.2627 5.22298 33.5025 4.56332 33.6825 4.14354L33.8624 5.16301C33.8624 5.16301 34.462 7.8616 34.582 8.46129H32.0633V8.40132Z" fill="#3C58BF"/>
<path d="M34.1622 1.20508C33.4426 1.20508 32.9029 1.26505 32.603 1.98467L27.3857 11.9994H30.6241L31.2237 10.2004H35.0617L35.4215 11.9994H38.3L35.7814 1.20508H34.1622ZM32.0633 8.40132C32.3032 7.80163 33.2627 5.22298 33.2627 5.22298C33.2627 5.22298 33.5025 4.56332 33.6825 4.14354L33.8624 5.16301C33.8624 5.16301 34.462 7.8616 34.582 8.46129H32.0633V8.40132Z" fill="#293688"/>
<path d="M8.85507 8.76183L8.55523 7.20265C8.01551 5.40359 6.27642 3.42462 4.35742 2.46512L7.05601 12.0601H10.2943L15.1518 1.26575H11.9135L8.85507 8.76183Z" fill="#3C58BF"/>
<path d="M8.85507 8.76183L8.55523 7.20265C8.01551 5.40359 6.27642 3.42462 4.35742 2.46512L7.05601 12.0601H10.2943L15.1518 1.26575H12.5132L8.85507 8.76183Z" fill="#293688"/>
<path d="M0.519531 1.20508L1.05925 1.32502C4.89724 2.22455 7.53587 4.50336 8.55533 7.20195L7.4759 2.10461C7.29599 1.38498 6.75627 1.20508 6.09662 1.20508H0.519531Z" fill="#FFBC00"/>
<path d="M0.519531 1.20508C4.35753 2.10461 7.53587 4.44339 8.55533 7.14198L7.53587 2.8842C7.35596 2.16458 6.75627 1.7448 6.09662 1.7448L0.519531 1.20508Z" fill="#F7981D"/>
<path d="M0.519531 1.20508C4.35753 2.10461 7.53587 4.44339 8.55533 7.14198L7.83571 4.8032C7.6558 4.08357 7.41593 3.36395 6.57637 3.06411L0.519531 1.20508Z" fill="#ED7C00"/>
<path d="M11.8541 8.40165L9.81515 6.36272L8.85565 8.64153L8.61578 7.14231C8.07606 5.34325 6.33697 3.36428 4.41797 2.40479L7.11656 11.9998H10.3549L11.8541 8.40165ZM17.4312 11.9998L14.8525 9.36115L14.3728 11.9998H17.4312ZM24.3276 8.28171C24.5674 8.52159 24.6874 8.7015 24.6274 8.94137C24.6274 9.66099 23.6679 10.0208 22.8284 10.0208C21.629 10.0208 20.9693 9.8409 19.9499 9.42112L19.5301 9.24121L19.1103 11.6999C19.8299 11.9998 21.1492 12.2996 22.5285 12.2996C24.4475 12.2996 26.0067 11.7599 26.9062 10.8004L24.3276 8.28171ZM27.8058 11.9998H30.6243L31.224 10.2007H35.062L35.4218 11.9998H38.3003L37.2808 7.62206L33.6827 4.14388L33.8626 5.10337C33.8626 5.10337 34.4623 7.80196 34.5822 8.40165H32.0635C32.3034 7.80196 33.2629 5.22331 33.2629 5.22331C33.2629 5.22331 33.5028 4.56366 33.6827 4.14388" fill="#051244"/>
</svg>
