<svg width="41" height="13" viewBox="0 0 41 13" fill="none" xmlns="http://www.w3.org/2000/svg">
<path d="M22.9141 0.841797C22.4622 0.841797 22.0954 1.20859 22.0954 1.66051V11.4848C22.0954 11.9367 22.4622 12.3035 22.9141 12.3035C23.0217 12.3036 23.1282 12.2824 23.2276 12.2413C23.3269 12.2002 23.4172 12.1399 23.4933 12.0639C23.5693 11.9878 23.6296 11.8975 23.6707 11.7982C23.7118 11.6988 23.7329 11.5923 23.7329 11.4848V1.66051C23.7329 1.20859 23.3661 0.841797 22.9141 0.841797ZM28.6794 4.11657H26.2233C25.7714 4.11657 25.4046 4.48337 25.4046 4.93528C25.4046 5.3872 25.7714 5.754 26.2233 5.754H28.6794C29.1313 5.754 29.4981 5.3872 29.4981 4.93528C29.4981 4.48337 29.1313 4.11657 28.6794 4.11657ZM28.6794 7.39127H26.2233C25.7714 7.39127 25.4046 7.75807 25.4046 8.20998C25.4046 8.6619 25.7714 9.0287 26.2233 9.0287H28.6794C29.1313 9.0287 29.4981 8.6619 29.4981 8.20998C29.4981 7.75807 29.1313 7.39127 28.6794 7.39127ZM8.40212 4.95816C8.02388 4.86974 7.65056 5.04819 7.48025 5.38881L6.66154 7.02616C6.59876 7.15068 6.56896 7.28921 6.57498 7.42852C6.581 7.56784 6.62264 7.70329 6.69592 7.82192C6.84659 8.06262 7.11015 8.20998 7.39344 8.20998H8.21216C8.66407 8.20998 9.03087 7.84318 9.03087 7.39127V5.75392C9.03087 5.37407 8.77053 5.04327 8.40212 4.95816Z" fill="#CECECE"/>
<path d="M30.896 5.99312L29.2587 4.35577C29.0245 4.1216 28.6725 4.05283 28.3663 4.17894C28.2166 4.24083 28.0886 4.34574 27.9985 4.4804C27.9085 4.61505 27.8604 4.7734 27.8604 4.9354V8.21018C27.8604 8.5409 28.0601 8.84054 28.3663 8.96665C28.4662 9.00924 28.5742 9.02889 28.6791 9.02889C28.7868 9.02881 28.8934 9.00751 28.9928 8.96622C29.0923 8.92492 29.1826 8.86443 29.2587 8.7882L30.896 7.15085C31.2153 6.83141 31.2153 6.31241 30.896 5.99312Z" fill="#CECECE"/>
<path d="M36.2941 6.5728L39.9503 2.18466C40.0502 2.06531 40.1138 1.91992 40.1338 1.76561C40.1539 1.6113 40.1294 1.45448 40.0633 1.3136C39.9972 1.17269 39.8923 1.05351 39.761 0.970005C39.6296 0.886497 39.4772 0.842112 39.3216 0.842041H35.2281C35.011 0.842308 34.8027 0.928219 34.6485 1.08112L32.7721 2.95755L30.8957 1.08112C30.7415 0.928219 30.5332 0.842308 30.316 0.842041H19.6388C19.4973 0.842179 19.3583 0.878887 19.2352 0.948603C19.1121 1.01832 19.0092 1.11867 18.9363 1.23992L17.1827 4.16425L15.4291 1.23992C15.3563 1.11857 15.2534 1.01813 15.1303 0.948404C15.0072 0.878674 14.8681 0.842029 14.7266 0.842041H6.57412C6.42199 0.841978 6.27287 0.884402 6.14356 0.964532C6.01424 1.04466 5.90987 1.15931 5.84222 1.29557L0.930093 11.1198C0.867316 11.2443 0.837514 11.3829 0.843534 11.5222C0.849554 11.6615 0.891194 11.7969 0.964478 11.9156C1.11514 12.1563 1.37871 12.3036 1.662 12.3036H5.75541C6.06487 12.3036 6.34816 12.1284 6.48732 11.8517L7.07838 10.6663H7.39276V11.485C7.39276 11.9369 7.75956 12.3037 8.21147 12.3037H14.7609C15.1572 12.3037 15.4879 12.0221 15.5632 11.6471L15.6664 11.8518C15.7346 11.9875 15.8391 12.1016 15.9683 12.1814C16.0976 12.2612 16.2464 12.3036 16.3983 12.3037H18.0356C18.3451 12.3037 18.6284 12.1285 18.7675 11.8518L18.8707 11.6471C18.946 12.022 19.2768 12.3037 19.673 12.3037H30.316C30.5337 12.3037 30.7417 12.2169 30.8956 12.063L32.772 10.1866L34.6484 12.0646C34.8026 12.2175 35.0109 12.3034 35.2281 12.3037H39.3215C39.4771 12.3036 39.6295 12.2593 39.7609 12.1758C39.8922 12.0922 39.9971 11.9731 40.0632 11.8321C40.1293 11.6913 40.1538 11.5345 40.1338 11.3801C40.1137 11.2258 40.0501 11.0804 39.9502 10.9611L36.2941 6.5728ZM35.5671 10.6662L33.3517 8.44923C33.0324 8.12994 32.5134 8.12994 32.1941 8.44923L29.9771 10.6662H20.4918V8.21015C20.4918 7.8303 20.2314 7.4995 19.863 7.41277C19.4864 7.32597 19.1115 7.5028 18.9412 7.84343L17.5314 10.6663H16.9042L15.4945 7.84343C15.3241 7.50449 14.9492 7.32605 14.5726 7.41277C14.2026 7.49958 13.9422 7.8303 13.9422 8.21015V10.6662H9.03011V9.8475C9.03011 9.39558 8.66331 9.02879 8.21139 9.02879H6.57412C6.26305 9.02879 5.98137 9.20401 5.8406 9.4807L5.24954 10.6661H2.98497L7.07838 2.47924H10.6675V8.21007C10.6675 8.66199 11.0343 9.02879 11.4862 9.02879C11.9382 9.02879 12.305 8.66199 12.305 8.21007V2.47924H14.2633L16.482 6.17315C16.7751 6.66598 17.5872 6.66598 17.8852 6.17315L20.1022 2.47762H29.9756L32.1925 4.6946C32.5118 5.01389 33.0309 5.01389 33.3502 4.6946L35.5672 2.47762H37.5746L34.6012 6.04713C34.4782 6.19435 34.4108 6.38009 34.4108 6.57192C34.4108 6.76375 34.4782 6.94949 34.6012 7.09671L37.5746 10.6662H35.5671Z" fill="#CECECE"/>
</svg>
