<svg width="24" height="21" viewBox="0 0 24 21" fill="none" xmlns="http://www.w3.org/2000/svg">
<path d="M23.0742 4.81593H7.33817C7.23638 4.81593 7.13875 4.85636 7.06678 4.92834C6.9948 5.00032 6.95436 5.09794 6.95436 5.19973C6.95436 5.30152 6.9948 5.39915 7.06678 5.47112C7.13875 5.5431 7.23638 5.58354 7.33817 5.58354H9.65827C8.82048 6.11664 8.1325 6.85461 7.65936 7.72767C7.18623 8.60074 6.94358 9.58004 6.95436 10.573C6.94358 11.566 7.18623 12.5453 7.65936 13.4183C8.1325 14.2914 8.82048 15.0294 9.65827 15.5625H1.58109V5.58354H5.41914C5.52093 5.58354 5.61855 5.5431 5.69053 5.47112C5.76251 5.39915 5.80295 5.30152 5.80295 5.19973C5.80295 5.09794 5.76251 5.00032 5.69053 4.92834C5.61855 4.85636 5.52093 4.81593 5.41914 4.81593H1.58109C1.3775 4.81593 1.18226 4.8968 1.0383 5.04076C0.89435 5.18471 0.813477 5.37995 0.813477 5.58354L0.813477 15.5625C0.813477 15.7661 0.89435 15.9613 1.0383 16.1053C1.18226 16.2492 1.3775 16.3301 1.58109 16.3301H23.0742C23.2778 16.3301 23.473 16.2492 23.617 16.1053C23.7609 15.9613 23.8418 15.7661 23.8418 15.5625V5.58354C23.8418 5.37995 23.7609 5.18471 23.617 5.04076C23.473 4.8968 23.2778 4.81593 23.0742 4.81593ZM7.72197 10.573C7.72197 7.82189 9.788 5.58354 12.3276 5.58354C14.8673 5.58354 16.9333 7.82189 16.9333 10.573C16.9333 13.3241 14.8673 15.5625 12.3276 15.5625C9.788 15.5625 7.72197 13.3241 7.72197 10.573ZM23.0742 15.5625H14.997C15.8348 15.0294 16.5228 14.2914 16.9959 13.4183C17.469 12.5453 17.7117 11.566 17.7009 10.573C17.7117 9.58004 17.469 8.60074 16.9959 7.72767C16.5228 6.85461 15.8348 6.11664 14.997 5.58354H23.0742V15.5625ZM21.0538 0.674668C20.8721 0.583736 20.6618 0.568554 20.4689 0.632449L12.2017 3.40314C12.153 3.41842 12.1077 3.44329 12.0686 3.47627C12.0296 3.50925 11.9975 3.5497 11.9742 3.59524C11.9509 3.64078 11.937 3.6905 11.9332 3.74149C11.9294 3.79248 11.9358 3.84371 11.952 3.8922C11.9683 3.94069 11.994 3.98546 12.0277 4.02388C12.0615 4.0623 12.1025 4.09361 12.1485 4.11597C12.1945 4.13833 12.2445 4.1513 12.2955 4.15412C12.3466 4.15693 12.3977 4.14954 12.4458 4.13237L20.7107 1.36168L21.5589 3.89057C21.5932 3.98477 21.6629 4.06187 21.7532 4.10544C21.8434 4.14901 21.9472 4.15561 22.0422 4.12384C22.1373 4.09207 22.2162 4.02443 22.2621 3.93533C22.3081 3.84624 22.3174 3.74273 22.2882 3.64686L21.4396 1.1195C21.4083 1.02333 21.358 0.934421 21.2917 0.858016C21.2255 0.781612 21.1446 0.719267 21.0538 0.674668ZM12.2094 17.014L3.94456 19.7843L3.09635 17.2554C3.06208 17.1612 2.99239 17.0841 2.90211 17.0406C2.81184 16.997 2.70812 16.9904 2.61305 17.0222C2.51798 17.0539 2.43907 17.1216 2.39313 17.2107C2.3472 17.2998 2.33786 17.4033 2.36712 17.4992L3.21418 20.0257C3.27712 20.2196 3.41529 20.38 3.59798 20.4706C3.77976 20.5612 3.98999 20.5764 4.1829 20.5128L12.4501 17.7421C12.4989 17.7268 12.5441 17.702 12.5832 17.669C12.6223 17.636 12.6544 17.5955 12.6776 17.55C12.7009 17.5045 12.7148 17.4548 12.7186 17.4038C12.7224 17.3528 12.716 17.3015 12.6998 17.253C12.6836 17.2046 12.6578 17.1598 12.6241 17.1214C12.5904 17.0829 12.5493 17.0516 12.5033 17.0293C12.4573 17.0069 12.4073 16.9939 12.3563 16.9911C12.3052 16.9883 12.2541 16.9957 12.206 17.0129L12.2094 17.014Z" fill="#CECECE"/>
<path d="M13.479 9.22974C13.479 9.33153 13.5194 9.42915 13.5914 9.50113C13.6634 9.57311 13.761 9.61354 13.8628 9.61354C13.9646 9.61354 14.0622 9.57311 14.1342 9.50113C14.2062 9.42915 14.2466 9.33153 14.2466 9.22974C14.2286 8.81277 14.0653 8.41525 13.7848 8.10615C13.5044 7.79705 13.1246 7.59588 12.7114 7.53754V7.50261C12.7114 7.40082 12.6709 7.3032 12.599 7.23122C12.527 7.15924 12.4294 7.11881 12.3276 7.11881C12.2258 7.11881 12.1282 7.15924 12.0562 7.23122C11.9842 7.3032 11.9438 7.40082 11.9438 7.50261V7.53754C11.5305 7.59588 11.1507 7.79705 10.8703 8.10615C10.5899 8.41525 10.4265 8.81277 10.4085 9.22974C10.4265 9.6467 10.5899 10.0442 10.8703 10.3533C11.1507 10.6624 11.5305 10.8636 11.9438 10.9219V12.8168C11.7358 12.7696 11.5487 12.6564 11.4103 12.4941C11.272 12.3319 11.1898 12.1292 11.1762 11.9164C11.1762 11.8146 11.1357 11.717 11.0637 11.645C10.9918 11.573 10.8941 11.5326 10.7923 11.5326C10.6906 11.5326 10.5929 11.573 10.521 11.645C10.449 11.717 10.4085 11.8146 10.4085 11.9164C10.4265 12.3333 10.5899 12.7309 10.8703 13.04C11.1507 13.3491 11.5305 13.5502 11.9438 13.6086V13.6435C11.9438 13.7453 11.9842 13.8429 12.0562 13.9149C12.1282 13.9869 12.2258 14.0273 12.3276 14.0273C12.4294 14.0273 12.527 13.9869 12.599 13.9149C12.6709 13.8429 12.7114 13.7453 12.7114 13.6435V13.6086C13.1246 13.5502 13.5044 13.3491 13.7848 13.04C14.0653 12.7309 14.2286 12.3333 14.2466 11.9164C14.2286 11.4994 14.0653 11.1019 13.7848 10.7928C13.5044 10.4837 13.1246 10.2825 12.7114 10.2242V8.32933C12.9193 8.37651 13.1065 8.48969 13.2448 8.65197C13.3832 8.81425 13.4653 9.01693 13.479 9.22974ZM11.1762 9.22974C11.1898 9.01693 11.272 8.81425 11.4103 8.65197C11.5487 8.48969 11.7358 8.37651 11.9438 8.32933V10.1301C11.7358 10.083 11.5487 9.96978 11.4103 9.8075C11.272 9.64522 11.1898 9.44255 11.1762 9.22974ZM13.479 11.9164C13.4653 12.1292 13.3832 12.3319 13.2448 12.4941C13.1065 12.6564 12.9193 12.7696 12.7114 12.8168V11.016C12.9193 11.0631 13.1065 11.1763 13.2448 11.3386C13.3832 11.5009 13.4653 11.7036 13.479 11.9164ZM20.3875 14.7949H21.9227C22.0245 14.7949 22.1221 14.7545 22.1941 14.6825C22.2661 14.6105 22.3065 14.5129 22.3065 14.4111V12.8759C22.3065 12.7741 22.2661 12.6765 22.1941 12.6045C22.1221 12.5325 22.0245 12.4921 21.9227 12.4921C21.8209 12.4921 21.7233 12.5325 21.6513 12.6045C21.5793 12.6765 21.5389 12.7741 21.5389 12.8759V14.0273H20.3875C20.2857 14.0273 20.1881 14.0677 20.1161 14.1397C20.0441 14.2117 20.0037 14.3093 20.0037 14.4111C20.0037 14.5129 20.0441 14.6105 20.1161 14.6825C20.1881 14.7545 20.2857 14.7949 20.3875 14.7949ZM2.73244 12.4921C2.63065 12.4921 2.53302 12.5325 2.46105 12.6045C2.38907 12.6765 2.34863 12.7741 2.34863 12.8759V14.4111C2.34863 14.5129 2.38907 14.6105 2.46105 14.6825C2.53302 14.7545 2.63065 14.7949 2.73244 14.7949H4.26766C4.36945 14.7949 4.46707 14.7545 4.53905 14.6825C4.61103 14.6105 4.65146 14.5129 4.65146 14.4111C4.65146 14.3093 4.61103 14.2117 4.53905 14.1397C4.46707 14.0677 4.36945 14.0273 4.26766 14.0273H3.11624V12.8759C3.11624 12.7741 3.07581 12.6765 3.00383 12.6045C2.93185 12.5325 2.83423 12.4921 2.73244 12.4921ZM4.26766 6.3512H2.73244C2.63065 6.3512 2.53302 6.39163 2.46105 6.46361C2.38907 6.53559 2.34863 6.63321 2.34863 6.735V8.27022C2.34863 8.37201 2.38907 8.46964 2.46105 8.54161C2.53302 8.61359 2.63065 8.65403 2.73244 8.65403C2.83423 8.65403 2.93185 8.61359 3.00383 8.54161C3.07581 8.46964 3.11624 8.37201 3.11624 8.27022V7.11881H4.26766C4.36945 7.11881 4.46707 7.07837 4.53905 7.00639C4.61103 6.93442 4.65146 6.83679 4.65146 6.735C4.65146 6.63321 4.61103 6.53559 4.53905 6.46361C4.46707 6.39163 4.36945 6.3512 4.26766 6.3512ZM20.3875 7.11881H21.5389V8.27022C21.5389 8.37201 21.5793 8.46964 21.6513 8.54161C21.7233 8.61359 21.8209 8.65403 21.9227 8.65403C22.0245 8.65403 22.1221 8.61359 22.1941 8.54161C22.2661 8.46964 22.3065 8.37201 22.3065 8.27022V6.735C22.3065 6.63321 22.2661 6.53559 22.1941 6.46361C22.1221 6.39163 22.0245 6.3512 21.9227 6.3512H20.3875C20.2857 6.3512 20.1881 6.39163 20.1161 6.46361C20.0441 6.53559 20.0037 6.63321 20.0037 6.735C20.0037 6.83679 20.0441 6.93442 20.1161 7.00639C20.1881 7.07837 20.2857 7.11881 20.3875 7.11881Z" fill="#CECECE"/>
</svg>
