<svg width="34" height="14" viewBox="0 0 34 14" fill="none" xmlns="http://www.w3.org/2000/svg">
<path d="M15.8162 6.6839V10.5607H14.5859V0.987305H17.8475C18.6742 0.987305 19.379 1.26287 19.9557 1.81394C20.5453 2.36501 20.84 3.03783 20.84 3.8324C20.84 4.64621 20.5453 5.31902 19.9557 5.86368C19.3854 6.40833 18.6806 6.67749 17.8475 6.67749H15.8162V6.6839ZM15.8162 2.16636V5.50485H17.8732C18.3602 5.50485 18.7703 5.33827 19.0907 5.01145C19.4175 4.68463 19.5841 4.28738 19.5841 3.83881C19.5841 3.39666 19.4175 3.00576 19.0907 2.679C18.7703 2.33935 18.3666 2.17277 17.8732 2.17277H15.8162V2.16636ZM24.0568 3.79397C24.9667 3.79397 25.6844 4.03747 26.2098 4.52446C26.7353 5.01145 26.998 5.67785 26.998 6.52373V10.5607H25.8253V9.65081H25.7741C25.2678 10.4005 24.5886 10.7722 23.7428 10.7722C23.0187 10.7722 22.4163 10.5607 21.9293 10.1314C21.4423 9.70206 21.1988 9.17017 21.1988 8.52942C21.1988 7.85019 21.4552 7.31195 21.9678 6.91463C22.4805 6.51097 23.1661 6.31231 24.0183 6.31231C24.7488 6.31231 25.3512 6.44689 25.819 6.71598V6.43406C25.819 6.00474 25.6524 5.64591 25.3127 5.34475C24.9731 5.04359 24.5758 4.89618 24.1209 4.89618C23.4352 4.89618 22.8905 5.18451 22.4932 5.76766L21.4103 5.08842C22.0062 4.2233 22.8905 3.79397 24.0568 3.79397ZM22.4676 8.5486C22.4676 8.86901 22.6022 9.13816 22.8777 9.34958C23.1469 9.56107 23.4673 9.66999 23.8325 9.66999C24.3516 9.66999 24.8129 9.47774 25.2166 9.09326C25.6204 8.70877 25.8254 8.2602 25.8254 7.74121C25.4409 7.44004 24.9091 7.28622 24.2234 7.28622C23.7236 7.28622 23.3071 7.40797 22.9739 7.64505C22.6342 7.89496 22.4676 8.19619 22.4676 8.5486ZM33.6878 4.0054L29.5868 13.4378H28.318L29.843 10.1377L27.1389 4.0054H28.4782L30.4262 8.70877H30.4518L32.3486 4.0054H33.6878Z" fill="#CECECE"/>
<path d="M10.8201 4.74756H5.66309V6.86217L8.63313 6.86282C8.51269 7.5664 8.125 8.16617 7.53099 8.56604V8.56643L7.53165 8.56604L7.47817 9.82992L9.2996 9.93734L9.29888 9.93799C10.3312 8.9826 10.9227 7.57026 10.9227 5.90167C10.923 5.51468 10.8887 5.12843 10.8201 4.74756Z" fill="#CECECE"/>
<path d="M7.53161 8.56633L7.53095 8.56672C7.03892 8.89838 6.40538 9.09239 5.66436 9.09239C4.23219 9.09239 3.01727 8.12738 2.58218 6.82658H2.58199L2.58218 6.82724L1.06159 6.58643L0.758789 8.24186C1.6624 10.0346 3.51925 11.2647 5.66442 11.2647C7.14679 11.2647 8.39222 10.7773 9.29891 9.93821C9.29918 9.93803 9.29942 9.93781 9.29963 9.93756L7.53161 8.56633Z" fill="#CECECE"/>
<path d="M2.41051 5.77665C2.41051 5.4114 2.47138 5.05834 2.58226 4.72641L2.10745 3.31152H0.758537C0.384983 4.05294 0.174805 4.88979 0.174805 5.77665C0.174805 6.6635 0.385637 7.50035 0.758537 8.24177L0.758799 8.24157L2.58226 6.82688C2.46871 6.48836 2.41071 6.1337 2.41051 5.77665Z" fill="#CECECE"/>
<path d="M5.66371 0.288696C3.51899 0.288696 1.66136 1.519 0.757812 3.31196L2.58147 4.72685C3.01655 3.42605 4.23147 2.46104 5.66364 2.46104C6.47293 2.46104 7.19772 2.73981 7.76994 3.28447L9.33668 1.71903C8.38515 0.832698 7.14457 0.288696 5.66371 0.288696Z" fill="#CECECE"/>
</svg>
