<svg width="31" height="14" viewBox="0 0 31 14" fill="none" xmlns="http://www.w3.org/2000/svg">
<path d="M6.07056 2.60645C6.42408 2.16425 6.66395 1.57057 6.60072 0.963867C6.08322 0.989613 5.45171 1.30531 5.08611 1.7478C4.7578 2.12678 4.46727 2.74532 4.54304 3.32657C5.12388 3.37695 5.70431 3.03621 6.07056 2.60645ZM6.5941 3.44006C5.75046 3.3898 5.03315 3.91885 4.63025 3.91885C4.22717 3.91885 3.6102 3.46539 2.94292 3.47759C2.07442 3.49038 1.26855 3.98142 0.827817 4.76243C-0.0786878 6.32484 0.588597 8.64245 1.47012 9.91491C1.89818 10.5444 2.41416 11.2376 3.09393 11.2127C3.73623 11.1875 3.98801 10.7968 4.76871 10.7968C5.54889 10.7968 5.77568 11.2127 6.45557 11.2001C7.16068 11.1875 7.60147 10.5702 8.02954 9.94007C8.52065 9.22241 8.72169 8.52949 8.7343 8.49143C8.72163 8.47882 7.37469 7.96208 7.3622 6.41269C7.34947 5.11536 8.41972 4.49822 8.47009 4.45998C7.8658 3.56621 6.92146 3.46539 6.5941 3.44006ZM13.9399 1.68429C15.7736 1.68429 17.0504 2.94824 17.0504 4.78846C17.0504 6.63526 15.7472 7.90578 13.8939 7.90578H11.8638V11.1344H10.3969V1.68429H13.9399ZM11.8637 6.67455H13.5467C14.8238 6.67455 15.5506 5.98697 15.5506 4.79503C15.5506 3.60321 14.8238 2.92209 13.5533 2.92209H11.8637V6.67455ZM17.4336 9.17631C17.4336 7.97123 18.357 7.23123 19.9944 7.13956L21.8804 7.02825V6.49785C21.8804 5.73162 21.363 5.27318 20.4987 5.27318C19.6799 5.27318 19.169 5.66606 19.0448 6.28173H17.7088C17.7874 5.03736 18.8482 4.12054 20.551 4.12054C22.2209 4.12054 23.2883 5.00464 23.2883 6.38642V11.1344H21.9327V10.0014H21.9001C21.5006 10.7677 20.6295 11.2522 19.7258 11.2522C18.3767 11.2522 17.4336 10.4139 17.4336 9.17631ZM21.8803 8.55418V8.01064L20.1841 8.11539C19.3393 8.17438 18.8613 8.54767 18.8613 9.13707C18.8613 9.73949 19.3589 10.1325 20.1187 10.1325C21.1075 10.1324 21.8803 9.4513 21.8803 8.55418ZM24.5681 13.6688V12.5228C24.6728 12.5489 24.9085 12.5489 25.0264 12.5489C25.6813 12.5489 26.035 12.2739 26.251 11.5666C26.251 11.5535 26.3755 11.1475 26.3755 11.1409L23.887 4.24493H25.4193L27.1615 9.85081H27.1875L28.9298 4.24493H30.4227L27.8423 11.4945C27.2531 13.1646 26.572 13.7016 25.1443 13.7016C25.0264 13.7016 24.6727 13.6884 24.5681 13.6688Z" fill="#CECECE"/>
</svg>
