<svg width="14" height="14" viewBox="0 0 14 14" fill="none" xmlns="http://www.w3.org/2000/svg">
<path opacity="0.6" d="M2 0C1.46957 0 0.960859 0.210714 0.585786 0.585786C0.210714 0.960859 0 1.46957 0 2V12C0 12.5304 0.210714 13.0391 0.585786 13.4142C0.960859 13.7893 1.46957 14 2 14H12C12.5304 14 13.0391 13.7893 13.4142 13.4142C13.7893 13.0391 14 12.5304 14 12V2C14 1.46957 13.7893 0.960859 13.4142 0.585786C13.0391 0.210714 12.5304 0 12 0H2ZM7 7C7.13261 7 7.25979 7.05268 7.35355 7.14645C7.44732 7.24021 7.5 7.36739 7.5 7.5V10.5C7.5 10.6326 7.44732 10.7598 7.35355 10.8536C7.25979 10.9473 7.13261 11 7 11C6.86739 11 6.74021 10.9473 6.64645 10.8536C6.55268 10.7598 6.5 10.6326 6.5 10.5V7.5C6.5 7.36739 6.55268 7.24021 6.64645 7.14645C6.74021 7.05268 6.86739 7 7 7ZM3 5.5C3 5.36739 3.05268 5.24021 3.14645 5.14645C3.24021 5.05268 3.36739 5 3.5 5C3.63261 5 3.75979 5.05268 3.85355 5.14645C3.94732 5.24021 4 5.36739 4 5.5V10.5C4 10.6326 3.94732 10.7598 3.85355 10.8536C3.75979 10.9473 3.63261 11 3.5 11C3.36739 11 3.24021 10.9473 3.14645 10.8536C3.05268 10.7598 3 10.6326 3 10.5V5.5ZM10.5 3C10.6326 3 10.7598 3.05268 10.8536 3.14645C10.9473 3.24021 11 3.36739 11 3.5V10.5C11 10.6326 10.9473 10.7598 10.8536 10.8536C10.7598 10.9473 10.6326 11 10.5 11C10.3674 11 10.2402 10.9473 10.1464 10.8536C10.0527 10.7598 10 10.6326 10 10.5V3.5C10 3.36739 10.0527 3.24021 10.1464 3.14645C10.2402 3.05268 10.3674 3 10.5 3Z" fill="url(#paint0_linear_312_1072)"/>
<defs>
<linearGradient id="paint0_linear_312_1072" x1="7" y1="0" x2="7" y2="14" gradientUnits="userSpaceOnUse">
<stop stop-color="#D425FC"/>
<stop offset="1" stop-color="#9733EE"/>
</linearGradient>
</defs>
</svg>
