<svg width="21" height="20" viewBox="0 0 21 20" fill="none" xmlns="http://www.w3.org/2000/svg">
<g clip-path="url(#clip0_772_19824)">
<path d="M20.0993 16.2542L4.61787 0.743669C3.94268 0.0672145 2.84801 0.0672145 2.17385 0.743669L1.35795 1.55985C0.682765 2.23652 0.682765 3.33325 1.35795 4.00862L16.8394 19.5191C17.5148 20.1956 18.6095 20.1956 19.2836 19.5191L20.0982 18.7029C20.7747 18.0276 20.7747 16.9306 20.0993 16.2542Z" fill="#AAAAAA"/>
<path d="M16.8394 0.743507L1.35795 16.254C0.682765 16.9305 0.682765 18.0274 1.35795 18.7028L2.17261 19.519C2.84801 20.1954 3.94268 20.1954 4.61679 19.519L20.0993 4.00954C20.7747 3.33308 20.7747 2.23636 20.0993 1.56099L19.2846 0.744806C18.6095 0.0670523 17.5148 0.0670523 16.8394 0.743507Z" fill="#AAAAAA"/>
</g>
<defs>
<clipPath id="clip0_772_19824">
<rect width="19.7542" height="19.7542" fill="white" transform="translate(0.851562 0.216309)"/>
</clipPath>
</defs>
</svg>
