<svg width="23" height="23" viewBox="0 0 23 23" fill="none" xmlns="http://www.w3.org/2000/svg">
<path fill-rule="evenodd" clip-rule="evenodd" d="M11.75 2.02233C8.08115 2.02233 5.23414 4.32031 4.74851 7.11638H7.22195C7.44713 7.11638 7.66307 7.20583 7.82229 7.36505C7.98151 7.52427 8.07096 7.74022 8.07096 7.96539V15.8895C8.07096 16.1146 7.98151 16.3306 7.82229 16.4898C7.66307 16.649 7.44713 16.7385 7.22195 16.7385H3.82592C3.00029 16.7385 2.20848 16.4105 1.62468 15.8267C1.04087 15.2429 0.712891 14.4511 0.712891 13.6254V10.2294C0.712891 8.78949 1.68982 7.57824 3.01653 7.22279C3.44896 3.25622 7.30572 0.32431 11.75 0.32431C16.1943 0.32431 20.051 3.25622 20.4835 7.22279C21.1446 7.40099 21.7285 7.79211 22.1449 8.33561C22.5614 8.87912 22.7871 9.54471 22.7871 10.2294V13.6254C22.7871 14.3122 22.5602 14.9797 22.1415 15.5241C21.7228 16.0685 21.1359 16.4592 20.4721 16.6355C20.292 17.9198 19.6537 19.0959 18.675 19.9469C17.6963 20.7979 16.443 21.2665 15.146 21.2665H13.8499C13.6529 21.7536 13.2926 22.157 12.8307 22.4075C12.3689 22.6581 11.8343 22.7402 11.3186 22.6398C10.8029 22.5395 10.3381 22.2629 10.0039 21.8574C9.66979 21.452 9.48705 20.9429 9.48705 20.4175C9.48705 19.8921 9.66979 19.3831 10.0039 18.9776C10.3381 18.5721 10.8029 18.2955 11.3186 18.1952C11.8343 18.0948 12.3689 18.1769 12.8307 18.4275C13.2926 18.6781 13.6529 19.0814 13.8499 19.5685H15.146C15.9742 19.5685 16.7782 19.2891 17.428 18.7755C18.0777 18.262 18.5353 17.5443 18.7266 16.7385H16.278C16.0529 16.7385 15.8369 16.649 15.6777 16.4898C15.5185 16.3306 15.429 16.1146 15.429 15.8895V7.96539C15.429 7.74022 15.5185 7.52427 15.6777 7.36505C15.8369 7.20583 16.0529 7.11638 16.278 7.11638H18.7515C18.2659 4.32031 15.4188 2.02233 11.75 2.02233ZM3.82592 8.81439C3.04483 8.81439 2.41091 9.44832 2.41091 10.2294V13.6254C2.41091 14.4065 3.04483 15.0405 3.82592 15.0405H6.37295V8.81439H3.82592ZM21.0891 10.2294C21.0891 9.44832 20.4552 8.81439 19.6741 8.81439H17.1271V15.0405H19.6741C20.4552 15.0405 21.0891 14.4065 21.0891 13.6254V10.2294Z" fill="#272727"/>
</svg>
