<svg width="24" height="24" viewBox="0 0 24 24" fill="none" xmlns="http://www.w3.org/2000/svg">
<path d="M3.11133 15.833H9.77734C10.1123 15.833 10.3886 16.1094 10.3887 16.4443V20.8887C10.3887 21.2236 10.1123 21.5 9.77734 21.5H3.11133C2.77636 21.5 2.5 21.2236 2.5 20.8887V16.4443C2.50006 16.1094 2.7764 15.833 3.11133 15.833ZM14.2227 11.3887H20.8887C21.2236 11.3887 21.5 11.665 21.5 12V20.8887C21.5 21.2236 21.2236 21.5 20.8887 21.5H14.2227C13.8877 21.5 13.6113 21.2236 13.6113 20.8887V12C13.6113 11.665 13.8877 11.3887 14.2227 11.3887ZM3.11133 2.5H9.77734C10.1123 2.5 10.3887 2.77636 10.3887 3.11133V12C10.3887 12.335 10.1123 12.6113 9.77734 12.6113H3.11133C2.77636 12.6113 2.5 12.335 2.5 12V3.11133C2.5 2.77636 2.77636 2.5 3.11133 2.5ZM14.2227 2.5H20.8887C21.2236 2.5 21.5 2.77636 21.5 3.11133V7.55566C21.4999 7.89058 21.2236 8.16699 20.8887 8.16699H14.2227C13.8877 8.16699 13.6114 7.89058 13.6113 7.55566V3.11133C13.6113 2.77636 13.8877 2.5 14.2227 2.5Z" stroke="black"/>
</svg>
