<svg width="24" height="24" viewBox="0 0 24 24" fill="none" xmlns="http://www.w3.org/2000/svg">
<path d="M3.11111 13.1111H9.77778C10.3889 13.1111 10.8889 12.6111 10.8889 12V3.11111C10.8889 2.5 10.3889 2 9.77778 2H3.11111C2.5 2 2 2.5 2 3.11111V12C2 12.6111 2.5 13.1111 3.11111 13.1111ZM3.11111 22H9.77778C10.3889 22 10.8889 21.5 10.8889 20.8889V16.4444C10.8889 15.8333 10.3889 15.3333 9.77778 15.3333H3.11111C2.5 15.3333 2 15.8333 2 16.4444V20.8889C2 21.5 2.5 22 3.11111 22ZM14.2222 22H20.8889C21.5 22 22 21.5 22 20.8889V12C22 11.3889 21.5 10.8889 20.8889 10.8889H14.2222C13.6111 10.8889 13.1111 11.3889 13.1111 12V20.8889C13.1111 21.5 13.6111 22 14.2222 22ZM13.1111 3.11111V7.55556C13.1111 8.16667 13.6111 8.66667 14.2222 8.66667H20.8889C21.5 8.66667 22 8.16667 22 7.55556V3.11111C22 2.5 21.5 2 20.8889 2H14.2222C13.6111 2 13.1111 2.5 13.1111 3.11111Z" fill="url(#paint0_linear_548_619)"/>
<defs>
<linearGradient id="paint0_linear_548_619" x1="12" y1="2" x2="12" y2="22" gradientUnits="userSpaceOnUse">
<stop stop-color="#D425FC"/>
<stop offset="1" stop-color="#9733EE"/>
</linearGradient>
</defs>
</svg>
