<svg width="17" height="17" viewBox="0 0 17 17" fill="none" xmlns="http://www.w3.org/2000/svg">
<g clip-path="url(#clip0_772_19888)">
<path d="M8.27626 1.01514C6.23097 1.01771 4.2702 1.83134 2.82396 3.27757C1.37772 4.72381 0.564096 6.68459 0.561523 8.72987C0.563067 10.7758 1.37624 12.7376 2.82259 14.1847C4.26893 15.6318 6.2303 16.4459 8.27626 16.4485C10.3229 16.447 12.2853 15.6332 13.7324 14.1861C15.1796 12.7389 15.9933 10.7765 15.9949 8.72987C15.9923 6.68358 15.1779 4.72192 13.7304 3.27551C12.2829 1.82911 10.3226 1.01617 8.27626 1.01514ZM8.27626 2.04364C9.15511 2.04236 10.0256 2.21445 10.8378 2.55007C11.6501 2.88568 12.3881 3.37821 13.0097 3.99947C13.6314 4.62073 14.1243 5.35851 14.4604 6.17056C14.7965 6.9826 14.9691 7.85297 14.9683 8.73182C14.9686 9.61061 14.7956 10.4808 14.4594 11.2928C14.1232 12.1047 13.6302 12.8424 13.0087 13.4637C12.3872 14.085 11.6494 14.5778 10.8374 14.9138C10.0253 15.2498 9.15506 15.4225 8.27626 15.4219C7.39741 15.4227 6.52705 15.2501 5.715 14.914C4.90295 14.5779 4.16517 14.085 3.54392 13.4634C2.92266 12.8417 2.43012 12.1037 2.09451 11.2914C1.7589 10.4792 1.5868 9.60872 1.58808 8.72987C1.58706 7.85128 1.75935 6.98112 2.0951 6.16921C2.43085 5.3573 2.92346 4.61959 3.54472 3.99833C4.16598 3.37708 4.90369 2.88447 5.71559 2.54872C6.5275 2.21297 7.39767 2.04067 8.27626 2.04169V2.04364ZM8.27043 4.61781C8.13446 4.62037 8.00501 4.67658 7.91032 4.77419C7.81563 4.87179 7.76336 5.00288 7.76493 5.13887V5.57243C6.93474 5.72797 6.22315 6.26264 6.22315 7.19004C6.22315 7.83164 6.51478 8.35269 6.90363 8.65599C7.29248 8.95929 7.73187 9.0915 8.11683 9.21982C8.50374 9.35009 8.8362 9.47257 9.02479 9.62033C9.21533 9.76615 9.30476 9.89253 9.30476 10.2775C9.30476 11.133 7.25165 11.133 7.25165 10.2775C7.25596 10.2073 7.24587 10.137 7.22198 10.0708C7.19809 10.0047 7.16091 9.94413 7.11273 9.8929C7.06456 9.84167 7.0064 9.80084 6.94185 9.77293C6.8773 9.74503 6.80772 9.73063 6.7374 9.73063C6.66707 9.73063 6.59749 9.74503 6.53294 9.77293C6.46839 9.80084 6.41024 9.84167 6.36206 9.8929C6.31388 9.94413 6.27671 10.0047 6.25281 10.0708C6.22892 10.137 6.21883 10.2073 6.22315 10.2775C6.22315 11.2029 6.93474 11.7396 7.76493 11.8951V12.3267C7.76061 12.3969 7.77071 12.4672 7.7946 12.5334C7.81849 12.5995 7.85566 12.6601 7.90384 12.7113C7.95202 12.7625 8.01017 12.8034 8.07472 12.8313C8.13927 12.8592 8.20885 12.8736 8.27918 12.8736C8.3495 12.8736 8.41908 12.8592 8.48363 12.8313C8.54818 12.8034 8.60634 12.7625 8.65451 12.7113C8.70269 12.6601 8.73987 12.5995 8.76376 12.5334C8.78765 12.4672 8.79775 12.3969 8.79343 12.3267V11.8931C9.62362 11.7376 10.3352 11.201 10.3352 10.2755C10.3352 9.632 10.0436 9.11094 9.65473 8.80959C9.26588 8.50629 8.82648 8.37019 8.44152 8.24187C8.05462 8.11355 7.72215 7.99106 7.53162 7.84524C7.34303 7.69748 7.25165 7.57305 7.25165 7.18809C7.25165 6.33068 9.30476 6.33068 9.30476 7.18809C9.30476 7.32474 9.35905 7.45579 9.45567 7.55241C9.55229 7.64903 9.68334 7.70332 9.81999 7.70332C9.95663 7.70332 10.0877 7.64903 10.1843 7.55241C10.2809 7.45579 10.3352 7.32474 10.3352 7.18809C10.3352 6.26264 9.62362 5.72797 8.79343 5.57049V5.13692C8.79422 5.06795 8.78116 4.99951 8.75501 4.93568C8.72886 4.87185 8.69016 4.81392 8.6412 4.76533C8.59224 4.71673 8.53403 4.67846 8.47 4.65279C8.40598 4.62712 8.33745 4.61456 8.26848 4.61587L8.27043 4.61781Z" fill="white"/>
</g>
<defs>
<clipPath id="clip0_772_19888">
<rect width="16.4619" height="16.4619" fill="white" transform="translate(0.0463867 0.5)"/>
</clipPath>
</defs>
</svg>
