<svg width="17" height="17" viewBox="0 0 17 17" fill="none" xmlns="http://www.w3.org/2000/svg">
<g clip-path="url(#clip0_807_1323)">
<path d="M8.27724 1.02783C6.23195 1.0304 4.27117 1.84403 2.82494 3.29027C1.3787 4.7365 0.565072 6.69728 0.5625 8.74257C0.564043 10.7885 1.37722 12.7503 2.82356 14.1974C4.26991 15.6445 6.23128 16.4586 8.27724 16.4612C10.3239 16.4596 12.2862 15.6459 13.7334 14.1988C15.1806 12.7516 15.9943 10.7892 15.9959 8.74257C15.9933 6.69627 15.1789 4.73461 13.7314 3.28821C12.2839 1.84181 10.3235 1.02886 8.27724 1.02783ZM8.27724 2.05633C9.15608 2.05506 10.0266 2.22715 10.8388 2.56276C11.651 2.89837 12.3891 3.39091 13.0107 4.01217C13.6323 4.63343 14.1253 5.3712 14.4614 6.18325C14.7975 6.9953 14.9701 7.86567 14.9693 8.74451C14.9696 9.62331 14.7966 10.4935 14.4604 11.3055C14.1241 12.1174 13.6312 12.8551 13.0097 13.4764C12.3882 14.0977 11.6504 14.5905 10.8383 14.9265C10.0263 15.2625 9.15603 15.4351 8.27724 15.4346C7.39839 15.4354 6.52802 15.2628 5.71597 14.9267C4.90393 14.5906 4.16615 14.0977 3.54489 13.4761C2.92363 12.8544 2.4311 12.1164 2.09548 11.3041C1.75987 10.4919 1.58778 9.62142 1.58906 8.74257C1.58803 7.86398 1.76033 6.99381 2.09608 6.1819C2.43183 5.36999 2.92444 4.63229 3.5457 4.01103C4.16696 3.38977 4.90466 2.89716 5.71657 2.56141C6.52848 2.22566 7.39864 2.05337 8.27724 2.05439V2.05633ZM8.2714 4.63051C8.13543 4.63306 8.00599 4.68927 7.9113 4.78688C7.8166 4.88449 7.76434 5.01558 7.7659 5.15156V5.58513C6.93571 5.74066 6.22412 6.27533 6.22412 7.20273C6.22412 7.84433 6.51576 8.36539 6.9046 8.66869C7.29345 8.97199 7.73285 9.1042 8.11781 9.23252C8.50471 9.36278 8.83718 9.48527 9.02577 9.63303C9.2163 9.77885 9.30574 9.90522 9.30574 10.2902C9.30574 11.1456 7.25262 11.1456 7.25262 10.2902C7.25694 10.22 7.24684 10.1497 7.22295 10.0835C7.19906 10.0174 7.16188 9.95682 7.11371 9.90559C7.06553 9.85436 7.00738 9.81353 6.94283 9.78563C6.87828 9.75772 6.8087 9.74332 6.73837 9.74332C6.66805 9.74332 6.59847 9.75772 6.53392 9.78563C6.46937 9.81353 6.41121 9.85436 6.36304 9.90559C6.31486 9.95682 6.27768 10.0174 6.25379 10.0835C6.2299 10.1497 6.2198 10.22 6.22412 10.2902C6.22412 11.2156 6.93571 11.7522 7.7659 11.9078V12.3394C7.76158 12.4096 7.77168 12.4799 7.79557 12.5461C7.81946 12.6122 7.85664 12.6728 7.90482 12.724C7.95299 12.7752 8.01115 12.8161 8.0757 12.844C8.14025 12.8719 8.20983 12.8863 8.28015 12.8863C8.35048 12.8863 8.42006 12.8719 8.48461 12.844C8.54916 12.8161 8.60731 12.7752 8.65549 12.724C8.70366 12.6728 8.74084 12.6122 8.76473 12.5461C8.78862 12.4799 8.79872 12.4096 8.7944 12.3394V11.9058C9.62459 11.7503 10.3362 11.2137 10.3362 10.2882C10.3362 9.6447 10.0445 9.12364 9.6557 8.82228C9.26685 8.51898 8.82746 8.38288 8.4425 8.25456C8.05559 8.12625 7.72313 8.00376 7.53259 7.85794C7.344 7.71018 7.25262 7.58575 7.25262 7.20079C7.25262 6.34338 9.30574 6.34338 9.30574 7.20079C9.30574 7.33743 9.36002 7.46848 9.45664 7.56511C9.55327 7.66173 9.68432 7.71601 9.82096 7.71601C9.95761 7.71601 10.0887 7.66173 10.1853 7.56511C10.2819 7.46848 10.3362 7.33743 10.3362 7.20079C10.3362 6.27533 9.62459 5.74066 8.7944 5.58318V5.14962C8.7952 5.08064 8.78213 5.01221 8.75598 4.94838C8.72983 4.88455 8.69113 4.82662 8.64218 4.77802C8.59322 4.72943 8.535 4.69116 8.47098 4.66549C8.40695 4.63981 8.33843 4.62726 8.26946 4.62856L8.2714 4.63051Z" fill="#8F8F8F"/>
</g>
<defs>
<clipPath id="clip0_807_1323">
<rect width="16.4619" height="16.4619" fill="white" transform="translate(0.046875 0.512695)"/>
</clipPath>
</defs>
</svg>
