<svg width="12" height="12" viewBox="0 0 12 12" fill="none" xmlns="http://www.w3.org/2000/svg">
<g opacity="0.8">
<path fill-rule="evenodd" clip-rule="evenodd" d="M1.3199e-07 3.4212C-0.00012767 3.14861 0.0925577 2.88409 0.2628 2.6712L1.86 0.6756C2.02859 0.464846 2.24242 0.294701 2.48565 0.177756C2.72889 0.0608112 2.99531 6.06997e-05 3.2652 1.05932e-08H8.7348C9.00479 -2.92785e-05 9.27133 0.060678 9.51468 0.177626C9.75802 0.294574 9.97195 0.464767 10.1406 0.6756L11.7366 2.6712C11.9071 2.88401 12 3.14854 12 3.4212V10.2C12 10.6774 11.8104 11.1352 11.4728 11.4728C11.1352 11.8104 10.6774 12 10.2 12H1.8C1.32261 12 0.864774 11.8104 0.527208 11.4728C0.189643 11.1352 1.3199e-07 10.6774 1.3199e-07 10.2V3.4212ZM3.2652 1.2H8.7348C8.82478 1.19997 8.91362 1.22017 8.99473 1.25912C9.07585 1.29807 9.14716 1.35476 9.2034 1.425L10.2684 2.7564C10.286 2.77846 10.297 2.80503 10.3002 2.83308C10.3034 2.86112 10.2986 2.8895 10.2864 2.91494C10.2742 2.94039 10.255 2.96186 10.2311 2.97691C10.2073 2.99196 10.1796 2.99996 10.1514 3H1.848C1.81977 2.99996 1.79213 2.99196 1.76825 2.97691C1.74437 2.96186 1.72522 2.94039 1.713 2.91494C1.70078 2.8895 1.69599 2.86112 1.69917 2.83308C1.70236 2.80503 1.71339 2.77846 1.731 2.7564L2.796 1.425C2.85224 1.35476 2.92355 1.29807 3.00467 1.25912C3.08578 1.22017 3.17522 1.19997 3.2652 1.2ZM6.6012 5.4C6.6012 5.24087 6.53799 5.08826 6.42546 4.97574C6.31294 4.86321 6.16033 4.8 6.0012 4.8C5.84207 4.8 5.68946 4.86321 5.57694 4.97574C5.46441 5.08826 5.4012 5.24087 5.4012 5.4V8.4516L4.9242 7.9746C4.81104 7.86531 4.65948 7.80483 4.50216 7.8062C4.34484 7.80756 4.19435 7.87066 4.08311 7.98191C3.97186 8.09315 3.90876 8.24364 3.9074 8.40096C3.90603 8.55828 3.96651 8.70984 4.0758 8.823L5.1528 9.9C5.37783 10.125 5.683 10.2513 6.0012 10.2513C6.3194 10.2513 6.62457 10.125 6.8496 9.9L7.9242 8.826C8.03678 8.7135 8.10007 8.56087 8.10012 8.40171C8.10018 8.24255 8.03701 8.08988 7.9245 7.9773C7.812 7.86472 7.65937 7.80143 7.50021 7.80138C7.34105 7.80132 7.18839 7.8645 7.0758 7.977L6.6012 8.451V5.4Z" fill="url(#paint0_linear_713_791)"/>
</g>
<defs>
<linearGradient id="paint0_linear_713_791" x1="6" y1="0" x2="6" y2="12" gradientUnits="userSpaceOnUse">
<stop stop-color="#D425FC"/>
<stop offset="1" stop-color="#9733EE"/>
</linearGradient>
</defs>
</svg>
