<svg width="17" height="15" viewBox="0 0 17 15" fill="none" xmlns="http://www.w3.org/2000/svg">
<g opacity="0.5">
<path d="M15.388 7.34729C15.388 8.61092 14.9872 9.84618 14.2362 10.8968C13.4852 11.9475 12.4178 12.7664 11.1689 13.25C9.92003 13.7336 8.54581 13.8601 7.22002 13.6136C5.89423 13.367 4.67641 12.7585 3.72057 11.865C2.76473 10.9715 2.11379 9.83308 1.85008 8.59373C1.58636 7.35438 1.72171 6.06976 2.23901 4.90231C2.7563 3.73487 3.63232 2.73704 4.75627 2.035C5.88022 1.33296 7.20163 0.958252 8.55339 0.958252" stroke="#676767" stroke-width="1.5" stroke-linejoin="round"/>
<path d="M9.51416 9.2886L13.7668 5.31319C14.6439 4.49331 14.6439 3.10234 13.7668 2.28246C12.9695 1.53713 11.731 1.53713 10.9337 2.28246L6.57265 6.35918C5.89836 6.98951 5.51562 7.87121 5.51562 8.79424V10.1869H7.23786C8.08307 10.1869 8.89672 9.86578 9.51416 9.2886Z" stroke="#676767" stroke-width="1.5" stroke-linejoin="round"/>
<path d="M10.9336 5.31319C11.7309 6.05852 12.9694 6.05852 13.7667 5.31319C14.6438 4.49331 14.6438 3.10234 13.7667 2.28246C12.9694 1.53713 11.7309 1.53713 10.9336 2.28246C10.0565 3.10234 10.0565 4.49331 10.9336 5.31319Z" stroke="#676767" stroke-width="1.5" stroke-linejoin="round"/>
</g>
</svg>
