<svg width="13" height="13" viewBox="0 0 13 13" fill="none" xmlns="http://www.w3.org/2000/svg">
<g opacity="0.8">
<path d="M7.4279 8.26516C7.30233 8.39039 7.14947 8.48487 6.9813 8.54118L5.36542 9.07979C5.24894 9.11867 5.12694 9.13848 5.00414 9.13844C4.69892 9.13844 4.41198 9.01959 4.19618 8.80377C3.88817 8.49568 3.78244 8.04769 3.92019 7.6345L4.45882 6.0187C4.51508 5.8505 4.60955 5.69763 4.73482 5.57207L8.22489 2.08203H1.39648C0.626463 2.08203 0 2.70849 0 3.47852V11.6035C0 12.3735 0.626463 13 1.39648 13H9.52148C10.2915 13 10.918 12.3735 10.918 11.6035V4.77511L7.4279 8.26516Z" fill="url(#paint0_linear_713_756)"/>
<path d="M5.27419 6.11072C5.23238 6.15252 5.20088 6.20349 5.1822 6.25958L4.64356 7.87542C4.6212 7.94251 4.61796 8.01451 4.63421 8.08335C4.65047 8.15218 4.68556 8.21513 4.73557 8.26514C4.78559 8.31515 4.84853 8.35025 4.91737 8.3665C4.9862 8.38275 5.0582 8.37951 5.1253 8.35715L6.74116 7.81854C6.79725 7.79986 6.84822 7.76836 6.89002 7.72655L11.6478 2.96878L10.032 1.35295L5.27419 6.11072ZM12.0966 0.185916C11.8488 -0.0619722 11.4469 -0.0619722 11.199 0.185916L10.5706 0.814309L12.1864 2.43017L12.8148 1.80178C13.0627 1.55389 13.0627 1.15198 12.8148 0.90409L12.0966 0.185916Z" fill="url(#paint1_linear_713_756)"/>
</g>
<defs>
<linearGradient id="paint0_linear_713_756" x1="5.45898" y1="2.08203" x2="5.45898" y2="13" gradientUnits="userSpaceOnUse">
<stop stop-color="#D425FC"/>
<stop offset="1" stop-color="#9733EE"/>
</linearGradient>
<linearGradient id="paint1_linear_713_756" x1="8.81238" y1="0" x2="8.81238" y2="8.37669" gradientUnits="userSpaceOnUse">
<stop stop-color="#D425FC"/>
<stop offset="1" stop-color="#9733EE"/>
</linearGradient>
</defs>
</svg>
