<svg width="20" height="20" viewBox="0 0 20 20" fill="none" xmlns="http://www.w3.org/2000/svg">
<path d="M3.85553 0.100168C3.42565 0.28775 3.35531 0.483149 3.35531 1.37416V2.1792H2.35487C1.41696 2.1792 1.32317 2.19484 0.924553 2.39023C0.650996 2.53874 0.424334 2.72632 0.268015 2.94517L0.0335372 3.28907L0.0100894 10.8393C-0.0133584 19.2726 -0.0446221 18.7568 0.533757 19.3977C1.11214 20.0386 0.424334 19.9995 9.52989 19.9995C14.9932 19.9995 17.7132 19.9683 17.9164 19.9135C18.3228 19.8041 18.8152 19.343 19.0341 18.8662L19.2216 18.4754V10.9878C19.2216 3.50791 19.2216 3.50791 19.0575 3.14838C18.9637 2.95298 18.7761 2.71069 18.6433 2.60908C18.1665 2.24955 17.8851 2.1792 16.8378 2.1792H15.8608V1.36635C15.8608 0.670731 15.8373 0.530043 15.6967 0.358093C15.4622 0.0532722 15.087 -0.0248871 13.9615 0.00637627L12.9533 0.0298233L12.7266 0.28775C12.5078 0.530043 12.4999 0.561308 12.4999 1.35853V2.1792H9.60805H6.71616V1.35853C6.71616 0.561308 6.70834 0.530043 6.48949 0.28775L6.26283 0.0298233L5.17642 0.0141926C4.38701 -0.00144005 4.03529 0.0220089 3.85553 0.100168ZM5.76261 2.27299L5.77825 3.58607H5.07481H4.37138V2.25736V0.920839L5.05918 0.944288L5.73917 0.967735L5.76261 2.27299ZM14.9229 2.25736V3.58607H14.1804H13.4379V2.25736V0.928656H14.1804H14.9229V2.25736ZM3.35531 3.53136C3.35531 4.32077 3.793 4.59433 5.05918 4.60214C6.30973 4.60214 6.71616 4.34422 6.71616 3.53918V3.11712H9.60805H12.4999V3.53918C12.4999 4.34422 12.9064 4.60214 14.1569 4.60214C15.4309 4.59433 15.8608 4.32858 15.8608 3.52354V3.10148L16.8456 3.13275L17.8304 3.1562L18.0571 3.41412L18.2837 3.66423V5.18834V6.71244H9.60805H0.932369V5.19615C0.932369 3.77365 0.940185 3.67205 1.0965 3.47665C1.3388 3.16401 1.49512 3.12493 2.47992 3.12493L3.35531 3.11712V3.53136ZM18.2837 12.9808C18.2837 18.8662 18.3072 18.6396 17.7366 18.9209C17.4787 19.0538 16.9316 19.0616 9.60805 19.0616C2.28452 19.0616 1.73741 19.0538 1.47948 18.9209C0.908921 18.6396 0.932369 18.8662 0.932369 12.9808V7.72851H9.60805H18.2837V12.9808Z" fill="black"/>
<path d="M9.04579 9.11194C8.97545 9.19009 8.68626 9.72939 8.39707 10.3078C8.10788 10.8862 7.85777 11.3707 7.84995 11.3864C7.83432 11.402 7.28721 11.4958 6.62285 11.5974C5.21599 11.8162 5.16127 11.8319 5.06748 12.082C4.96588 12.3555 5.03622 12.4493 6.03666 13.4263L6.92767 14.2939L6.74009 15.3334C6.43527 17.0373 6.44309 16.9122 6.63848 17.1076C6.87296 17.3421 7.01365 17.303 8.27983 16.6387L9.33498 16.0837L10.523 16.6778C11.7736 17.3108 11.9221 17.3421 12.1487 16.9982C12.2503 16.8419 12.2425 16.6934 12.0393 15.5757L11.8048 14.333L12.7427 13.3951C13.4618 12.6682 13.6728 12.4103 13.6728 12.2461C13.6728 12.0585 13.5009 11.7928 13.3758 11.7928C13.2195 11.785 10.9216 11.4098 10.8982 11.3864C10.8903 11.3707 10.6402 10.8862 10.3511 10.3078C9.74922 9.0963 9.66325 8.97906 9.37406 8.97906C9.25682 8.97906 9.10832 9.04159 9.04579 9.11194ZM9.80394 11.4098C10.0228 11.8397 10.2494 12.2305 10.312 12.2618C10.3745 12.293 10.7106 12.3634 11.0545 12.4103C12.266 12.59 12.2191 12.4884 11.4531 13.2778C11.0857 13.653 10.7809 13.9734 10.7809 13.9891C10.7809 14.0047 10.8513 14.419 10.9372 14.9114C11.0232 15.4038 11.0779 15.8258 11.0623 15.8415C11.0389 15.8571 10.7028 15.6929 10.312 15.4741C9.91336 15.2553 9.4913 15.0755 9.37406 15.0755C9.25682 15.0755 8.83476 15.2553 8.43615 15.4663C8.03754 15.6851 7.70145 15.8493 7.678 15.8336C7.66237 15.8102 7.70145 15.4819 7.76398 15.1068C7.97501 13.9031 7.99064 13.9344 7.21686 13.2075C6.8417 12.8558 6.56033 12.5744 6.58377 12.5744C6.78699 12.5744 8.34236 12.3087 8.43615 12.2618C8.49868 12.2305 8.72534 11.8397 8.94418 11.4098C9.15521 10.9721 9.35061 10.6204 9.37406 10.6204C9.39751 10.6204 9.59291 10.9721 9.80394 11.4098Z" fill="black"/>
</svg>
