<svg width="19" height="20" viewBox="0 0 19 20" fill="none" xmlns="http://www.w3.org/2000/svg">
<path d="M3.97993 3.33781H5.52047C5.55451 3.33781 5.58716 3.32429 5.61124 3.30022C5.63531 3.27614 5.64884 3.24349 5.64884 3.20945V0.128366C5.64884 0.111507 5.64553 0.0948119 5.63908 0.0792349C5.63263 0.0636579 5.62317 0.0495043 5.61125 0.0375832C5.59933 0.025662 5.58518 0.0162069 5.5696 0.00975814C5.55402 0.00330943 5.53733 -6.44877e-06 5.52047 9.41557e-09H3.97993C3.94588 9.41557e-09 3.91323 0.0135243 3.88916 0.0375976C3.86509 0.0616709 3.85156 0.0943213 3.85156 0.128366V3.20945C3.85156 3.22631 3.85487 3.243 3.86132 3.25858C3.86777 3.27416 3.87722 3.28831 3.88915 3.30023C3.90107 3.31215 3.91522 3.32161 3.9308 3.32806C3.94637 3.3345 3.96307 3.33782 3.97993 3.33781Z" fill="url(#paint0_linear_713_861)"/>
<path d="M17.8189 2.31079H15.9189V3.13239C15.9189 3.62025 15.5595 4.10806 15.0716 4.10806H13.5568C13.034 4.07101 12.6182 3.65515 12.5811 3.13239V2.31079H6.41894V3.13239C6.38189 3.65515 5.96603 4.07101 5.44327 4.10806H3.92839C3.44053 4.10806 3.08108 3.6202 3.08108 3.13239V2.31079H1.1811C0.524669 2.3248 -0.000147403 2.86102 3.10559e-08 3.51759V6.67568H19V3.51759C19.0001 2.86102 18.4753 2.3248 17.8189 2.31079Z" fill="url(#paint1_linear_713_861)"/>
<path d="M13.4799 3.33781H15.0205C15.0545 3.33781 15.0871 3.32429 15.1112 3.30022C15.1353 3.27614 15.1488 3.24349 15.1488 3.20945V0.128366C15.1488 0.0943213 15.1353 0.0616709 15.1112 0.0375976C15.0871 0.0135242 15.0545 0 15.0205 0L13.4799 0C13.4631 0 13.4464 0.00332029 13.4308 0.00977129C13.4152 0.0162223 13.4011 0.0256777 13.3891 0.0375976C13.3772 0.0495175 13.3678 0.0636684 13.3613 0.0792425C13.3549 0.0948166 13.3515 0.111509 13.3515 0.128366V3.20945C13.3515 3.22631 13.3549 3.243 13.3613 3.25858C13.3678 3.27416 13.3772 3.28831 13.3891 3.30023C13.4011 3.31215 13.4152 3.32161 13.4308 3.32806C13.4464 3.3345 13.4631 3.33782 13.4799 3.33781ZM7.57453 14.327L7.21509 16.4067L9.06372 15.4311L9.24344 15.3797L9.42316 15.4311L11.2718 16.4067L10.9123 14.327C10.9056 14.2673 10.9112 14.2068 10.9289 14.1494C10.9465 14.092 10.9759 14.0388 11.0151 13.9932L12.5299 12.5554L10.4502 12.2473C10.3903 12.2377 10.3335 12.2142 10.2844 12.1785C10.2353 12.1428 10.1954 12.096 10.1678 12.0419L9.24349 10.1676L8.31917 12.0419C8.29161 12.096 8.25166 12.1428 8.20258 12.1785C8.1535 12.2142 8.09667 12.2377 8.03674 12.2473L5.95703 12.5554L7.47192 13.9932C7.51107 14.0388 7.54039 14.092 7.55805 14.1494C7.57571 14.2069 7.58132 14.2673 7.57453 14.327Z" fill="url(#paint2_linear_713_861)"/>
<path d="M0 18.3582C0.0139571 19.0004 0.538676 19.5137 1.1811 19.5136H17.8189C18.4613 19.5137 18.986 19.0004 19 18.3582V7.44604H0V18.3582ZM4.77569 12.1704C4.79572 12.1018 4.83572 12.0408 4.8906 11.995C4.94547 11.9493 5.01273 11.921 5.08378 11.9136L7.72836 11.5028L8.90945 9.115C8.94322 9.05634 8.99186 9.00761 9.05046 8.97373C9.10906 8.93984 9.17555 8.922 9.24324 8.922C9.31093 8.922 9.37743 8.93984 9.43603 8.97373C9.49463 9.00761 9.54326 9.05634 9.57703 9.115L10.7581 11.5028L13.4027 11.9136C13.4738 11.921 13.541 11.9493 13.5959 11.995C13.6508 12.0408 13.6908 12.1018 13.7108 12.1704C13.7336 12.2375 13.736 12.31 13.7177 12.3785C13.6994 12.447 13.6613 12.5086 13.6081 12.5555L11.7081 14.4042L12.1703 17.0487C12.179 17.1169 12.1693 17.1863 12.1423 17.2495C12.1152 17.3127 12.0716 17.3675 12.0162 17.4082C11.9487 17.4566 11.8681 17.4835 11.7851 17.4852C11.7209 17.4913 11.6567 17.4729 11.6054 17.4338L9.24324 16.2014L6.8811 17.4338C6.81824 17.4721 6.74513 17.4902 6.67167 17.4856C6.5982 17.481 6.52791 17.454 6.4703 17.4082C6.41488 17.3675 6.37136 17.3127 6.34427 17.2495C6.31718 17.1862 6.3075 17.1169 6.31623 17.0487L6.77839 14.4042L4.8784 12.5555C4.8252 12.5086 4.78705 12.447 4.76878 12.3785C4.7505 12.31 4.75291 12.2375 4.77569 12.1704Z" fill="url(#paint3_linear_713_861)"/>
<defs>
<linearGradient id="paint0_linear_713_861" x1="4.7502" y1="0" x2="4.7502" y2="3.33781" gradientUnits="userSpaceOnUse">
<stop stop-color="#D425FC"/>
<stop offset="1" stop-color="#9733EE"/>
</linearGradient>
<linearGradient id="paint1_linear_713_861" x1="9.49998" y1="2.31079" x2="9.49998" y2="6.67568" gradientUnits="userSpaceOnUse">
<stop stop-color="#D425FC"/>
<stop offset="1" stop-color="#9733EE"/>
</linearGradient>
<linearGradient id="paint2_linear_713_861" x1="10.5529" y1="0" x2="10.5529" y2="16.4067" gradientUnits="userSpaceOnUse">
<stop stop-color="#D425FC"/>
<stop offset="1" stop-color="#9733EE"/>
</linearGradient>
<linearGradient id="paint3_linear_713_861" x1="9.5" y1="7.44604" x2="9.5" y2="19.5136" gradientUnits="userSpaceOnUse">
<stop stop-color="#D425FC"/>
<stop offset="1" stop-color="#9733EE"/>
</linearGradient>
</defs>
</svg>
