<svg width="20" height="21" viewBox="0 0 20 21" fill="none" xmlns="http://www.w3.org/2000/svg">
<g opacity="0.5">
<path fill-rule="evenodd" clip-rule="evenodd" d="M2.5 6.3481C2.5 6.12709 2.5878 5.91513 2.74408 5.75885C2.90036 5.60257 3.11232 5.51477 3.33333 5.51477H16.6667C16.8877 5.51477 17.0996 5.60257 17.2559 5.75885C17.4122 5.91513 17.5 6.12709 17.5 6.3481C17.5 6.56912 17.4122 6.78108 17.2559 6.93736C17.0996 7.09364 16.8877 7.18144 16.6667 7.18144H3.33333C3.11232 7.18144 2.90036 7.09364 2.74408 6.93736C2.5878 6.78108 2.5 6.56912 2.5 6.3481ZM4.16667 10.0981C4.16667 9.87709 4.25446 9.66513 4.41074 9.50885C4.56702 9.35257 4.77899 9.26477 5 9.26477H15C15.221 9.26477 15.433 9.35257 15.5893 9.50885C15.7455 9.66513 15.8333 9.87709 15.8333 10.0981C15.8333 10.3191 15.7455 10.5311 15.5893 10.6874C15.433 10.8436 15.221 10.9314 15 10.9314H5C4.77899 10.9314 4.56702 10.8436 4.41074 10.6874C4.25446 10.5311 4.16667 10.3191 4.16667 10.0981ZM6.66667 13.8481C6.66667 13.6271 6.75446 13.4151 6.91074 13.2588C7.06702 13.1026 7.27899 13.0148 7.5 13.0148H12.5C12.721 13.0148 12.933 13.1026 13.0893 13.2588C13.2455 13.4151 13.3333 13.6271 13.3333 13.8481C13.3333 14.0691 13.2455 14.2811 13.0893 14.4374C12.933 14.5936 12.721 14.6814 12.5 14.6814H7.5C7.27899 14.6814 7.06702 14.5936 6.91074 14.4374C6.75446 14.2811 6.66667 14.0691 6.66667 13.8481Z" fill="#272727"/>
</g>
</svg>
