<svg width="24" height="24" viewBox="0 0 24 24" fill="none" xmlns="http://www.w3.org/2000/svg">
<path d="M10.2658 2.13658C8.2365 2.49756 6.53894 3.38536 5.01698 4.86829C3.27064 6.56585 2.33405 8.50731 2.05113 10.9951C1.9243 12.1268 2.04137 13.6195 2.31454 14.5658C2.45113 15.0049 2.44137 15.0829 2.29503 15.4244C2.15844 15.7268 2.11942 16.078 2.11942 17.0829V18.361L2.52918 19.1902C3.65113 21.4537 6.2365 22.5366 8.55845 21.7171C9.02674 21.5512 9.1243 21.5512 9.5926 21.6683C10.3926 21.8829 11.9341 21.9805 12.9194 21.8927C16.0511 21.6 18.9097 19.7951 20.5097 17.1122C23.5536 11.9902 21.5438 5.48292 16.1292 2.90731C14.5292 2.14634 12.0316 1.82439 10.2658 2.13658ZM13.3877 3.30731C18.7048 4.18536 21.9926 9.61951 20.3048 14.7317C19.3877 17.4732 17.2511 19.5512 14.4121 20.439C13.6804 20.6634 11.417 20.8195 10.7146 20.6927L10.3633 20.6244L10.7438 20.1658C10.9487 19.9122 11.1633 19.6195 11.2219 19.5024C11.3194 19.3171 11.4463 19.2878 12.3341 19.239C16.2365 19.0341 19.2414 15.8537 19.2414 11.961C19.2414 9.91219 18.4414 8.09756 16.8902 6.6439C15.5048 5.33658 13.8658 4.70244 11.9243 4.71219C10.6755 4.71219 9.69016 4.95609 8.62674 5.51219C7.17308 6.26341 6.14869 7.30731 5.4365 8.78048C4.90967 9.85365 4.70479 10.7219 4.70479 11.8341V12.6927L4.39259 12.8683C4.22674 12.9756 3.9243 13.2 3.71942 13.3854L3.34869 13.7171L3.27064 13.3463C3.14381 12.7317 3.20235 10.7902 3.3682 10.078C3.62186 9.05365 4.0804 7.95122 4.5682 7.20975C6.53894 4.2439 9.93406 2.74146 13.3877 3.30731ZM13.5341 6.06829C15.0755 6.44878 16.7341 7.80487 17.417 9.21951C19.1438 12.8195 17.2511 16.9268 13.4267 17.9024C13.0072 18.0098 12.4706 18.0976 12.2267 18.0976H11.778L11.8072 17.2195C11.856 15.8341 11.4755 14.7805 10.5585 13.7756C9.54382 12.6634 8.50967 12.2146 6.92918 12.2049L5.87552 12.1951V11.6585C5.88528 9.6878 7.22186 7.56097 9.05601 6.61463C10.5682 5.82439 11.9146 5.66829 13.5341 6.06829ZM7.86577 13.4634C8.96821 13.7561 9.85601 14.4976 10.3438 15.5415C10.578 16.0293 10.6072 16.2244 10.6072 17.0732C10.6072 17.9805 10.5877 18.0976 10.2853 18.7024C9.63162 20.039 8.46089 20.7707 6.94869 20.7707C5.47552 20.7707 4.33406 20.078 3.62186 18.761C3.29991 18.1658 3.29015 18.1073 3.29015 17.0732C3.29015 16.0878 3.30966 15.961 3.56332 15.4829C4.44137 13.8049 6.13894 13.0146 7.86577 13.4634Z" fill="#272727"/>
<path d="M11.3389 9.8049V12.5366H13.2413H15.1437V11.9512V11.3659H13.8267H12.5096V9.21954V7.0732H11.9242H11.3389V9.8049Z" fill="#272727"/>
<path d="M5.09473 15.6585V16.2439H5.68009H6.26546V15.6585V15.0731H5.68009H5.09473V15.6585Z" fill="#272727"/>
<path d="M7.63184 15.6585V16.2439H8.2172H8.80257V15.6585V15.0732H8.2172H7.63184V15.6585Z" fill="#272727"/>
<path d="M5.09473 17.9707C5.10448 18.2926 5.4557 18.9365 5.7679 19.2C6.06058 19.4439 6.61668 19.6585 6.94839 19.6585C7.60205 19.6585 8.33375 19.1707 8.61668 18.5365C8.91912 17.8731 8.88985 17.8048 8.23619 17.8048C7.71912 17.8048 7.65083 17.8243 7.55327 18.0487C7.39717 18.3902 7.01668 18.5561 6.70448 18.4097C6.5679 18.3414 6.4118 18.1853 6.34351 18.0487C6.24595 17.8243 6.17765 17.8048 5.66058 17.8048C5.18253 17.8048 5.09473 17.8341 5.09473 17.9707Z" fill="#272727"/>
<path d="M20.3635 2.78049L19.583 3.56098L20.0025 3.97074L20.4123 4.39025L21.1928 3.60976L21.9733 2.82927L21.5537 2.40976L21.1342 2.00001L20.3635 2.78049Z" fill="#272727"/>
<path d="M2.38251 2.41957C2.2069 2.59518 2.07031 2.78054 2.07031 2.82933C2.07031 2.95615 3.45568 4.34152 3.58251 4.34152C3.64105 4.34152 3.85568 4.17567 4.0508 3.97079L4.41178 3.60006L3.6508 2.84884C3.23129 2.43908 2.8508 2.09762 2.79226 2.09762C2.74348 2.09762 2.55812 2.24396 2.38251 2.41957Z" fill="#272727"/>
<path d="M19.9733 20.0488L19.5928 20.439L20.3635 21.2195L21.1342 22L21.5538 21.5902L21.9733 21.1805L21.222 20.4195C20.8025 20 20.4416 19.6585 20.4123 19.6585C20.383 19.6585 20.1781 19.8342 19.9733 20.0488Z" fill="#272727"/>
</svg>
