<svg width="24" height="24" viewBox="0 0 24 24" fill="none" xmlns="http://www.w3.org/2000/svg">
<path d="M10.2658 2.13631C8.2365 2.49729 6.53894 3.38509 5.01698 4.86802C3.27064 6.56558 2.33405 8.50704 2.05113 10.9948C1.9243 12.1266 2.04137 13.6192 2.31454 14.5656C2.45113 15.0046 2.44137 15.0827 2.29503 15.4241C2.15844 15.7266 2.11942 16.0778 2.11942 17.0827V18.3607L2.52918 19.19C3.65113 21.4534 6.2365 22.5363 8.55845 21.7168C9.02674 21.5509 9.1243 21.5509 9.5926 21.668C10.3926 21.8827 11.9341 21.9802 12.9194 21.8924C16.0511 21.5997 18.9097 19.7948 20.5097 17.1119C23.5536 11.99 21.5438 5.48265 16.1292 2.90704C14.5292 2.14607 12.0316 1.82412 10.2658 2.13631ZM13.3877 3.30704C18.7048 4.18509 21.9926 9.61924 20.3048 14.7314C19.3877 17.4729 17.2511 19.5509 14.4121 20.4387C13.6804 20.6631 11.417 20.8192 10.7146 20.6924L10.3633 20.6241L10.7438 20.1656C10.9487 19.9119 11.1633 19.6192 11.2219 19.5022C11.3194 19.3168 11.4463 19.2875 12.3341 19.2387C16.2365 19.0339 19.2414 15.8534 19.2414 11.9607C19.2414 9.91192 18.4414 8.09729 16.8902 6.64363C15.5048 5.33631 13.8658 4.70217 11.9243 4.71192C10.6755 4.71192 9.69016 4.95582 8.62674 5.51192C7.17308 6.26314 6.14869 7.30704 5.4365 8.78021C4.90967 9.85338 4.70479 10.7217 4.70479 11.8339V12.6924L4.39259 12.868C4.22674 12.9753 3.9243 13.1997 3.71942 13.3851L3.34869 13.7168L3.27064 13.3461C3.14381 12.7314 3.20235 10.79 3.3682 10.0778C3.62186 9.05338 4.0804 7.95095 4.5682 7.20948C6.53894 4.24363 9.93406 2.74119 13.3877 3.30704ZM13.5341 6.06802C15.0755 6.44851 16.7341 7.8046 17.417 9.21924C19.1438 12.8192 17.2511 16.9266 13.4267 17.9022C13.0072 18.0095 12.4706 18.0973 12.2267 18.0973H11.778L11.8072 17.2192C11.856 15.8339 11.4755 14.7802 10.5585 13.7753C9.54382 12.6631 8.50967 12.2144 6.92918 12.2046L5.87552 12.1948V11.6583C5.88528 9.68753 7.22186 7.5607 9.05601 6.61436C10.5682 5.82412 11.9146 5.66802 13.5341 6.06802ZM7.86577 13.4631C8.96821 13.7558 9.85601 14.4973 10.3438 15.5412C10.578 16.029 10.6072 16.2241 10.6072 17.0729C10.6072 17.9802 10.5877 18.0973 10.2853 18.7022C9.63162 20.0387 8.46089 20.7705 6.94869 20.7705C5.47552 20.7705 4.33406 20.0778 3.62186 18.7607C3.29991 18.1656 3.29015 18.107 3.29015 17.0729C3.29015 16.0875 3.30966 15.9607 3.56332 15.4827C4.44137 13.8046 6.13894 13.0144 7.86577 13.4631Z" fill="url(#paint0_linear_808_1422)"/>
<path d="M11.3389 9.80443V12.5361H13.2413H15.1437V11.9508V11.3654H13.8267H12.5096V9.21906V7.07272H11.9242H11.3389V9.80443Z" fill="url(#paint1_linear_808_1422)"/>
<path d="M5.09473 15.6588V16.2441H5.68009H6.26546V15.6588V15.0734H5.68009H5.09473V15.6588Z" fill="url(#paint2_linear_808_1422)"/>
<path d="M7.63184 15.6588V16.2441H8.2172H8.80257V15.6588V15.0734H8.2172H7.63184V15.6588Z" fill="url(#paint3_linear_808_1422)"/>
<path d="M5.09473 17.9704C5.10448 18.2923 5.4557 18.9363 5.7679 19.1997C6.06058 19.4436 6.61668 19.6582 6.94839 19.6582C7.60205 19.6582 8.33375 19.1704 8.61668 18.5363C8.91912 17.8728 8.88985 17.8045 8.23619 17.8045C7.71912 17.8045 7.65083 17.8241 7.55327 18.0484C7.39717 18.3899 7.01668 18.5558 6.70448 18.4094C6.5679 18.3411 6.4118 18.185 6.34351 18.0484C6.24595 17.8241 6.17765 17.8045 5.66058 17.8045C5.18253 17.8045 5.09473 17.8338 5.09473 17.9704Z" fill="url(#paint4_linear_808_1422)"/>
<path d="M20.3635 2.78087L19.583 3.56136L20.0025 3.97111L20.4123 4.39062L21.1928 3.61014L21.9733 2.82965L21.5537 2.41014L21.1342 2.00038L20.3635 2.78087Z" fill="url(#paint5_linear_808_1422)"/>
<path d="M2.38251 2.41985C2.2069 2.59546 2.07031 2.78082 2.07031 2.8296C2.07031 2.95643 3.45568 4.3418 3.58251 4.3418C3.64105 4.3418 3.85568 4.17594 4.0508 3.97107L4.41178 3.60033L3.6508 2.84911C3.23129 2.43936 2.8508 2.09789 2.79226 2.09789C2.74348 2.09789 2.55812 2.24424 2.38251 2.41985Z" fill="url(#paint6_linear_808_1422)"/>
<path d="M19.9733 20.0488L19.5928 20.439L20.3635 21.2195L21.1342 22L21.5538 21.5902L21.9733 21.1805L21.222 20.4195C20.8025 20 20.4416 19.6585 20.4123 19.6585C20.383 19.6585 20.1781 19.8341 19.9733 20.0488Z" fill="url(#paint7_linear_808_1422)"/>
<defs>
<linearGradient id="paint0_linear_808_1422" x1="11.9667" y1="21.9893" x2="11.9667" y2="2.01795" gradientUnits="userSpaceOnUse">
<stop stop-color="#D425FC"/>
<stop offset="1" stop-color="#9733EE"/>
</linearGradient>
<linearGradient id="paint1_linear_808_1422" x1="13.2413" y1="12.5361" x2="13.2413" y2="7.07272" gradientUnits="userSpaceOnUse">
<stop stop-color="#D425FC"/>
<stop offset="1" stop-color="#9733EE"/>
</linearGradient>
<linearGradient id="paint2_linear_808_1422" x1="5.68009" y1="16.2441" x2="5.68009" y2="15.0734" gradientUnits="userSpaceOnUse">
<stop stop-color="#D425FC"/>
<stop offset="1" stop-color="#9733EE"/>
</linearGradient>
<linearGradient id="paint3_linear_808_1422" x1="8.2172" y1="16.2441" x2="8.2172" y2="15.0734" gradientUnits="userSpaceOnUse">
<stop stop-color="#D425FC"/>
<stop offset="1" stop-color="#9733EE"/>
</linearGradient>
<linearGradient id="paint4_linear_808_1422" x1="6.94827" y1="19.6582" x2="6.94827" y2="17.8045" gradientUnits="userSpaceOnUse">
<stop stop-color="#D425FC"/>
<stop offset="1" stop-color="#9733EE"/>
</linearGradient>
<linearGradient id="paint5_linear_808_1422" x1="20.7781" y1="4.39062" x2="20.7781" y2="2.00038" gradientUnits="userSpaceOnUse">
<stop stop-color="#D425FC"/>
<stop offset="1" stop-color="#9733EE"/>
</linearGradient>
<linearGradient id="paint6_linear_808_1422" x1="3.24105" y1="4.3418" x2="3.24105" y2="2.09789" gradientUnits="userSpaceOnUse">
<stop stop-color="#D425FC"/>
<stop offset="1" stop-color="#9733EE"/>
</linearGradient>
<linearGradient id="paint7_linear_808_1422" x1="20.783" y1="22" x2="20.783" y2="19.6585" gradientUnits="userSpaceOnUse">
<stop stop-color="#D425FC"/>
<stop offset="1" stop-color="#9733EE"/>
</linearGradient>
</defs>
</svg>
