<svg width="12" height="20" viewBox="0 0 12 20" fill="none" xmlns="http://www.w3.org/2000/svg">
<path d="M11.1218 10.8768V10.8719V5.98945C11.1218 5.97968 11.1188 5.96698 11.1188 5.95721C11.1188 5.94939 11.1188 5.93963 11.1159 5.93181C11.111 5.90153 11.1032 5.87222 11.0905 5.84389C11.0905 5.84096 11.0876 5.83901 11.0856 5.83607C11.0729 5.80872 11.0583 5.78625 11.0407 5.76378C11.0378 5.76085 11.0358 5.75597 11.0329 5.75402L9.97977 4.50357C10.1419 4.34629 10.2445 4.12356 10.2445 3.88128C10.2445 3.40063 9.85473 3.00889 9.37214 3.00889H7.4486L7.75341 1.02284C7.79346 0.764946 7.71824 0.505079 7.54826 0.309685C7.37828 0.11235 7.13306 0 6.87322 0H5.11282C4.85295 0 4.60777 0.112345 4.43973 0.309685C4.26975 0.50702 4.19746 0.766872 4.23458 1.02284L4.53939 3.00889H2.62366C2.14302 3.00889 1.75128 3.39868 1.75128 3.88128C1.75128 4.12648 1.85385 4.34629 2.01602 4.50357L0.962922 5.75402C0.959991 5.75695 0.958038 5.76183 0.955107 5.76378C0.937522 5.78625 0.922868 5.81165 0.910169 5.83607C0.910169 5.83901 0.907238 5.84096 0.905284 5.84389C0.892584 5.87124 0.885746 5.90153 0.879885 5.93181C0.876954 5.93963 0.876954 5.9494 0.876954 5.95721C0.876954 5.96698 0.874023 5.97968 0.874023 5.98945V10.8739V10.8788V10.8837V13.7342V13.7391V13.744V17.9602C0.874023 18.395 1.14364 18.7681 1.5266 18.9205L1.75716 19.7304C1.80209 19.8906 1.94765 20 2.11471 20H9.88221C10.0473 20 10.1919 19.8896 10.2398 19.7304L10.4703 18.9205C10.8533 18.7681 11.1229 18.3949 11.1229 17.9602L11.1239 13.742V13.7371V13.7322V10.8817C11.1219 10.8817 11.1218 10.8788 11.1218 10.8768ZM5.00735 0.788238C5.02494 0.7687 5.06011 0.735484 5.1197 0.735484H6.8801C6.93969 0.735484 6.97486 0.767723 6.99244 0.788238C7.01003 0.807776 7.03543 0.847829 7.02761 0.905467L6.70522 3.00386H5.29945L4.97706 0.905467C4.96436 0.847829 4.99172 0.807777 5.00735 0.788238ZM2.62371 3.74629H9.3771C9.44939 3.74629 9.50703 3.80588 9.50703 3.87622C9.50703 3.94851 9.44744 4.00614 9.3771 4.00614H2.62371C2.55142 4.00614 2.49378 3.94655 2.49378 3.87622C2.49378 3.80392 2.55337 3.74629 2.62371 3.74629ZM2.77611 4.74957H9.22364L9.95633 5.62L2.04327 5.61902L2.77611 4.74957ZM9.60378 19.2615H2.39622L2.321 18.9967H9.67911L9.60378 19.2615ZM10.3814 17.9612C10.3814 18.1234 10.2485 18.2562 10.0864 18.2562H1.91348C1.75131 18.2562 1.61845 18.1234 1.61845 17.9612V14.1103H3.18638C3.7989 15.0658 4.85689 15.648 5.99687 15.648C7.13693 15.648 8.19786 15.0628 8.80737 14.1103H10.3753L10.3763 17.9612H10.3814ZM10.3814 13.3668H8.6005C8.59561 13.3668 8.59073 13.3698 8.58291 13.3698C8.57021 13.3698 8.56044 13.3727 8.54775 13.3727C8.53505 13.3756 8.52039 13.3776 8.50769 13.3805C8.49792 13.3834 8.48815 13.3854 8.48034 13.3903C8.46764 13.3952 8.45298 13.4 8.44028 13.4049C8.43051 13.4098 8.4227 13.4147 8.41488 13.4196C8.40218 13.4274 8.39242 13.4323 8.37972 13.442C8.36995 13.4499 8.36213 13.4547 8.35432 13.4616C8.34455 13.4694 8.33478 13.4792 8.32697 13.4889C8.31915 13.4968 8.31231 13.5065 8.3045 13.5143C8.29668 13.5241 8.28984 13.5339 8.28203 13.5466C8.2791 13.5515 8.27421 13.5544 8.27226 13.5593C7.81507 14.3896 6.94171 14.9074 5.9941 14.9074C5.04649 14.9074 4.17608 14.3926 3.71594 13.5593C3.71301 13.5544 3.71106 13.5515 3.70617 13.5466C3.69836 13.5368 3.69152 13.5241 3.6837 13.5143C3.67589 13.5046 3.66905 13.4968 3.66124 13.487C3.65342 13.4772 3.64365 13.4694 3.63584 13.4616C3.62607 13.4538 3.61825 13.4469 3.60848 13.4391C3.59871 13.4313 3.58894 13.4264 3.5782 13.4196C3.56843 13.4147 3.55866 13.4069 3.54792 13.402C3.53815 13.3971 3.52545 13.3922 3.51275 13.3893C3.50298 13.3844 3.49028 13.3815 3.48051 13.3795C3.46781 13.3766 3.45804 13.3746 3.44534 13.3717C3.43264 13.3688 3.41994 13.3688 3.40529 13.3668C3.4004 13.3668 3.39552 13.3639 3.39063 13.3639H1.60973L1.6107 11.2489H3.39161C3.3965 11.2489 3.39943 11.2489 3.40431 11.246C3.41896 11.246 3.43459 11.243 3.44925 11.2411C3.45902 11.2381 3.46879 11.2381 3.47953 11.2362C3.49223 11.2333 3.50493 11.2284 3.51959 11.2235C3.52936 11.2206 3.53912 11.2157 3.54987 11.2108C3.56257 11.2059 3.57234 11.1981 3.58504 11.1913C3.59481 11.1864 3.60262 11.1815 3.61239 11.1737C3.62216 11.1659 3.63193 11.159 3.64268 11.1483C3.65049 11.1405 3.66026 11.1336 3.66807 11.1258C3.67589 11.116 3.68273 11.1082 3.69054 11.0985C3.69836 11.0887 3.7052 11.0789 3.71301 11.0662C3.71594 11.0613 3.72083 11.0584 3.72278 11.0535C4.17997 10.2231 5.05333 9.70538 6.00094 9.70538C6.94855 9.70538 7.81896 10.2202 8.2791 11.0535C8.28203 11.0564 8.28398 11.0584 8.28691 11.0633C8.30157 11.0887 8.3172 11.1111 8.33674 11.1307C8.33967 11.1336 8.33967 11.1356 8.34162 11.1356C8.36116 11.1551 8.38656 11.1727 8.41196 11.1883C8.41977 11.1932 8.42661 11.1961 8.43443 11.201C8.45396 11.2108 8.47448 11.2206 8.49695 11.2264C8.50476 11.2294 8.5116 11.2313 8.51942 11.2342C8.54384 11.244 8.57119 11.2489 8.6005 11.2489H10.3814L10.3814 13.3668ZM10.3814 10.5063H8.81347C8.20096 9.55089 7.14296 8.96866 6.00298 8.96866C4.86292 8.96866 3.802 9.55382 3.19248 10.5063H1.62455L1.62357 6.35934H10.3864V10.5063H10.3814Z" fill="#676767"/>
<path d="M5.99966 2.27118C6.2224 2.27118 6.40021 2.09143 6.40021 1.87063C6.40021 1.6479 6.22045 1.47009 5.99966 1.47009C5.77693 1.47009 5.59912 1.64984 5.59912 1.87063C5.59912 2.09044 5.77692 2.27118 5.99966 2.27118Z" fill="#676767"/>
</svg>
