<svg width="18" height="22" viewBox="0 0 18 22" fill="none" xmlns="http://www.w3.org/2000/svg">
<path d="M4.02876 17.3267C3.18895 17.3267 2.50457 16.6376 2.50457 15.7919C2.50457 14.9463 3.18895 14.2572 4.02876 14.2572C4.86857 14.2572 5.55295 14.9463 5.55295 15.7919C5.55295 16.6376 4.86857 17.3267 4.02876 17.3267ZM4.02876 14.9034C3.54243 14.9034 3.14634 15.3022 3.14634 15.7919C3.14634 16.2816 3.54243 16.6805 4.02876 16.6805C4.51509 16.6805 4.91119 16.2816 4.91119 15.7919C4.91119 15.3022 4.51509 14.9034 4.02876 14.9034ZM5.72469 8.83873C5.6194 8.78067 5.55422 8.67213 5.55422 8.55601V3.34466C5.78861 3.24873 5.95532 3.01651 5.95532 2.7464V2.58485C5.95532 2.26553 5.72218 2.00048 5.41884 1.94872L5.52287 0.699207C5.53792 0.519985 5.4765 0.340756 5.35617 0.208251C5.23458 0.0757261 5.06286 0 4.8836 0H3.17516C2.99592 0 2.82418 0.0757293 2.7026 0.208251C2.58102 0.340775 2.52085 0.519994 2.53589 0.700468L2.63993 1.94872C2.3366 1.9992 2.10345 2.26425 2.10345 2.58485V2.7464C2.10345 3.01649 2.27016 3.24873 2.50455 3.34466V8.55601C2.50455 8.67213 2.43937 8.78067 2.33408 8.83873C1.20224 9.46474 0.499023 10.6587 0.499023 11.9549V21.0296C0.499023 21.5635 0.931476 21.9989 1.46167 21.9989H6.59578C7.12597 21.9989 7.55842 21.5635 7.55842 21.0296V11.9549C7.55842 10.6574 6.85524 9.46348 5.72336 8.83873H5.72469ZM2.74523 2.74659V2.58504H5.31229V2.74659H2.74523ZM4.88362 0.646413L4.77583 1.93883H3.28299L3.17519 0.646413H4.88362ZM2.64246 9.40545C2.95331 9.2338 3.14634 8.90816 3.14634 8.55604V3.39283H4.91119V8.55604C4.91119 8.90945 5.10422 9.23508 5.41507 9.40545C6.34136 9.9166 6.9167 10.8935 6.9167 11.9549V13.4493H1.14083V11.9549C1.14083 10.8948 1.71617 9.9166 2.64246 9.40545ZM6.9166 17.4882H1.14073V14.0956H6.9166V17.4882ZM6.59572 21.3529H1.46161C1.28488 21.3529 1.14073 21.2077 1.14073 21.0298V18.1345H6.9166V21.0298C6.9166 21.2077 6.77246 21.3529 6.59572 21.3529ZM13.5685 16.5567C12.7224 16.5567 11.9428 16.2096 11.3737 15.5786C10.8059 14.9475 10.5364 14.1347 10.6154 13.2891L10.7921 11.406C10.8009 11.3151 10.8473 11.2331 10.9187 11.1776C10.9914 11.1233 11.0842 11.1006 11.1719 11.1195C11.4314 11.17 11.6658 11.2268 11.9014 11.2836C12.6046 11.454 13.2702 11.6143 14.6377 11.6143C15.1566 11.6143 15.6116 11.5903 16.029 11.5423C16.1155 11.5322 16.2007 11.5575 16.2671 11.6117C16.3348 11.666 16.3762 11.7455 16.3849 11.8326L16.5228 13.2903C16.6018 14.1372 16.3323 14.95 15.7645 15.5798C15.1954 16.2109 14.4158 16.558 13.5697 16.558L13.5685 16.5567ZM11.3963 11.8261L11.2534 13.3495C11.192 14.0121 11.4025 14.6495 11.8488 15.1443C12.295 15.6377 12.9054 15.9104 13.5685 15.9104C14.2316 15.9104 14.842 15.6378 15.2882 15.1443C15.7345 14.6508 15.9451 14.0121 15.8836 13.3495L15.7758 12.2149C15.4249 12.2439 15.0501 12.2591 14.6365 12.2591C13.1925 12.2591 12.4592 12.0811 11.7498 11.9107C11.6332 11.8817 11.5154 11.8539 11.395 11.8261H11.3963ZM16.4752 16.2321C17.2185 15.4104 17.5857 14.3036 17.4817 13.1967L17.0969 9.09488C17.0818 8.92828 16.9427 8.80207 16.7772 8.80207H10.3596C10.1941 8.80207 10.0563 8.92954 10.04 9.09488L9.65518 13.1967C9.55114 14.3036 9.9184 15.4092 10.6617 16.2321C11.3323 16.9742 12.2611 17.4273 13.2475 17.5094V20.546H12.7662C12.147 20.546 11.6431 21.0534 11.6431 21.6769C11.6431 21.8561 11.786 22 11.964 22H15.1728C15.3508 22 15.4937 21.8561 15.4937 21.6769C15.4937 21.0534 14.9898 20.546 14.3706 20.546H13.8893V17.5094C14.8758 17.4273 15.8046 16.9742 16.4752 16.2321ZM14.7279 21.3527H12.4065C12.4942 21.253 12.6221 21.1911 12.765 21.1911H14.3694C14.511 21.1911 14.6401 21.253 14.7279 21.3527ZM10.2933 13.2573L10.6505 9.4482H16.4841L16.8414 13.2573C16.9279 14.1837 16.6208 15.1088 15.9991 15.7967C15.3774 16.4845 14.4912 16.8796 13.5674 16.8796C12.6436 16.8796 11.7574 16.4845 11.1357 15.7967C10.514 15.1088 10.2068 14.1837 10.2933 13.2573Z" fill="#676767"/>
</svg>
