<svg width="17" height="22" viewBox="0 0 17 22" fill="none" xmlns="http://www.w3.org/2000/svg">
<path d="M12.9883 0.900391C13.9265 0.900391 14.6894 1.66219 14.6895 2.59961V3.50879H15.1895C15.8495 3.50879 16.3875 4.04535 16.3877 4.70703V6.00391C16.3877 6.63799 15.8925 7.15593 15.2695 7.19727L13.6182 19.3818C13.4848 20.3612 12.6379 21.0996 11.6494 21.0996H5.34961C4.36028 21.0996 3.51424 20.3621 3.38086 19.3818L1.72754 7.19727C1.10449 7.15527 0.611328 6.63751 0.611328 6.00391V4.70703C0.611328 4.04617 1.14775 3.50898 1.80859 3.50879L2.30957 3.50781V2.59961C2.30966 1.66225 3.07236 0.900391 4.00977 0.900391H12.9883ZM4.16309 19.2773L4.18359 19.3857C4.30821 19.9212 4.79116 20.3135 5.34961 20.3135H11.6494C12.2449 20.3135 12.7552 19.8666 12.8359 19.2764L14.4756 7.20215H2.52539L4.16309 19.2773ZM1.80957 4.29785C1.58407 4.29785 1.39953 4.48157 1.39941 4.70703V6.00391C1.39951 6.2294 1.58407 6.41309 1.80957 6.41309H15.1904C15.4128 6.41309 15.5938 6.23435 15.5986 6.0127V4.70703C15.5985 4.48133 15.4147 4.29785 15.1895 4.29785H1.80957ZM4.00879 1.68945C3.50684 1.68945 3.09775 2.09768 3.09766 2.59961V3.50781H13.9004V2.59961C13.9003 2.09774 13.4912 1.68945 12.9883 1.68945H4.00879Z" fill="#676767" stroke="#676767" stroke-width="0.2"/>
<path d="M6.51416 12.3278C7.47871 10.9898 9.07584 10.4403 10.188 11.0758C10.2402 11.0918 10.2871 11.118 10.3276 11.153H10.3286C10.3241 11.1496 10.3208 11.1478 10.3276 11.151C10.3323 11.1531 10.3471 11.1605 10.3618 11.1715H10.3608C10.9157 11.5717 11.1989 12.2268 11.2173 12.9518C11.2356 13.6772 10.9904 14.4784 10.481 15.1852C9.78321 16.1539 8.75863 16.7124 7.82275 16.7125C7.39525 16.7125 6.98355 16.5955 6.63525 16.3444V16.3434C6.61989 16.3322 6.60782 16.3202 6.604 16.316V16.3131C6.58764 16.3021 6.57464 16.2908 6.56592 16.2819C6.56111 16.2769 6.5565 16.2717 6.55322 16.2682C6.54961 16.2643 6.54681 16.2618 6.54443 16.2594H6.54346C5.53165 15.4231 5.53549 13.6907 6.51416 12.3278ZM10.0435 11.9528C9.64852 12.2459 8.89408 12.9292 8.82861 13.9127C8.76231 14.91 8.21201 15.543 7.72607 15.9137C8.41177 15.9677 9.25335 15.5427 9.84229 14.7242C10.2158 14.2055 10.4103 13.6352 10.4312 13.1256C10.4506 12.6481 10.3154 12.2329 10.0435 11.9528ZM9.1626 11.5865C8.49759 11.5867 7.7125 12.0193 7.15674 12.7906C6.79489 13.2929 6.60061 13.8428 6.56982 14.3395C6.54092 14.8062 6.65803 15.2177 6.90479 15.5065C7.27889 15.3084 7.97824 14.8168 8.0415 13.861C8.11246 12.801 8.74086 12.0405 9.23975 11.5934C9.21419 11.5907 9.18857 11.5865 9.1626 11.5865Z" fill="#676767" stroke="#676767" stroke-width="0.2"/>
</svg>
