<svg width="16" height="25" viewBox="0 0 16 25" fill="none" xmlns="http://www.w3.org/2000/svg">
<path d="M1.08398 22.0996C1.08398 22.8168 1.6578 23.4002 2.36914 23.4004H13.6289C14.3403 23.4003 14.9141 22.8169 14.9141 22.0996V21.4004H1.08398V22.0996ZM1.08398 20.4004H14.9141V13.5996H1.08398V20.4004ZM7.99902 14.7002C9.25167 14.7002 10.2695 15.7287 10.2695 17C10.2695 18.2713 9.25164 19.2998 7.99902 19.2998C6.74642 19.2998 5.72855 18.2713 5.72852 17C5.72852 15.7287 6.7464 14.7002 7.99902 14.7002ZM7.99902 15.7002C7.28756 15.7002 6.71387 16.2827 6.71387 17C6.7139 17.7173 7.28758 18.2998 7.99902 18.2998C8.71048 18.2998 9.28414 17.7173 9.28418 17C9.28418 16.2827 8.7105 15.7002 7.99902 15.7002ZM6.41797 6.64062C6.41797 7.45048 5.99846 8.19688 5.31738 8.6123L5.25 8.65234L1.74512 10.623C1.33703 10.8519 1.08398 11.2882 1.08398 11.7598V12.5996H14.9141V11.7598C14.9141 11.3173 14.6921 10.9069 14.3281 10.668L14.3242 10.665L14.2549 10.624L14.2529 10.623L10.748 8.65234C10.0277 8.24598 9.58106 7.47668 9.58105 6.64062L9.58008 4.09961V4H6.41797V6.64062ZM6.22168 1.59961C6.00209 1.59961 5.8252 1.78071 5.8252 2V2.59961C5.8252 2.8189 6.00209 3 6.22168 3H9.77637C9.99596 3 10.1729 2.8189 10.1729 2.59961V2C10.1729 1.78071 9.99596 1.59961 9.77637 1.59961H6.22168ZM5.43262 3.75L5.39258 3.7207C5.05661 3.46471 4.83984 3.05824 4.83984 2.59961V2C4.83984 1.22555 5.45979 0.599609 6.22168 0.599609H9.77637C10.5383 0.599609 11.1582 1.22555 11.1582 2V2.59961C11.1582 3.05824 10.9414 3.46469 10.6055 3.7207L10.5654 3.75V6.64062C10.5654 7.11213 10.8186 7.54747 11.2266 7.77637L14.7295 9.74609V9.74707L14.7988 9.78711C15.4801 10.2025 15.8994 10.9498 15.8994 11.7598V22.0996C15.8994 23.3709 14.8814 24.4003 13.6289 24.4004H2.36914C1.11662 24.4003 0.0986328 23.3709 0.0986328 22.0996V11.7598C0.0986328 10.9238 0.546283 10.1544 1.2666 9.74805L4.77148 7.77637L4.77344 7.77539L4.84277 7.73438L4.84668 7.73242C5.21069 7.49349 5.43261 7.08305 5.43262 6.64062V3.75Z" fill="#676767" stroke="#F6F6F6" stroke-width="0.2"/>
</svg>
