<svg width="11" height="21" viewBox="0 0 11 21" fill="none" xmlns="http://www.w3.org/2000/svg">
<path d="M10.6218 11.3768V11.3719V6.48945C10.6218 6.47968 10.6188 6.46698 10.6188 6.45721C10.6188 6.44939 10.6188 6.43963 10.6159 6.43181C10.611 6.40153 10.6032 6.37222 10.5905 6.34389C10.5905 6.34096 10.5876 6.33901 10.5856 6.33607C10.5729 6.30872 10.5583 6.28625 10.5407 6.26378C10.5378 6.26085 10.5358 6.25597 10.5329 6.25402L9.47977 5.00357C9.64194 4.84629 9.74452 4.62356 9.74452 4.38128C9.74452 3.90063 9.35473 3.50889 8.87214 3.50889H6.9486L7.25341 1.52284C7.29346 1.26495 7.21824 1.00508 7.04826 0.809685C6.87828 0.61235 6.63306 0.5 6.37322 0.5H4.61282C4.35295 0.5 4.10777 0.612345 3.93973 0.809685C3.76975 1.00702 3.69746 1.26687 3.73458 1.52284L4.03939 3.50889H2.12366C1.64302 3.50889 1.25128 3.89868 1.25128 4.38128C1.25128 4.62648 1.35385 4.84629 1.51602 5.00357L0.462922 6.25402C0.459991 6.25695 0.458038 6.26183 0.455107 6.26378C0.437522 6.28625 0.422868 6.31165 0.410169 6.33607C0.410169 6.33901 0.407238 6.34096 0.405284 6.34389C0.392584 6.37124 0.385746 6.40153 0.379885 6.43181C0.376954 6.43963 0.376954 6.4494 0.376954 6.45721C0.376954 6.46698 0.374023 6.47968 0.374023 6.48945V11.3739V11.3788V11.3837V14.2342V14.2391V14.244V18.4602C0.374023 18.895 0.643644 19.2681 1.0266 19.4205L1.25716 20.2304C1.30209 20.3906 1.44765 20.5 1.61471 20.5H9.38221C9.54731 20.5 9.6919 20.3896 9.73977 20.2304L9.97032 19.4205C10.3533 19.2681 10.6229 18.8949 10.6229 18.4602L10.6239 14.242V14.2371V14.2322V11.3817C10.6219 11.3817 10.6218 11.3788 10.6218 11.3768ZM4.50735 1.28824C4.52494 1.2687 4.56011 1.23548 4.6197 1.23548H6.3801C6.43969 1.23548 6.47486 1.26772 6.49244 1.28824C6.51003 1.30778 6.53543 1.34783 6.52761 1.40547L6.20522 3.50386H4.79945L4.47706 1.40547C4.46436 1.34783 4.49172 1.30778 4.50735 1.28824ZM2.12371 4.24629H8.8771C8.94939 4.24629 9.00703 4.30588 9.00703 4.37622C9.00703 4.44851 8.94744 4.50614 8.8771 4.50614H2.12371C2.05142 4.50614 1.99378 4.44655 1.99378 4.37622C1.99378 4.30392 2.05337 4.24629 2.12371 4.24629ZM2.27611 5.24957H8.72364L9.45633 6.12L1.54327 6.11902L2.27611 5.24957ZM9.10378 19.7615H1.89622L1.821 19.4967H9.17911L9.10378 19.7615ZM9.8814 18.4612C9.8814 18.6234 9.74855 18.7562 9.58638 18.7562H1.41348C1.25131 18.7562 1.11845 18.6234 1.11845 18.4612V14.6103H2.68638C3.2989 15.5658 4.35689 16.148 5.49687 16.148C6.63693 16.148 7.69786 15.5628 8.30737 14.6103H9.8753L9.87628 18.4612H9.8814ZM9.8814 13.8668H8.1005C8.09561 13.8668 8.09073 13.8698 8.08291 13.8698C8.07021 13.8698 8.06044 13.8727 8.04775 13.8727C8.03505 13.8756 8.02039 13.8776 8.00769 13.8805C7.99792 13.8834 7.98815 13.8854 7.98034 13.8903C7.96764 13.8952 7.95298 13.9 7.94028 13.9049C7.93051 13.9098 7.9227 13.9147 7.91488 13.9196C7.90218 13.9274 7.89242 13.9323 7.87972 13.942C7.86995 13.9499 7.86213 13.9547 7.85432 13.9616C7.84455 13.9694 7.83478 13.9792 7.82697 13.9889C7.81915 13.9968 7.81231 14.0065 7.8045 14.0143C7.79668 14.0241 7.78984 14.0339 7.78203 14.0466C7.7791 14.0515 7.77421 14.0544 7.77226 14.0593C7.31507 14.8896 6.44171 15.4074 5.4941 15.4074C4.54649 15.4074 3.67608 14.8926 3.21594 14.0593C3.21301 14.0544 3.21106 14.0515 3.20617 14.0466C3.19836 14.0368 3.19152 14.0241 3.1837 14.0143C3.17589 14.0046 3.16905 13.9968 3.16124 13.987C3.15342 13.9772 3.14365 13.9694 3.13584 13.9616C3.12607 13.9538 3.11825 13.9469 3.10848 13.9391C3.09871 13.9313 3.08894 13.9264 3.0782 13.9196C3.06843 13.9147 3.05866 13.9069 3.04792 13.902C3.03815 13.8971 3.02545 13.8922 3.01275 13.8893C3.00298 13.8844 2.99028 13.8815 2.98051 13.8795C2.96781 13.8766 2.95804 13.8746 2.94534 13.8717C2.93264 13.8688 2.91994 13.8688 2.90529 13.8668C2.9004 13.8668 2.89552 13.8639 2.89063 13.8639H1.10973L1.1107 11.7489H2.89161C2.8965 11.7489 2.89943 11.7489 2.90431 11.746C2.91896 11.746 2.93459 11.743 2.94925 11.7411C2.95902 11.7381 2.96879 11.7381 2.97953 11.7362C2.99223 11.7333 3.00493 11.7284 3.01959 11.7235C3.02936 11.7206 3.03912 11.7157 3.04987 11.7108C3.06257 11.7059 3.07234 11.6981 3.08504 11.6913C3.09481 11.6864 3.10262 11.6815 3.11239 11.6737C3.12216 11.6659 3.13193 11.659 3.14268 11.6483C3.15049 11.6405 3.16026 11.6336 3.16807 11.6258C3.17589 11.616 3.18273 11.6082 3.19054 11.5985C3.19836 11.5887 3.2052 11.5789 3.21301 11.5662C3.21594 11.5613 3.22083 11.5584 3.22278 11.5535C3.67997 10.7231 4.55333 10.2054 5.50094 10.2054C6.44855 10.2054 7.31896 10.7202 7.7791 11.5535C7.78203 11.5564 7.78398 11.5584 7.78691 11.5633C7.80157 11.5887 7.8172 11.6111 7.83674 11.6307C7.83967 11.6336 7.83967 11.6356 7.84162 11.6356C7.86116 11.6551 7.88656 11.6727 7.91196 11.6883C7.91977 11.6932 7.92661 11.6961 7.93443 11.701C7.95396 11.7108 7.97448 11.7206 7.99695 11.7264C8.00476 11.7294 8.0116 11.7313 8.01942 11.7342C8.04384 11.744 8.07119 11.7489 8.1005 11.7489H9.88141L9.8814 13.8668ZM9.8814 11.0063H8.31347C7.70096 10.0509 6.64296 9.46866 5.50298 9.46866C4.36292 9.46866 3.302 10.0538 2.69248 11.0063H1.12455L1.12357 6.85934H9.88643V11.0063H9.8814Z" fill="#676767"/>
<path d="M5.49966 2.7713C5.7224 2.7713 5.90021 2.59155 5.90021 2.37076C5.90021 2.14802 5.72045 1.97021 5.49966 1.97021C5.27693 1.97021 5.09912 2.14997 5.09912 2.37076C5.09912 2.59056 5.27692 2.7713 5.49966 2.7713Z" fill="#676767"/>
</svg>
