<svg width="27" height="20" viewBox="0 0 27 20" fill="none" xmlns="http://www.w3.org/2000/svg">
<path d="M16.0592 18.5139C16.0015 18.8891 15.8231 19.2266 15.5656 19.4844C15.2488 19.8029 14.8105 20 14.3288 20H3.16886C2.68717 20 2.2489 19.8029 1.93207 19.4861L1.90696 19.4589C1.60506 19.1438 1.41815 18.7164 1.41815 18.249V17.6743C1.09284 17.6282 0.800771 17.4762 0.578921 17.2544L0.55348 17.2265C0.300084 16.9603 0.144043 16.6003 0.144043 16.2075C0.144043 15.8001 0.311278 15.43 0.578921 15.1617C0.812982 14.926 1.12574 14.7696 1.47276 14.7333C1.70988 13.4571 2.55182 12.3337 3.7764 11.5127C5.08476 10.6359 6.83785 10.1016 8.74867 10.1016C10.4322 10.1016 11.9933 10.5168 13.2355 11.2149L12.6989 5.38612C12.6778 5.15036 12.8519 4.94106 13.0876 4.92003L13.397 4.91969V2.31415C13.397 2.07636 13.59 1.88334 13.8278 1.88334H15.7759V0.430808C15.7759 0.193015 15.9689 0 16.2067 0H18.5857C18.8235 0 19.0165 0.193015 19.0165 0.430808V1.883H20.5338V0.430808C20.5338 0.193015 20.7268 0 20.9646 0H23.3436C23.5813 0 23.7744 0.193015 23.7744 0.430808V1.88334H25.7225C25.9603 1.88334 26.1533 2.07636 26.1533 2.31415V4.91664H26.4233C26.6611 4.91664 26.8541 5.10965 26.8541 5.34744L25.6781 18.1217C25.658 18.3446 25.4701 18.5122 25.2506 18.5122L16.0592 18.5139ZM2.35473 14.7251H15.1429C14.9085 13.7509 14.222 12.8822 13.2433 12.2265C12.072 11.4415 10.4882 10.9632 8.74867 10.9632C7.00915 10.9632 5.42534 11.4415 4.25402 12.2265C3.27571 12.8822 2.58913 13.7509 2.35473 14.7251ZM16.0249 14.7333C16.3719 14.7692 16.6854 14.9263 16.9191 15.16C17.1874 15.4283 17.354 15.7995 17.354 16.2072C17.354 16.6132 17.1874 16.984 16.9191 17.2527C16.7234 17.4481 16.4757 17.5888 16.2006 17.6523H24.8592L25.9528 5.77825H23.7506L23.5135 8.35123C23.5125 8.588 23.3198 8.78 23.0827 8.78H16.4676C16.2481 8.7783 16.0602 8.61073 16.0402 8.38786L15.7997 5.77825H13.5968L14.1521 11.8265C15.1423 12.6098 15.8166 13.6125 16.0249 14.7333ZM15.7759 2.74496H14.2586V4.91867L15.7759 4.91698V2.74496ZM16.859 7.91838H18.1549V0.861615H16.6375V5.25653L16.859 7.91838ZM19.0165 7.91838H20.5338V2.74462H19.0165V7.91838ZM21.3954 7.91838H22.6912L22.9127 5.30572V0.861615H21.3954V7.91838ZM23.7744 4.91799L25.2917 4.91731V2.74496H23.7744V4.91799ZM2.27976 17.6892V18.249C2.27976 18.4844 2.37271 18.6998 2.52298 18.8595L2.5413 18.8768C2.70243 19.038 2.92496 19.1384 3.16886 19.1384H14.3288C14.5727 19.1384 14.7952 19.038 14.9564 18.8768C15.1178 18.7164 15.2179 18.4935 15.2179 18.249V17.6892H2.27976ZM15.8723 15.5868H15.6524H15.6416H1.85608H1.84523H1.62643C1.45614 15.5868 1.30044 15.657 1.18816 15.7693C1.07554 15.8805 1.00566 16.0362 1.00566 16.2072C1.00566 16.3697 1.06807 16.5179 1.16984 16.6278L1.18816 16.6451C1.30044 16.7574 1.45614 16.8276 1.62643 16.8276H15.8723C16.0432 16.8276 16.1986 16.7584 16.3099 16.6468C16.4232 16.5339 16.4924 16.3785 16.4924 16.2075C16.4924 16.0372 16.4221 15.8815 16.3099 15.7693C16.1976 15.657 16.0422 15.5868 15.8723 15.5868Z" fill="#676767"/>
</svg>
