<svg width="13" height="25" viewBox="0 0 13 25" fill="none" xmlns="http://www.w3.org/2000/svg">
<path d="M1.05852 8.79407C0.802667 8.79407 0.586914 9.00314 0.586914 9.26568V10.3368C0.586914 10.5927 0.795987 10.8084 1.05852 10.8084H1.09385L2.28051 23.2086C2.32729 23.6563 2.6996 24 3.14736 24H9.85113C10.3046 24 10.6779 23.662 10.718 23.2086L11.9046 10.8084H11.94C12.1958 10.8084 12.4116 10.5994 12.4116 10.3368V9.26568C12.4116 9.00982 12.2025 8.79407 11.94 8.79407H11.9171C11.771 5.93195 9.40246 3.65027 6.50491 3.65027C5.7488 3.65027 5.03282 3.80779 4.37505 4.08657L3.95022 1.24742C3.9273 1.0899 3.78124 0.980102 3.61894 1.00303L2.47238 1.172C2.39696 1.18346 2.32727 1.22451 2.28049 1.28847C2.23371 1.35244 2.21653 1.42785 2.22798 1.50423L2.76927 5.14719C1.78597 6.078 1.15778 7.36393 1.08143 8.79602L1.05852 8.79407ZM1.68098 10.8017H3.61896L4.31683 15.4807C3.6772 15.4807 2.94973 15.5389 2.14591 15.6382L1.68098 10.8017ZM4.9048 15.4919L4.20693 10.8017H4.78927L5.49382 15.532C5.31148 15.5148 5.11388 15.4977 4.9048 15.4919ZM5.58549 16.1382L5.9874 18.8151L5.41077 18.8962L4.99168 16.0801C5.20744 16.0915 5.40505 16.1086 5.58549 16.1382ZM10.1479 23.1495C10.1364 23.3003 10.0085 23.411 9.8567 23.411L3.15292 23.412C3.00208 23.412 2.87988 23.3012 2.86175 23.1504L2.19922 16.2196C3.02596 16.1146 3.76486 16.0621 4.39878 16.0621L4.87611 19.2678C4.89902 19.4129 5.02122 19.5179 5.16156 19.5179C5.17302 19.5179 5.1902 19.5179 5.20261 19.5122L6.34917 19.3432C6.42459 19.3318 6.49428 19.2907 6.54106 19.2267C6.58784 19.1628 6.60502 19.0874 6.59357 19.011L6.1802 16.2471C6.32531 16.2882 6.45323 16.334 6.56397 16.3865C7.12246 16.6424 7.81459 16.7416 8.5306 16.7416C9.29243 16.7416 10.0724 16.6309 10.7712 16.4972L10.1479 23.1495ZM10.84 15.8938C9.07673 16.2604 7.65723 16.249 6.81895 15.8652C6.61561 15.7659 6.36548 15.6962 6.09149 15.638L5.36976 10.8082H11.322L10.84 15.8938ZM6.50491 4.2325C9.08255 4.2325 11.1951 6.25736 11.3461 8.79487L5.07959 8.79392L4.4686 4.68587C5.08531 4.3947 5.77746 4.2325 6.50491 4.2325ZM3.92164 4.98286L4.49158 8.79397H3.90351L3.39179 5.36094C3.56077 5.22156 3.74121 5.09934 3.92164 4.98286ZM3.42139 1.61949L3.82904 4.36039C3.64288 4.4654 3.46817 4.58187 3.29347 4.7098L2.84574 1.7074L3.42139 1.61949ZM2.8801 5.86782L3.3164 8.79495H1.66387C1.73356 7.67129 2.18128 6.65267 2.8801 5.86782ZM1.16933 9.37612H3.64188H3.65334H3.67625H11.8405V10.2258H1.16924L1.16933 9.37612Z" fill="#676767" stroke="#676767" stroke-width="0.1"/>
<path d="M9.02425 20.8916H7.86051C7.69726 20.8916 7.56934 21.0195 7.56934 21.1828V22.3465C7.56934 22.5098 7.69726 22.6377 7.86051 22.6377H9.02425C9.1875 22.6377 9.31542 22.5098 9.31542 22.3465V21.1828C9.31542 21.0205 9.18749 20.8916 9.02425 20.8916ZM8.73307 22.0553H8.15073V21.473H8.73307V22.0553Z" fill="#676767" stroke="#676767" stroke-width="0.1"/>
<path d="M5.45491 21H4.29117C4.12792 21 4 21.1279 4 21.2912V22.4549C4 22.6182 4.12793 22.7461 4.29117 22.7461H5.45491C5.61816 22.7461 5.74608 22.6182 5.74608 22.4549V21.2912C5.74608 21.1279 5.61816 21 5.45491 21ZM5.16374 22.1637H4.58139V21.5814H5.16374V22.1637Z" fill="#676767" stroke="#676767" stroke-width="0.1"/>
<path d="M8.36686 17.9133L7.78452 18.9195C7.74347 18.9835 7.73774 19.0646 7.75588 19.141C7.77879 19.2164 7.82557 19.2804 7.88953 19.3157L8.89576 19.8981C8.94254 19.9267 8.99504 19.9391 9.04087 19.9391C9.14015 19.9391 9.23848 19.8866 9.29098 19.794L9.87333 18.7878C9.91438 18.7238 9.92011 18.6427 9.90197 18.5663C9.87906 18.4909 9.83228 18.4269 9.76831 18.3916L8.76209 17.8093C8.62366 17.7272 8.44898 17.773 8.36686 17.9133ZM8.72774 18.4546L9.23371 18.7458L8.94254 19.2517L8.43657 18.9606L8.72774 18.4546Z" fill="#676767" stroke="#676767" stroke-width="0.1"/>
</svg>
