<svg width="21" height="20" viewBox="0 0 21 20" fill="none" xmlns="http://www.w3.org/2000/svg">
<path d="M20.7569 14.6515C20.5613 14.427 20.2774 14.2982 19.9772 14.2982H17.0937C17.1665 13.6623 17.1502 13.0317 17.0337 12.4217L15.7098 5.31102C15.5588 4.47743 14.8218 3.87281 13.9565 3.87281H7.35628L7.08512 2.27897C6.85584 0.958815 5.70212 0.000894307 4.34194 0.000894307L1.23282 0C0.552226 0 -0.000976562 0.541126 -0.000976562 1.20567C-0.000976562 1.8747 0.552226 2.4185 1.23282 2.4185H4.341C4.49204 2.4185 4.63307 2.53925 4.66128 2.68683L4.86236 3.87104H3.49664C2.63136 3.87104 1.89344 4.47566 1.74423 5.30747L0.419453 12.4197C0.0700618 14.2998 0.583232 16.2211 1.82885 17.6888C3.07357 19.1566 4.90233 19.9982 6.84588 19.9982H10.6091C11.5107 19.9982 12.3824 19.8158 13.205 19.4669C13.9247 19.8086 14.7263 20 15.5616 20C18.2866 20 20.5686 18.0806 20.9881 15.4366C21.0308 15.1567 20.9471 14.8706 20.7569 14.6515ZM10.1415 15.4377C10.2707 16.257 10.5919 17.0127 11.0532 17.663C10.9076 17.6791 10.7593 17.688 10.6082 17.688H6.84507C5.59309 17.688 4.42216 17.1514 3.6323 16.2158C2.83615 15.2803 2.50589 14.0487 2.72426 12.8376L3.04544 11.1293C3.0791 10.9325 3.2538 10.7885 3.46126 10.7885H13.9931C14.2005 10.7885 14.3752 10.9316 14.4098 11.1337L14.7292 12.8349C14.8156 13.3179 14.8083 13.817 14.7192 14.2964H11.1507C10.8505 14.2964 10.5666 14.4252 10.371 14.6497C10.1808 14.8706 10.0969 15.1568 10.1415 15.4377ZM6.56116 10.1821L5.59306 4.47937H6.83231L7.80406 10.1821H6.56116ZM14.8138 14.9055L13.3161 16.3778C12.9768 15.9645 12.7575 15.461 12.6965 14.9055H14.8138ZM15.2514 15.3358V17.4162C14.6864 17.3562 14.175 17.1407 13.7547 16.8071L15.2514 15.3358ZM15.8692 15.3358L17.3678 16.8098C16.9474 17.1416 16.4343 17.3571 15.8692 17.4162V15.3358ZM17.8082 16.3804L16.3078 14.9055H18.4314C18.3705 15.4619 18.1494 15.9672 17.8082 16.3804ZM13.9567 4.47924C14.5217 4.47924 15.0031 4.87368 15.1013 5.41749L16.4261 12.5316C16.5362 13.1058 16.5471 13.6997 16.4716 14.2981H15.3488C15.4316 13.7811 15.4316 13.2462 15.3388 12.7284L15.0204 11.0307C14.9366 10.5388 14.5054 10.1828 13.994 10.1828H8.43288L7.46113 4.48011L13.9567 4.47924ZM5.27106 2.57949C5.18463 2.13407 4.79428 1.81118 4.34117 1.81118H1.23298C0.893608 1.81118 0.617914 1.53928 0.617914 1.20567C0.617914 0.876523 0.893608 0.608193 1.23298 0.608193H4.34117C5.39845 0.608193 6.29648 1.35413 6.47483 2.38004L6.72868 3.87192H5.49034L5.27106 2.57949ZM10.6084 19.391H6.84519C5.08549 19.391 3.43047 18.6289 2.3031 17.2998C1.17578 15.9707 0.710829 14.2321 1.02745 12.529L2.35313 5.41488C2.45049 4.87375 2.93182 4.47933 3.49685 4.47933H4.96539L5.93349 10.1821H3.46049C2.94915 10.1821 2.51786 10.538 2.43598 11.0246L2.11571 12.7294C1.86459 14.1193 2.24491 15.5324 3.15843 16.6049C4.06557 17.68 5.40947 18.2954 6.84707 18.2954H10.6103C10.9169 18.2954 11.2126 18.2605 11.4992 18.2041C11.804 18.5351 12.1489 18.8284 12.5255 19.078C11.9095 19.2855 11.268 19.391 10.6084 19.391ZM15.5609 19.3928C13.1862 19.3928 11.1189 17.6522 10.7539 15.3446C10.7376 15.239 10.7685 15.1326 10.8431 15.0476C10.9214 14.9582 11.0342 14.9063 11.1525 14.9063H12.0796C12.2389 16.6674 13.7301 18.0565 15.5617 18.0565C17.3969 18.0565 18.8909 16.6665 19.0509 14.9063H19.9781C20.0964 14.9063 20.2092 14.9582 20.2874 15.0476C20.3621 15.1326 20.393 15.239 20.3766 15.3446C20.0099 17.6512 17.94 19.3928 15.5606 19.3928H15.5609Z" fill="#676767"/>
</svg>
