<svg width="20" height="20" viewBox="0 0 20 20" fill="none" xmlns="http://www.w3.org/2000/svg">
<path d="M11.3661 9.866L11.1378 10.0923L10.6887 9.63124L14.097 6.23902H6.45897V5.59046H14.7485L15.8576 4.48671H2.43435L3.54342 5.59046H5.7332V6.23902H4.1959L9.14651 11.1683L10.1711 10.1491L10.6203 10.6101L9.46771 11.757V19.3514H11.9318V20H6.36129V19.3514H8.82536V11.757L0.871317 3.83819H4.24538L3.93258 2.50642L0.26667 3.38385L-0.000976562 2.81045L3.67328 0L8.20744 0.846183L8.22416 1.47955L4.55826 2.35697L4.9062 3.83737H13.2994C13.3763 3.01736 13.7418 2.28351 14.2922 1.73967C14.8977 1.14093 15.7274 0.771036 16.6408 0.771036C17.5676 0.771036 18.4081 1.15105 19.0154 1.76416C19.6235 2.37809 19.999 3.22596 19.999 4.16169C19.999 5.09653 19.6226 5.9444 19.0154 6.55836C18.4057 7.17315 17.5668 7.55317 16.6408 7.55317C16.2001 7.55317 15.7768 7.46619 15.3888 7.30827C15.0584 7.174 14.7539 6.9882 14.4854 6.76105L11.3675 9.8653L11.3661 9.866ZM1.59788 2.39906L6.59539 1.20328L3.8352 0.688149L1.59788 2.39906ZM18.1183 4.48662H17.7972V3.83806H18.8677V4.48662H18.1183ZM17.7604 2.57132L17.9879 2.34162L18.442 2.80018L17.6851 3.56445L17.2309 3.10589L17.7604 2.57132ZM15.0638 3.02988L14.8363 2.80018L15.2904 2.34162L16.0474 3.10589L15.5932 3.56445L15.0638 3.02988ZM17.4584 5.44773L17.2309 5.21803L17.6851 4.75947L18.4421 5.52374L17.9879 5.9823L17.4584 5.44773ZM16.3184 2.2369V1.91262H16.9608V2.99356H16.3184V2.2369ZM16.3184 5.65614V5.33185H16.9608V6.4128H16.3184V5.65614ZM13.9413 3.83795H17.4216L14.9434 6.30466C15.1491 6.47018 15.3783 6.60698 15.6259 6.70748C15.9378 6.83416 16.2799 6.90425 16.6396 6.90425C17.3907 6.90425 18.0698 6.59769 18.56 6.102C19.0518 5.60543 19.3554 4.9197 19.3554 4.16136C19.3554 3.40386 19.0509 2.71813 18.56 2.22241C18.069 1.72669 17.389 1.41931 16.6396 1.41931C15.8994 1.41931 15.2286 1.71741 14.7401 2.20046C14.3077 2.62778 14.0158 3.19949 13.9414 3.83708L13.9413 3.83795Z" fill="#676767"/>
</svg>
