<svg width="12" height="14" viewBox="0 0 12 14" fill="none" xmlns="http://www.w3.org/2000/svg">
<g opacity="0.6">
<path d="M3.47461 5.90057C3.47461 5.30221 3.71231 4.72836 4.13541 4.30525C4.55851 3.88215 5.13236 3.64445 5.73072 3.64445C6.32908 3.64445 6.90293 3.88215 7.32603 4.30525C7.74913 4.72836 7.98683 5.30221 7.98683 5.90057C7.98683 6.49892 7.74913 7.07277 7.32603 7.49588C6.90293 7.91898 6.32908 8.15668 5.73072 8.15668C5.13236 8.15668 4.55851 7.91898 4.13541 7.49588C3.71231 7.07277 3.47461 6.49892 3.47461 5.90057Z" fill="url(#paint0_linear_312_1068)"/>
<path fill-rule="evenodd" clip-rule="evenodd" d="M0.020271 5.12102C0.13574 3.72553 0.771538 2.42443 1.80153 1.47583C2.83153 0.527235 4.18046 0.000455785 5.58072 0H5.88061C7.28086 0.000455785 8.6298 0.527235 9.65979 1.47583C10.6898 2.42443 11.3256 3.72553 11.4411 5.12102C11.5692 6.67906 11.0882 8.22609 10.0992 9.43679L6.77194 13.5061C6.64583 13.6605 6.48698 13.7849 6.3069 13.8703C6.12681 13.9557 5.92998 14 5.73066 14C5.53134 14 5.33452 13.9557 5.15443 13.8703C4.97434 13.7849 4.81549 13.6605 4.68938 13.5061L1.36283 9.43679C0.373586 8.22619 -0.10767 6.67916 0.020271 5.12102ZM5.73066 2.6032C4.85614 2.6032 4.01743 2.95061 3.39905 3.56899C2.78067 4.18737 2.43327 5.02607 2.43327 5.9006C2.43327 6.77512 2.78067 7.61382 3.39905 8.2322C4.01743 8.85059 4.85614 9.19799 5.73066 9.19799C6.60518 9.19799 7.44389 8.85059 8.06227 8.2322C8.68065 7.61382 9.02805 6.77512 9.02805 5.9006C9.02805 5.02607 8.68065 4.18737 8.06227 3.56899C7.44389 2.95061 6.60518 2.6032 5.73066 2.6032Z" fill="url(#paint1_linear_312_1068)"/>
</g>
<defs>
<linearGradient id="paint0_linear_312_1068" x1="5.73072" y1="3.64445" x2="5.73072" y2="8.15668" gradientUnits="userSpaceOnUse">
<stop stop-color="#D425FC"/>
<stop offset="1" stop-color="#9733EE"/>
</linearGradient>
<linearGradient id="paint1_linear_312_1068" x1="5.73069" y1="0" x2="5.73069" y2="14" gradientUnits="userSpaceOnUse">
<stop stop-color="#D425FC"/>
<stop offset="1" stop-color="#9733EE"/>
</linearGradient>
</defs>
</svg>
