<svg width="19" height="22" viewBox="0 0 19 22" fill="none" xmlns="http://www.w3.org/2000/svg">
<path d="M5.63281 3V1M13.6328 3V1M9.63281 21C5.62581 21 3.62281 21 2.37781 19.682C1.13281 18.364 1.13281 16.242 1.13281 12C1.13281 7.758 1.13281 5.636 2.37781 4.318C3.62281 3 5.62581 3 9.63281 3C13.6398 3 15.6428 3 16.8878 4.318C18.1328 5.636 18.1328 7.758 18.1328 12C18.1328 16.242 18.1328 18.364 16.8878 19.682C15.6428 21 13.6398 21 9.63281 21Z" stroke="#272727" stroke-width="1.5" stroke-linecap="round" stroke-linejoin="round"/>
<path d="M11.6506 8.49301C11.6506 9.02344 11.4399 9.53215 11.0649 9.90722C10.6898 10.2823 10.1811 10.493 9.65064 10.493C9.12021 10.493 8.6115 10.2823 8.23643 9.90722C7.86135 9.53215 7.65064 9.02344 7.65064 8.49301C7.65064 7.96258 7.86135 7.45387 8.23643 7.0788C8.6115 6.70373 9.12021 6.49301 9.65064 6.49301C10.1811 6.49301 10.6898 6.70373 11.0649 7.0788C11.4399 7.45387 11.6506 7.96258 11.6506 8.49301ZM5.69564 15.716C6.75364 14.086 8.43464 13.476 9.65064 13.477C10.8666 13.478 12.4986 14.087 13.5566 15.717C13.6246 15.822 13.6436 15.951 13.5816 16.061C13.3346 16.5 12.5656 17.371 12.0116 17.43C11.3736 17.497 9.70464 17.507 9.65164 17.507C9.59864 17.507 7.87964 17.497 7.24164 17.43C6.68564 17.37 5.91764 16.5 5.66964 16.06C5.60864 15.951 5.62764 15.822 5.69564 15.716Z" stroke="#272727" stroke-width="1.5" stroke-linecap="round" stroke-linejoin="round"/>
</svg>
