<svg width="18" height="16" viewBox="0 0 18 16" fill="none" xmlns="http://www.w3.org/2000/svg">
<path fill-rule="evenodd" clip-rule="evenodd" d="M7.71429 14.1429C7.71429 13.8019 7.84974 13.4748 8.09086 13.2337C8.33198 12.9926 8.65901 12.8571 9 12.8571H16.7143C17.0553 12.8571 17.3823 12.9926 17.6234 13.2337C17.8645 13.4748 18 13.8019 18 14.1429C18 14.4839 17.8645 14.8109 17.6234 15.052C17.3823 15.2931 17.0553 15.4286 16.7143 15.4286H9C8.65901 15.4286 8.33198 15.2931 8.09086 15.052C7.84974 14.8109 7.71429 14.4839 7.71429 14.1429ZM0 1.28571C0 0.944722 0.135459 0.617696 0.376577 0.376577C0.617695 0.135459 0.944722 0 1.28571 0H16.7143C17.0553 0 17.3823 0.135459 17.6234 0.376577C17.8645 0.617696 18 0.944722 18 1.28571C18 1.62671 17.8645 1.95373 17.6234 2.19485C17.3823 2.43597 17.0553 2.57143 16.7143 2.57143H1.28571C0.944722 2.57143 0.617695 2.43597 0.376577 2.19485C0.135459 1.95373 0 1.62671 0 1.28571ZM0 7.71429C0 7.37329 0.135459 7.04627 0.376577 6.80515C0.617695 6.56403 0.944722 6.42857 1.28571 6.42857H16.7143C17.0553 6.42857 17.3823 6.56403 17.6234 6.80515C17.8645 7.04627 18 7.37329 18 7.71429C18 8.05528 17.8645 8.38231 17.6234 8.62342C17.3823 8.86454 17.0553 9 16.7143 9H1.28571C0.944722 9 0.617695 8.86454 0.376577 8.62342C0.135459 8.38231 0 8.05528 0 7.71429Z" fill="black"/>
</svg>
