<svg width="46" height="46" viewBox="0 0 46 46" fill="none" xmlns="http://www.w3.org/2000/svg">
<g clip-path="url(#clip0_886_1499)">
<path fill-rule="evenodd" clip-rule="evenodd" d="M10.9117 40.7688L11.4382 41.6992L11.4393 41.701C11.906 42.5311 11.61 43.5905 10.7846 44.0567L8.86358 45.1455L8.86142 45.1467C8.03125 45.6135 6.9719 45.3175 6.50541 44.4916L0.856514 34.5101C0.38551 33.6791 0.681534 32.6188 1.50809 32.1519L3.43125 31.0631L3.43188 31.0628C4.25799 30.5962 5.3177 30.8894 5.78817 31.7155L5.78907 31.7172L6.21272 32.4657L11.2076 29.5738C12.7304 28.6932 14.2869 28.1212 15.9594 28.6643C17.5754 29.1883 20.2137 30.3182 22.9063 30.8047C22.9381 30.8105 22.9695 30.8184 23.0003 30.8284C24.3809 31.2754 25.2195 32.6718 24.8424 34.0738C24.7953 34.2516 24.7323 34.4248 24.6541 34.5913C24.9141 34.5102 25.169 34.3977 25.42 34.2514L32.2696 30.2622C34.7648 28.8085 36.429 28.9722 37.3707 29.604C38.186 30.151 38.5645 31.0845 38.5402 32.0013C38.5155 32.9279 38.0729 33.8124 37.3462 34.26L24.9173 41.9123C23.5999 42.7253 22.157 42.9164 20.662 42.5175L20.6612 42.5173L11.9341 40.1784L10.9117 40.7688ZM10.1814 42.4085L4.53399 32.4294C4.45543 32.2919 4.27928 32.2416 4.14164 32.3193L2.21902 33.4078L2.21839 33.4081C2.08165 33.4854 2.03411 33.6611 2.11195 33.7984L2.11222 33.7988L7.76139 43.7808L7.76166 43.7813C7.83931 43.9187 8.01574 43.9663 8.15374 43.8889L10.0729 42.8012L10.0739 42.8006C10.2113 42.7231 10.2589 42.5465 10.1814 42.4085ZM10.2009 39.5127L11.4713 38.7791C11.5534 38.7318 11.644 38.701 11.738 38.6886C11.8319 38.6763 11.9274 38.6825 12.0189 38.7071L21.0342 41.1232C22.1319 41.4159 23.1921 41.2812 24.1593 40.6842L24.16 40.6838L36.5894 33.0311C36.9259 32.824 37.0861 32.392 37.0975 31.9629C37.111 31.4549 36.8991 30.9166 36.3618 30.6931C35.6552 30.399 34.5709 30.5917 32.996 31.5092L26.1466 35.4983C25.0397 36.1433 23.8797 36.3219 22.6154 36.1207C22.6146 36.1205 22.6138 36.1204 22.613 36.1203L21.7639 35.9822C21.7635 35.9821 18.7518 35.1918 17.1602 34.7641C16.7756 34.6607 16.5472 34.2646 16.6506 33.88C16.7539 33.4954 17.1501 33.267 17.5347 33.3704C19.0871 33.7875 20.4865 34.2451 21.9935 34.5567C22.7343 34.6381 23.2784 34.3342 23.4487 33.6994L23.4488 33.699C23.6213 33.058 23.2189 32.4376 22.5967 32.2152C19.8505 31.7107 17.1626 30.5716 15.514 30.037L15.5137 30.0369C14.2454 29.6251 13.0849 30.1552 11.9302 30.823L6.92355 33.7218L10.2009 39.5127ZM3.84868 33.459C4.2846 33.3941 4.68949 33.6952 4.75434 34.1312C4.81666 34.5672 4.51559 34.9746 4.07958 35.0368C3.64366 35.1018 3.23877 34.7981 3.17392 34.3622C3.1116 33.9261 3.41267 33.5213 3.84868 33.459ZM8.18242 9.98044C12.353 9.98044 15.733 13.3605 15.733 17.5311C15.733 21.7016 12.353 25.0817 8.18242 25.0817C4.01193 25.0817 0.631836 21.7016 0.631836 17.5311C0.631836 13.3605 4.01193 9.98044 8.18242 9.98044ZM13.274 20.9056C13.9159 19.9388 14.2899 18.7787 14.2899 17.5311C14.2899 14.1577 11.5558 11.4236 8.18242 11.4236C4.809 11.4236 2.07497 14.1577 2.07497 17.5311C2.07497 18.7787 2.44893 19.9388 3.09085 20.9056C3.62093 19.5926 4.64367 18.5314 5.92968 17.9513C5.38517 17.387 5.04919 16.6203 5.04919 15.7786C5.04919 14.0548 6.45859 12.6454 8.18242 12.6454C9.90634 12.6454 11.3157 14.0548 11.3157 15.7786C11.3157 16.6203 10.9798 17.387 10.4352 17.9513C11.7213 18.5314 12.744 19.5926 13.274 20.9056ZM4.21298 22.1731C5.28045 23.0867 6.66695 23.6386 8.18242 23.6386C9.69799 23.6386 11.0844 23.0867 12.152 22.1731C11.7863 20.3142 10.1475 18.9119 8.18242 18.9119C6.21741 18.9119 4.57864 20.3142 4.21298 22.1731ZM8.18242 17.4688C9.11234 17.4688 9.87261 16.7085 9.87261 15.7786C9.87261 14.8488 9.11234 14.0885 8.18242 14.0885C7.25259 14.0885 6.49233 14.8488 6.49233 15.7786C6.49233 16.7085 7.25259 17.4688 8.18242 17.4688ZM24.9025 1.88498C25.3201 2.0108 25.7241 2.1782 26.1083 2.38467L26.8821 2.04057C27.0154 1.98131 27.1636 1.96383 27.307 1.99045C27.4504 2.01706 27.5824 2.08652 27.6855 2.18967L28.9916 3.4957C29.0946 3.59873 29.164 3.73053 29.1907 3.87376C29.2174 4.017 29.2001 4.16496 29.1411 4.29818L28.7981 5.07233C29.0051 5.45735 29.1727 5.86224 29.2985 6.28087L30.0874 6.58456C30.2235 6.63693 30.3406 6.72931 30.4231 6.84952C30.5057 6.96973 30.5499 7.11214 30.5499 7.25796V9.10536C30.5499 9.2512 30.5057 9.39363 30.4232 9.51386C30.3406 9.63409 30.2236 9.72648 30.0874 9.77885L29.298 10.0826C29.1717 10.5002 29.0041 10.9041 28.7978 11.2885L29.1411 12.0633C29.2001 12.1966 29.2174 12.3445 29.1907 12.4878C29.164 12.631 29.0946 12.7628 28.9916 12.8658L27.6855 14.1719C27.5825 14.2749 27.4507 14.3443 27.3075 14.371C27.1642 14.3977 27.0163 14.3804 26.883 14.3214L26.1093 13.9786C25.7247 14.1853 25.3203 14.3528 24.9023 14.4785L24.5986 15.2677C24.5462 15.4038 24.4538 15.5209 24.3336 15.6034C24.2133 15.686 24.0709 15.7302 23.9251 15.7302H22.0777C21.9318 15.7302 21.7894 15.686 21.6692 15.6034C21.549 15.5209 21.4566 15.4038 21.4043 15.2677L21.1006 14.4786C20.6823 14.3524 20.2777 14.1847 19.8928 13.9781L19.1179 14.3214C18.9847 14.3804 18.8367 14.3977 18.6935 14.371C18.5502 14.3443 18.4184 14.2749 18.3154 14.1719L17.0094 12.8658C16.9062 12.7627 16.8368 12.6307 16.8102 12.4873C16.7835 12.3438 16.801 12.1957 16.8603 12.0624L17.2042 11.289C16.9977 10.9046 16.83 10.5006 16.7036 10.0829L15.9135 9.77885C15.7774 9.72648 15.6603 9.63409 15.5778 9.51386C15.4952 9.39363 15.451 9.2512 15.4511 9.10536V7.25796C15.4511 7.11214 15.4952 6.96973 15.5778 6.84952C15.6604 6.72931 15.7774 6.63693 15.9135 6.58456L16.7033 6.2806C16.8298 5.86241 16.9976 5.45786 17.2043 5.07296L16.8603 4.29908C16.801 4.16579 16.7835 4.01768 16.8102 3.87426C16.8368 3.73084 16.9062 3.59885 17.0094 3.4957L18.3154 2.18967C18.4186 2.08652 18.5505 2.01706 18.694 1.99045C18.8374 1.96383 18.9855 1.98131 19.1188 2.04057L19.8926 2.38467C20.277 2.1781 20.6812 2.01064 21.099 1.8848L21.4045 1.09315C21.457 0.957206 21.5494 0.840326 21.6695 0.757895C21.7897 0.675465 21.932 0.631346 22.0777 0.631348H23.9251C24.071 0.631332 24.2134 0.675554 24.3337 0.758177C24.454 0.8408 24.5463 0.957941 24.5986 1.09414L24.9025 1.88498ZM23.6869 2.74473L23.4293 2.07448H22.5727L22.3136 2.74572C22.2714 2.85498 22.2033 2.95233 22.1151 3.02938C22.0269 3.10642 21.9213 3.16085 21.8074 3.18796C21.2794 3.31337 20.7749 3.52244 20.313 3.80724C20.2131 3.86878 20.0997 3.90504 19.9827 3.91288C19.8657 3.92072 19.7485 3.89991 19.6413 3.85225L18.9854 3.56056L18.3803 4.16568L18.672 4.82159C18.7196 4.92877 18.7404 5.04596 18.7326 5.163C18.7247 5.28004 18.6885 5.39341 18.6269 5.49328C18.3417 5.95643 18.1319 6.46197 18.0054 6.99098C17.9781 7.10472 17.9236 7.21012 17.8465 7.29811C17.7694 7.3861 17.6721 7.45404 17.563 7.49608L16.8942 7.75341V8.60991L17.563 8.86733C17.6721 8.90932 17.7693 8.97718 17.8464 9.06507C17.9234 9.15296 17.978 9.25825 18.0053 9.37189C18.1325 9.90017 18.3409 10.4058 18.6263 10.8672C18.6881 10.9672 18.7246 11.0807 18.7325 11.1979C18.7405 11.3152 18.7197 11.4326 18.672 11.5399L18.3803 12.1958L18.9859 12.8014L19.6422 12.5107C19.749 12.4634 19.8657 12.4427 19.9823 12.4505C20.0989 12.4582 20.2118 12.4942 20.3114 12.5552C20.7747 12.839 21.2785 13.0497 21.8087 13.1753C21.9229 13.2024 22.0287 13.2568 22.117 13.334C22.2054 13.4112 22.2736 13.5088 22.3158 13.6182L22.5731 14.287H23.4296L23.687 13.6182C23.7292 13.5088 23.7973 13.4113 23.8855 13.3342C23.9738 13.257 24.0795 13.2026 24.1936 13.1755C24.7213 13.0505 25.2255 12.8416 25.687 12.5568C25.7868 12.4951 25.9001 12.4586 26.0171 12.4506C26.1342 12.4426 26.2514 12.4632 26.3587 12.5107L27.015 12.8014L27.6211 12.1953L27.3304 11.539C27.2831 11.4322 27.2624 11.3155 27.2702 11.1989C27.2779 11.0824 27.3139 10.9694 27.3749 10.8698C27.6588 10.4065 27.8695 9.90251 27.9952 9.37387C28.0223 9.25983 28.0768 9.1541 28.1539 9.06584C28.2311 8.97758 28.3285 8.90945 28.4379 8.86733L29.1067 8.60991V7.75341L28.4379 7.49608C28.3285 7.45391 28.2309 7.3857 28.1537 7.29734C28.0765 7.20899 28.0221 7.10315 27.995 6.989C27.8699 6.46052 27.6609 5.95553 27.3759 5.49328C27.3144 5.39355 27.2782 5.28036 27.2703 5.1635C27.2624 5.04663 27.283 4.9296 27.3304 4.82249L27.6211 4.16622L27.0155 3.56056L26.3596 3.85225C26.2525 3.89991 26.1353 3.92072 26.0182 3.91288C25.9012 3.90504 25.7878 3.86878 25.6879 3.80724C25.226 3.52244 24.7215 3.31337 24.1936 3.18796C24.0795 3.16082 23.9737 3.10627 23.8854 3.02904C23.7971 2.95181 23.7289 2.85423 23.6869 2.74473ZM23.0005 4.23694C25.1795 4.23694 26.9462 6.00171 26.9462 8.18076C26.9462 10.3597 25.1794 12.1265 23.0005 12.1265C20.8214 12.1265 19.0566 10.3598 19.0566 8.18076C19.0566 6.00162 20.8213 4.23694 23.0005 4.23694ZM23.0005 5.68007C21.6188 5.68007 20.4998 6.79905 20.4998 8.18076C20.4998 9.56265 21.6186 10.6833 23.0005 10.6833C24.3825 10.6833 25.503 9.56274 25.503 8.18076C25.503 6.79887 24.3824 5.68007 23.0005 5.68007ZM37.8197 25.0817C33.6617 25.0817 30.2703 21.6902 30.2703 17.5323C30.2703 13.3743 33.6617 9.98288 37.8197 9.98288C41.9776 9.98288 45.3691 13.3743 45.3691 17.5323C45.3691 21.6902 41.9776 25.0817 37.8197 25.0817ZM37.8197 23.6386C41.1828 23.6386 43.926 20.8954 43.926 17.5323C43.926 14.1691 41.1828 11.426 37.8197 11.426C34.4565 11.426 31.7134 14.1691 31.7134 17.5323C31.7134 20.8954 34.4565 23.6386 37.8197 23.6386ZM37.0981 13.5449V13.213C37.0981 12.8148 37.4215 12.4914 37.8197 12.4914C38.2179 12.4914 38.5413 12.8148 38.5413 13.213V13.5367C39.3572 13.7248 40.1075 14.2532 40.4964 15.1801C40.5704 15.3565 40.5713 15.5552 40.4989 15.7323C40.4265 15.9094 40.2867 16.0506 40.1103 16.1247C39.9338 16.1986 39.7352 16.1995 39.5581 16.1271C39.381 16.0546 39.2399 15.9149 39.1658 15.7385C38.82 14.9147 37.8954 14.751 37.2327 15.0118C36.8606 15.1581 36.5575 15.4544 36.5791 15.891L36.5792 15.8928C36.5951 16.2294 36.8176 16.4185 37.0777 16.5455C37.3439 16.6755 37.6519 16.7477 37.9425 16.795L37.9438 16.7952C39.1834 16.9993 40.5367 17.5708 40.7139 19.0444C40.887 20.4737 39.7502 21.3102 38.5413 21.5423V21.8539C38.5413 22.2521 38.2179 22.5754 37.8197 22.5754C37.4215 22.5754 37.0981 22.2521 37.0981 21.8539V21.5317C36.0772 21.3127 35.2014 20.634 34.9302 19.5447C34.884 19.359 34.9135 19.1625 35.0122 18.9986C35.1108 18.8346 35.2704 18.7165 35.4561 18.6702C35.6418 18.6241 35.8382 18.6535 36.0022 18.7521C36.1662 18.8507 36.2843 19.0104 36.3306 19.196C36.5035 19.891 37.2112 20.1824 37.8908 20.1656H37.8924C38.262 20.1572 38.6739 20.0669 38.9771 19.8579C39.1788 19.7188 39.3168 19.5109 39.2812 19.2178L39.2811 19.217C39.2346 18.8294 38.9672 18.6195 38.6604 18.4802C38.3631 18.3451 38.0253 18.2712 37.7105 18.2194C36.495 18.0214 35.2058 17.4023 35.1377 15.961C35.0835 14.8547 35.7614 14.0397 36.7043 13.6688C36.8326 13.6185 36.9641 13.577 37.0981 13.5449ZM23.722 23.2046C23.722 23.6028 23.3987 23.9262 23.0005 23.9262C22.6022 23.9262 22.2789 23.6028 22.2789 23.2046V18.2965C22.2789 17.8983 22.6022 17.575 23.0005 17.575C23.3987 17.575 23.722 17.8983 23.722 18.2965V23.2046ZM25.6228 25.8899C25.4727 26.0086 25.2817 26.0628 25.0916 26.0407C24.9015 26.0185 24.7281 25.9218 24.6093 25.7718C24.4906 25.6217 24.4364 25.4306 24.4586 25.2405C24.4807 25.0505 24.5774 24.877 24.7275 24.7582L28.945 21.4213C29.0951 21.3026 29.2862 21.2484 29.4762 21.2705C29.6663 21.2927 29.8398 21.3894 29.9586 21.5394C30.0772 21.6895 30.1314 21.8806 30.1093 22.0707C30.0871 22.2607 29.9904 22.4342 29.8404 22.553L25.6228 25.8899ZM21.2735 24.7582C21.4235 24.877 21.5202 25.0505 21.5424 25.2405C21.5645 25.4306 21.5103 25.6217 21.3916 25.7718C21.2729 25.9218 21.0994 26.0185 20.9093 26.0407C20.7193 26.0628 20.5282 26.0086 20.3781 25.8899L16.1605 22.553C16.0105 22.4342 15.9138 22.2607 15.8916 22.0707C15.8695 21.8806 15.9237 21.6895 16.0424 21.5394C16.1611 21.3894 16.3346 21.2927 16.5247 21.2705C16.7147 21.2484 16.9058 21.3026 17.0559 21.4213L21.2735 24.7582Z" fill="url(#paint0_linear_886_1499)"/>
</g>
<defs>
<linearGradient id="paint0_linear_886_1499" x1="23.0005" y1="0.631348" x2="23.0005" y2="45.3681" gradientUnits="userSpaceOnUse">
<stop stop-color="#D425FC"/>
<stop offset="1" stop-color="#9733EE"/>
</linearGradient>
<clipPath id="clip0_886_1499">
<rect width="46" height="46" fill="white"/>
</clipPath>
</defs>
</svg>
