<svg width="7" height="11" viewBox="0 0 7 11" fill="none" xmlns="http://www.w3.org/2000/svg">
<g opacity="0.8">
<path d="M1.04586 10.04C1.62355 10.04 2.09172 9.57196 2.09172 8.99419V1.04586C2.09172 0.468169 1.62363 0 1.04586 0C0.468168 0 0 0.468092 0 1.04586V8.99419C0 9.57196 0.468091 10.04 1.04586 10.04ZM5.22915 10.04C5.80684 10.04 6.27501 9.57196 6.27501 8.99419V1.04586C6.27501 0.468169 5.80692 0 5.22915 0C4.65138 0 4.18337 0.468169 4.18337 1.04586V8.99419C4.18337 9.57196 4.65146 10.04 5.22915 10.04Z" fill="url(#paint0_linear_713_777)"/>
</g>
<defs>
<linearGradient id="paint0_linear_713_777" x1="3.13751" y1="0" x2="3.13751" y2="10.04" gradientUnits="userSpaceOnUse">
<stop stop-color="#D425FC"/>
<stop offset="1" stop-color="#9733EE"/>
</linearGradient>
</defs>
</svg>
