<svg width="47" height="50" viewBox="0 0 47 50" fill="none" xmlns="http://www.w3.org/2000/svg">
<g filter="url(#filter0_d_1267_1444)">
<circle cx="22" cy="25" r="11" fill="white"/>
</g>
<path d="M19.1358 25.1488L22.9232 21.1438C23.0108 21.0511 23.1277 21 23.2524 21C23.3771 21 23.494 21.0511 23.5816 21.1438L23.8605 21.4387C24.042 21.6308 24.042 21.9431 23.8605 22.1349L20.6801 25.4981L23.864 28.8651C23.9516 28.9578 24 29.0813 24 29.2131C24 29.3451 23.9516 29.4686 23.864 29.5614L23.5851 29.8562C23.4975 29.9489 23.3806 30 23.2559 30C23.1312 30 23.0143 29.9489 22.9267 29.8562L19.1358 25.8475C19.048 25.7545 18.9997 25.6304 19 25.4984C18.9997 25.3658 19.048 25.2417 19.1358 25.1488Z" fill="black"/>
<defs>
<filter id="filter0_d_1267_1444" x="-3" y="0" width="50" height="50" filterUnits="userSpaceOnUse" color-interpolation-filters="sRGB">
<feFlood flood-opacity="0" result="BackgroundImageFix"/>
<feColorMatrix in="SourceAlpha" type="matrix" values="0 0 0 0 0 0 0 0 0 0 0 0 0 0 0 0 0 0 127 0" result="hardAlpha"/>
<feOffset/>
<feGaussianBlur stdDeviation="7"/>
<feComposite in2="hardAlpha" operator="out"/>
<feColorMatrix type="matrix" values="0 0 0 0 0 0 0 0 0 0 0 0 0 0 0 0 0 0 0.19 0"/>
<feBlend mode="normal" in2="BackgroundImageFix" result="effect1_dropShadow_1267_1444"/>
<feBlend mode="normal" in="SourceGraphic" in2="effect1_dropShadow_1267_1444" result="shape"/>
</filter>
</defs>
</svg>
