<svg width="42" height="42" viewBox="0 0 42 42" fill="none" xmlns="http://www.w3.org/2000/svg">
<g clip-path="url(#clip0_886_1490)">
<path d="M38.7188 13.125H36.0938V6.5625C36.0938 5.83882 35.5049 5.25 34.7812 5.25H32.1562V1.96875C32.1562 0.883231 31.273 0 30.1875 0H11.8125C10.727 0 9.84375 0.883231 9.84375 1.96875V5.25H7.21875C6.49507 5.25 5.90625 5.83882 5.90625 6.5625V13.125H3.28125C1.47197 13.125 0 14.597 0 16.4062V30.8438C0 32.653 1.47197 34.125 3.28125 34.125H9.84375V40.0312C9.84375 41.1168 10.727 42 11.8125 42H30.1875C31.273 42 32.1562 41.1168 32.1562 40.0312V34.125H38.7188C40.528 34.125 42 32.653 42 30.8438V16.4062C42 14.597 40.528 13.125 38.7188 13.125ZM34.7812 6.5625V13.125H32.1562V6.5625H34.7812ZM11.1562 1.96875C11.1562 1.60691 11.4507 1.3125 11.8125 1.3125H30.1875C30.5493 1.3125 30.8438 1.60691 30.8438 1.96875V13.125H11.1562V1.96875ZM7.21875 6.5625H9.84375V13.125H7.21875V6.5625ZM30.8438 40.0312C30.8438 40.3931 30.5493 40.6875 30.1875 40.6875H11.8125C11.4507 40.6875 11.1562 40.3931 11.1562 40.0312V28.875H30.8438V40.0312ZM40.6875 30.8438C40.6875 31.9293 39.8043 32.8125 38.7188 32.8125H32.1562V28.875H33.4688C33.6428 28.875 33.8097 28.8059 33.9328 28.6828C34.0559 28.5597 34.125 28.3928 34.125 28.2188C34.125 28.0447 34.0559 27.8778 33.9328 27.7547C33.8097 27.6316 33.6428 27.5625 33.4688 27.5625H8.53125C8.3572 27.5625 8.19028 27.6316 8.06721 27.7547C7.94414 27.8778 7.875 28.0447 7.875 28.2188C7.875 28.3928 7.94414 28.5597 8.06721 28.6828C8.19028 28.8059 8.3572 28.875 8.53125 28.875H9.84375V32.8125H3.28125C2.19573 32.8125 1.3125 31.9293 1.3125 30.8438V16.4062C1.3125 15.3207 2.19573 14.4375 3.28125 14.4375H38.7188C39.8043 14.4375 40.6875 15.3207 40.6875 16.4062V30.8438Z" fill="url(#paint0_linear_886_1490)"/>
<path d="M37.4062 15.75C36.3207 15.75 35.4375 16.6332 35.4375 17.7188C35.4375 18.8043 36.3207 19.6875 37.4062 19.6875C38.4918 19.6875 39.375 18.8043 39.375 17.7188C39.375 16.6332 38.4918 15.75 37.4062 15.75ZM37.4062 18.375C37.0444 18.375 36.75 18.0806 36.75 17.7188C36.75 17.3569 37.0444 17.0625 37.4062 17.0625C37.7681 17.0625 38.0625 17.3569 38.0625 17.7188C38.0625 18.0806 37.7681 18.375 37.4062 18.375ZM32.1562 15.75C31.0707 15.75 30.1875 16.6332 30.1875 17.7188C30.1875 18.8043 31.0707 19.6875 32.1562 19.6875C33.2418 19.6875 34.125 18.8043 34.125 17.7188C34.125 16.6332 33.2418 15.75 32.1562 15.75ZM32.1562 18.375C31.7944 18.375 31.5 18.0806 31.5 17.7188C31.5 17.3569 31.7944 17.0625 32.1562 17.0625C32.5181 17.0625 32.8125 17.3569 32.8125 17.7188C32.8125 18.0806 32.5181 18.375 32.1562 18.375ZM28.2188 30.8438H14.4375C14.2635 30.8438 14.0965 30.9129 13.9735 31.036C13.8504 31.159 13.7812 31.326 13.7812 31.5C13.7812 31.674 13.8504 31.841 13.9735 31.964C14.0965 32.0871 14.2635 32.1562 14.4375 32.1562H28.2188C28.3928 32.1562 28.5597 32.0871 28.6828 31.964C28.8059 31.841 28.875 31.674 28.875 31.5C28.875 31.326 28.8059 31.159 28.6828 31.036C28.5597 30.9129 28.3928 30.8438 28.2188 30.8438ZM28.2188 34.125H14.4375C14.2635 34.125 14.0965 34.1941 13.9735 34.3172C13.8504 34.4403 13.7812 34.6072 13.7812 34.7812C13.7812 34.9553 13.8504 35.1222 13.9735 35.2453C14.0965 35.3684 14.2635 35.4375 14.4375 35.4375H28.2188C28.3928 35.4375 28.5597 35.3684 28.6828 35.2453C28.8059 35.1222 28.875 34.9553 28.875 34.7812C28.875 34.6072 28.8059 34.4403 28.6828 34.3172C28.5597 34.1941 28.3928 34.125 28.2188 34.125ZM28.2188 37.4062H14.4375C14.2635 37.4062 14.0965 37.4754 13.9735 37.5985C13.8504 37.7215 13.7812 37.8885 13.7812 38.0625C13.7812 38.2365 13.8504 38.4035 13.9735 38.5265C14.0965 38.6496 14.2635 38.7188 14.4375 38.7188H28.2188C28.3928 38.7188 28.5597 38.6496 28.6828 38.5265C28.8059 38.4035 28.875 38.2365 28.875 38.0625C28.875 37.8885 28.8059 37.7215 28.6828 37.5985C28.5597 37.4754 28.3928 37.4062 28.2188 37.4062Z" fill="url(#paint1_linear_886_1490)"/>
</g>
<defs>
<linearGradient id="paint0_linear_886_1490" x1="21" y1="0" x2="21" y2="42" gradientUnits="userSpaceOnUse">
<stop stop-color="#D425FC"/>
<stop offset="1" stop-color="#9733EE"/>
</linearGradient>
<linearGradient id="paint1_linear_886_1490" x1="26.5781" y1="15.75" x2="26.5781" y2="38.7188" gradientUnits="userSpaceOnUse">
<stop stop-color="#D425FC"/>
<stop offset="1" stop-color="#9733EE"/>
</linearGradient>
<clipPath id="clip0_886_1490">
<rect width="42" height="42" fill="white"/>
</clipPath>
</defs>
</svg>
