<svg width="13" height="12" viewBox="0 0 13 12" fill="none" xmlns="http://www.w3.org/2000/svg">
<g opacity="0.2">
<path d="M12.0145 3.48956L8.76452 0.114597C8.71264 0.0608805 8.64592 0.0238599 8.57289 0.00827013C8.49986 -0.00731961 8.42384 -0.000769708 8.35456 0.0270821C8.28518 0.0550818 8.22574 0.103165 8.18387 0.165167C8.142 0.227169 8.1196 0.300263 8.11955 0.375079V2.00012H7.99458C5.30661 2.00012 3.11963 4.1871 3.11963 6.87508V7.62507C3.11963 7.79902 3.24211 7.94405 3.41159 7.98359C3.43915 7.99055 3.46662 7.99355 3.49409 7.99355C3.63562 7.99355 3.77111 7.91054 3.83657 7.78006C4.5396 6.37354 5.95305 5.50006 7.52556 5.50006H8.11955V7.12501C8.11953 7.19979 8.1419 7.27285 8.18379 7.3348C8.22567 7.39674 8.28515 7.44471 8.35456 7.47254C8.49508 7.53003 8.65851 7.49506 8.76452 7.38503L12.0145 4.01006C12.1545 3.86458 12.1545 3.6356 12.0145 3.48959V3.48956Z" fill="black"/>
<path d="M10.6195 11.9998H1.61961C0.79263 11.9998 0.119629 11.3269 0.119629 10.4999V3.49999C0.119629 2.673 0.79263 2 1.61961 2H3.1196C3.39609 2 3.61956 2.22347 3.61956 2.49996C3.61956 2.77645 3.39609 2.99993 3.1196 2.99993H1.61961C1.34359 2.99993 1.11956 3.22396 1.11956 3.49999V10.4999C1.11956 10.7759 1.34359 10.9999 1.61961 10.9999H10.6195C10.8955 10.9999 11.1195 10.7759 11.1195 10.4999V6.49996C11.1195 6.22347 11.343 5.9999 11.6195 5.9999C11.896 5.9999 12.1195 6.22347 12.1195 6.49996V10.4999C12.1195 11.3269 11.4465 11.9998 10.6195 11.9998Z" fill="black"/>
</g>
</svg>
