<svg width="17" height="18" viewBox="0 0 17 18" fill="none" xmlns="http://www.w3.org/2000/svg">
<path d="M14.8256 13.9959L16.3585 13.6851C16.4846 13.6497 16.5967 13.5762 16.6794 13.4747C16.7622 13.3732 16.8116 13.2486 16.8209 13.118C16.8301 12.9873 16.7988 12.857 16.7312 12.7448C16.6637 12.6327 16.5631 12.5441 16.4432 12.4912C15.6937 12.141 14.9834 11.7124 14.324 11.2127C14.1923 11.1127 14.0867 10.9824 14.0163 10.8328C13.9459 10.6832 13.9127 10.5188 13.9196 10.3536C13.9266 10.1884 13.9734 10.0273 14.0561 9.88412C14.1389 9.74096 14.255 9.61994 14.3947 9.53142L15.3271 8.93805C15.5262 8.78047 15.6601 8.55501 15.7033 8.30483C15.7465 8.05465 15.6959 7.79732 15.5612 7.58213C15.4265 7.36693 15.2171 7.20899 14.9732 7.13854C14.7293 7.06809 14.468 7.09008 14.2393 7.2003L13.6388 7.58176C13.5996 7.60617 13.5543 7.61912 13.5081 7.61912C13.4619 7.61912 13.4167 7.60617 13.3775 7.58176C13.3379 7.55895 13.3053 7.52593 13.2829 7.48616C13.2605 7.44639 13.2493 7.40133 13.2503 7.35571V5.4343C13.2503 4.20716 12.7628 3.03028 11.8951 2.16257C11.0274 1.29485 9.85052 0.807373 8.62338 0.807373C7.39624 0.807373 6.21937 1.29485 5.35165 2.16257C4.48393 3.03028 3.99646 4.20716 3.99646 5.4343V7.36277C3.99749 7.40839 3.98624 7.45345 3.96386 7.49322C3.94149 7.533 3.90883 7.56602 3.8693 7.58882C3.83009 7.61324 3.78482 7.62618 3.73862 7.62618C3.69242 7.62618 3.64715 7.61324 3.60794 7.58882L3.0075 7.20736C2.89357 7.12347 2.76361 7.06392 2.62568 7.03241C2.48776 7.00089 2.34483 6.99809 2.20578 7.02418C2.06672 7.05027 1.93453 7.10469 1.81741 7.18406C1.70029 7.26342 1.60075 7.36603 1.52498 7.48551C1.44921 7.60499 1.39884 7.73878 1.37699 7.87856C1.35514 8.01834 1.36228 8.16113 1.39797 8.29803C1.43366 8.43493 1.49714 8.56302 1.58446 8.67434C1.67177 8.78566 1.78105 8.87783 1.90551 8.94511L2.83796 9.53849C2.97762 9.627 3.09377 9.74802 3.17649 9.89119C3.25922 10.0344 3.30605 10.1954 3.31299 10.3606C3.31993 10.5258 3.28678 10.6903 3.21636 10.8399C3.14593 10.9895 3.04034 11.1198 2.9086 11.2197C2.24928 11.7195 1.53892 12.1481 0.789398 12.4983C0.670483 12.5472 0.569197 12.631 0.498907 12.7387C0.428617 12.8464 0.392627 12.9728 0.395688 13.1014C0.398749 13.2299 0.440716 13.3545 0.51605 13.4587C0.591385 13.5629 0.696546 13.6419 0.817654 13.6851L2.33642 13.9959C2.49469 14.0405 2.62918 14.1454 2.71105 14.288C2.79293 14.4306 2.81566 14.5996 2.77438 14.7588C2.73459 14.9181 2.73508 15.0847 2.77581 15.2438C2.81653 15.4028 2.89621 15.5492 3.00765 15.6698C3.1191 15.7904 3.2588 15.8813 3.41416 15.9343C3.56952 15.9874 3.73565 16.001 3.89756 15.9738L4.37791 15.889C4.72287 15.8329 5.07622 15.8593 5.40898 15.9661C5.74175 16.073 6.04445 16.2571 6.29226 16.5036C6.8737 17.1947 7.69265 17.6432 8.58806 17.761C9.47841 17.6398 10.2918 17.1916 10.8697 16.5036C11.1175 16.2571 11.4202 16.073 11.753 15.9661C12.0858 15.8593 12.4391 15.8329 12.7841 15.889L13.2644 15.9738C13.4263 16.001 13.5925 15.9874 13.7478 15.9343C13.9032 15.8813 14.0429 15.7904 14.1543 15.6698C14.2658 15.5492 14.3455 15.4028 14.3862 15.2438C14.4269 15.0847 14.4274 14.9181 14.3876 14.7588C14.3463 14.5996 14.3691 14.4306 14.4509 14.288C14.5328 14.1454 14.6673 14.0405 14.8256 13.9959Z" fill="url(#paint0_linear_798_653)"/>
<defs>
<linearGradient id="paint0_linear_798_653" x1="8.60898" y1="0.807373" x2="8.60898" y2="17.761" gradientUnits="userSpaceOnUse">
<stop stop-color="#D425FC"/>
<stop offset="1" stop-color="#9733EE"/>
</linearGradient>
</defs>
</svg>
