<svg width="17" height="18" viewBox="0 0 17 18" fill="none" xmlns="http://www.w3.org/2000/svg">
<path d="M16.0783 5.05486C15.0954 5.05486 14.1885 4.72925 13.4603 4.17995C12.6251 3.55026 12.025 2.62657 11.813 1.56195C11.7599 1.29426 11.732 1.02217 11.7296 0.749268H8.92191V8.4213L8.91854 12.6236C8.91854 13.7471 8.18693 14.6997 7.17276 15.0348C6.86898 15.1352 6.54903 15.1776 6.22957 15.1599C5.80708 15.1367 5.41117 15.0092 5.06706 14.8033C4.33477 14.3654 3.83828 13.5709 3.82483 12.662C3.80363 11.2415 4.95202 10.0833 6.37152 10.0833C6.65172 10.0833 6.92082 10.1291 7.17276 10.2122V7.36138C6.90703 7.32203 6.63658 7.30151 6.36311 7.30151C4.80939 7.30151 3.35626 7.94735 2.31753 9.11086C1.53243 9.99015 1.06151 11.112 0.988852 12.2883C0.893658 13.8336 1.4591 15.3025 2.55568 16.3863C2.71681 16.5454 2.886 16.6931 3.06294 16.8293C4.0031 17.5529 5.1525 17.9451 6.36311 17.9451C6.63658 17.9451 6.90703 17.9249 7.17276 17.8855C8.30365 17.718 9.34709 17.2003 10.1705 16.3863C11.1823 15.3863 11.7414 14.0586 11.7475 12.6455L11.733 6.37009C12.2168 6.74328 12.7469 7.05239 13.3099 7.28973C14.1909 7.66143 15.125 7.8498 16.0863 7.84946V5.05419C16.087 5.05486 16.0789 5.05486 16.0783 5.05486Z" fill="url(#paint0_linear_798_654)"/>
<defs>
<linearGradient id="paint0_linear_798_654" x1="8.53245" y1="0.749268" x2="8.53245" y2="17.9451" gradientUnits="userSpaceOnUse">
<stop stop-color="#D425FC"/>
<stop offset="1" stop-color="#9733EE"/>
</linearGradient>
</defs>
</svg>
