<svg width="24" height="24" viewBox="0 0 24 24" fill="none" xmlns="http://www.w3.org/2000/svg">
<path d="M2.20213 3.06453C2.05946 3.2072 2.03907 4.02246 2.03907 10.463C2.03907 18.3506 2.02888 18.2182 2.60976 18.4831C2.783 18.5545 4.02627 18.5952 6.61472 18.5952C10.5585 18.5952 10.7012 18.5748 10.5381 18.1468C10.477 18.0042 10.0999 17.9838 6.737 17.9838C3.96512 17.9838 2.96643 17.9532 2.87471 17.8615C2.783 17.7698 2.75243 15.9762 2.75243 10.4222C2.75243 3.30911 2.74224 3.10529 2.5588 3.00338C2.40594 2.93205 2.32441 2.94224 2.20213 3.06453Z" fill="url(#paint0_linear_749_655)"/>
<path d="M8.4283 4.64384C8.28563 4.72537 8.25506 4.89861 8.25506 5.65272V6.56989H7.96972C7.34808 6.56989 7.33789 6.63103 7.33789 10.0144C7.33789 13.0716 7.33789 13.0818 7.56209 13.2346C7.68438 13.3264 7.89838 13.3977 8.02067 13.3977C8.23468 13.3977 8.24487 13.4384 8.27544 14.2741C8.29582 14.9671 8.34677 15.1811 8.47925 15.2626C8.60154 15.3441 8.69326 15.3339 8.80536 15.2422C8.92765 15.1403 8.96841 14.9059 8.96841 14.2537C8.96841 13.4283 8.9786 13.3977 9.2028 13.3977C9.32508 13.3977 9.53909 13.3264 9.66138 13.2346C9.88558 13.0818 9.88558 13.0716 9.88558 9.99398C9.88558 7.13038 9.87538 6.89599 9.70214 6.74313C9.60023 6.64123 9.38623 6.56989 9.24356 6.56989H8.96841V5.65272C8.96841 4.88842 8.93784 4.72537 8.78498 4.64384C8.67288 4.5827 8.5404 4.5827 8.4283 4.64384ZM9.27413 9.93283V12.6843H8.61173H7.94933V9.93283V7.18133H8.61173H9.27413V9.93283Z" fill="url(#paint1_linear_749_655)"/>
<path d="M15.6136 4.65428C15.532 4.73581 15.4913 5.11286 15.4913 5.67336V6.57014H15.1346C14.5028 6.57014 14.462 6.73319 14.4926 9.32164C14.5231 11.3904 14.5435 11.6044 14.7066 11.7063C14.8594 11.798 14.9206 11.7776 15.0429 11.6247C15.155 11.4617 15.1855 10.9929 15.1855 9.30126V7.18158H15.797H16.4084L16.4288 9.22992C16.4594 11.0235 16.4798 11.2986 16.6326 11.3904C16.7549 11.4719 16.8466 11.4617 16.9587 11.37C17.1014 11.2477 17.1218 10.9216 17.1218 9.12802C17.1218 6.73319 17.081 6.57014 16.4492 6.57014H16.1027V5.67336C16.1027 4.8581 16.011 4.53199 15.797 4.53199C15.7664 4.53199 15.6849 4.58295 15.6136 4.65428Z" fill="url(#paint2_linear_749_655)"/>
<path d="M4.81128 7.30378C4.73995 7.37512 4.689 7.74198 4.689 8.2719C4.689 9.10754 4.689 9.11773 4.43423 9.11773C4.29156 9.11773 4.05717 9.22983 3.92469 9.3725L3.66992 9.61708V11.9202V14.2233L3.92469 14.4679C4.05717 14.6105 4.29156 14.7226 4.43423 14.7226C4.689 14.7226 4.689 14.7328 4.689 15.5787C4.689 16.4653 4.81128 16.7506 5.14758 16.6181C5.26987 16.5774 5.30044 16.3735 5.30044 15.6398C5.30044 14.743 5.31063 14.7226 5.54502 14.7226C5.6775 14.7226 5.90169 14.6309 6.05455 14.5086L6.31951 14.3048V11.9202V9.53555L6.05455 9.33174C5.90169 9.20945 5.6775 9.11773 5.54502 9.11773C5.32082 9.11773 5.31063 9.08716 5.28006 8.18018C5.25968 7.42607 5.21891 7.23245 5.09663 7.20187C5.00491 7.19168 4.88262 7.23245 4.81128 7.30378ZM5.70807 11.9202V14.0093H5.04567H4.38327V11.9202V9.83108H5.04567H5.70807V11.9202Z" fill="url(#paint3_linear_749_655)"/>
<path d="M11.9243 7.37492C11.8734 7.48702 11.8224 7.92522 11.8224 8.34304C11.8224 9.08696 11.8122 9.11754 11.5881 9.11754C11.4556 9.11754 11.2518 9.20925 11.1295 9.32135C10.9155 9.52517 10.9053 9.5965 10.9053 11.869C10.9053 14.0397 10.9155 14.2129 11.0887 14.3046C11.476 14.5084 11.5167 14.2741 11.5167 12.0015V9.83089H12.1791H12.8415V11.0538C12.8415 12.0932 12.8619 12.297 13.0046 12.348C13.0963 12.3786 13.2491 12.3684 13.3409 12.3072C13.4733 12.2155 13.5039 11.9811 13.5039 10.85C13.5039 9.56593 13.4937 9.49459 13.2593 9.31116C13.1269 9.20925 12.9128 9.11754 12.7804 9.11754C12.546 9.11754 12.5358 9.09716 12.5358 8.27171C12.5358 7.43606 12.4441 7.1813 12.1587 7.1813C12.0874 7.1813 11.9855 7.27301 11.9243 7.37492Z" fill="url(#paint4_linear_749_655)"/>
<path d="M15.2769 12.2259C14.2681 12.4704 13.5547 12.8781 12.7802 13.6424C10.6911 15.7315 10.7013 18.911 12.8006 21.0001C16.0718 24.2509 21.636 21.9376 21.6461 17.3212C21.6461 13.9685 18.4972 11.4514 15.2769 12.2259ZM18.3953 13.194C19.659 13.7952 20.6169 15.0181 20.9124 16.3837C20.9736 16.669 20.9939 17.2703 20.9634 17.7085C20.8615 19.2779 19.873 20.674 18.3545 21.4281C17.6208 21.795 17.5495 21.8052 16.5202 21.8052C15.603 21.8052 15.3381 21.7644 14.798 21.5504C13.5139 21.0409 12.4949 19.9505 12.0872 18.646C11.9446 18.2078 11.914 17.841 11.9446 17.0869C11.9751 16.241 12.0261 15.9964 12.3012 15.4156C12.8413 14.2538 13.7891 13.408 15.0324 12.9596C15.4298 12.8271 15.7865 12.7864 16.6119 12.8169C17.58 12.8475 17.7431 12.8781 18.3953 13.194Z" fill="url(#paint5_linear_749_655)"/>
<path d="M15.3788 13.5408C14.7266 13.714 14.0744 14.1216 13.5648 14.6719C11.8222 16.5572 12.3827 19.6246 14.6654 20.7864C17.0297 21.9787 19.8016 20.5622 20.3009 17.8922C20.4945 16.8324 20.1175 15.5483 19.3634 14.6821C18.4462 13.6427 16.7851 13.1637 15.3788 13.5408ZM17.9061 14.4274C19.0271 14.9675 19.6691 16.0375 19.6691 17.3521C19.6691 19.0845 18.222 20.5316 16.4896 20.5316C15.1546 20.5316 14.1151 19.8998 13.5445 18.738C13.1368 17.9024 13.0859 17.026 13.4018 16.1598C13.626 15.5382 14.4514 14.6006 14.9508 14.407C16.1023 13.9382 16.9176 13.9382 17.9061 14.4274Z" fill="url(#paint6_linear_749_655)"/>
<path d="M16.1732 14.7942C16.1324 14.8247 16.1019 14.9674 16.1019 15.0999C16.1019 15.2629 16.0203 15.375 15.8573 15.4362C15.256 15.6604 14.9707 16.6183 15.3478 17.1584C15.5516 17.4539 16.0815 17.6781 16.5503 17.6781C16.9477 17.6781 17.1821 17.9533 17.07 18.2896C16.9987 18.524 16.7948 18.5851 15.8981 18.6157C15.2866 18.6463 15.2357 18.6666 15.2051 18.8908C15.1643 19.1864 15.3274 19.3087 15.7758 19.3087C16.0305 19.3087 16.1019 19.3494 16.1019 19.5023C16.1019 19.7469 16.3566 19.9609 16.5604 19.8793C16.6522 19.8488 16.7439 19.6959 16.7745 19.5329C16.8152 19.3494 16.9375 19.2067 17.1311 19.115C17.6407 18.8908 17.8649 18.2386 17.6305 17.6374C17.498 17.2807 16.9579 16.9648 16.4891 16.9648C16.0917 16.9648 15.7961 16.7508 15.7961 16.4654C15.7961 16.1495 16.0203 16.0476 16.6929 16.0476C17.4165 16.0476 17.7324 15.9253 17.7324 15.6502C17.7324 15.426 17.5388 15.3343 17.1107 15.3343C16.8967 15.3343 16.8152 15.2833 16.8152 15.1508C16.8152 14.8247 16.377 14.5802 16.1732 14.7942Z" fill="url(#paint7_linear_749_655)"/>
<defs>
<linearGradient id="paint0_linear_749_655" x1="6.3091" y1="18.5952" x2="6.3091" y2="2.95886" gradientUnits="userSpaceOnUse">
<stop stop-color="#D425FC"/>
<stop offset="1" stop-color="#9733EE"/>
</linearGradient>
<linearGradient id="paint1_linear_749_655" x1="8.61173" y1="15.3179" x2="8.61173" y2="4.59798" gradientUnits="userSpaceOnUse">
<stop stop-color="#D425FC"/>
<stop offset="1" stop-color="#9733EE"/>
</linearGradient>
<linearGradient id="paint2_linear_749_655" x1="15.8036" y1="11.7612" x2="15.8036" y2="4.53199" gradientUnits="userSpaceOnUse">
<stop stop-color="#D425FC"/>
<stop offset="1" stop-color="#9733EE"/>
</linearGradient>
<linearGradient id="paint3_linear_749_655" x1="4.99472" y1="16.6489" x2="4.99472" y2="7.20032" gradientUnits="userSpaceOnUse">
<stop stop-color="#D425FC"/>
<stop offset="1" stop-color="#9733EE"/>
</linearGradient>
<linearGradient id="paint4_linear_749_655" x1="12.2046" y1="14.3628" x2="12.2046" y2="7.1813" gradientUnits="userSpaceOnUse">
<stop stop-color="#D425FC"/>
<stop offset="1" stop-color="#9733EE"/>
</linearGradient>
<linearGradient id="paint5_linear_749_655" x1="16.4329" y1="22.5186" x2="16.4329" y2="12.0849" gradientUnits="userSpaceOnUse">
<stop stop-color="#D425FC"/>
<stop offset="1" stop-color="#9733EE"/>
</linearGradient>
<linearGradient id="paint6_linear_749_655" x1="16.4466" y1="21.2129" x2="16.4466" y2="13.4129" gradientUnits="userSpaceOnUse">
<stop stop-color="#D425FC"/>
<stop offset="1" stop-color="#9733EE"/>
</linearGradient>
<linearGradient id="paint7_linear_749_655" x1="16.4551" y1="19.897" x2="16.4551" y2="14.7136" gradientUnits="userSpaceOnUse">
<stop stop-color="#D425FC"/>
<stop offset="1" stop-color="#9733EE"/>
</linearGradient>
</defs>
</svg>
