<svg width="24" height="24" viewBox="0 0 24 24" fill="none" xmlns="http://www.w3.org/2000/svg">
<path d="M2.20213 3.06426C2.05946 3.20693 2.03907 4.02219 2.03907 10.4627C2.03907 18.3504 2.02888 18.2179 2.60976 18.4828C2.783 18.5542 4.02627 18.5949 6.61472 18.5949C10.5585 18.5949 10.7012 18.5746 10.5381 18.1466C10.477 18.0039 10.0999 17.9835 6.737 17.9835C3.96512 17.9835 2.96643 17.9529 2.87471 17.8612C2.783 17.7695 2.75243 15.9759 2.75243 10.422C2.75243 3.30884 2.74224 3.10502 2.5588 3.00312C2.40594 2.93178 2.32441 2.94197 2.20213 3.06426Z" fill="black"/>
<path d="M8.4283 4.64381C8.28563 4.72534 8.25506 4.89858 8.25506 5.65269V6.56986H7.96972C7.34808 6.56986 7.33789 6.631 7.33789 10.0143C7.33789 13.0716 7.33789 13.0817 7.56209 13.2346C7.68438 13.3263 7.89838 13.3977 8.02067 13.3977C8.23468 13.3977 8.24487 13.4384 8.27544 14.2741C8.29582 14.967 8.34677 15.181 8.47925 15.2626C8.60154 15.3441 8.69326 15.3339 8.80536 15.2422C8.92765 15.1403 8.96841 14.9059 8.96841 14.2537C8.96841 13.4282 8.9786 13.3977 9.2028 13.3977C9.32508 13.3977 9.53909 13.3263 9.66138 13.2346C9.88558 13.0817 9.88558 13.0716 9.88558 9.99395C9.88558 7.13035 9.87538 6.89596 9.70214 6.7431C9.60023 6.6412 9.38623 6.56986 9.24356 6.56986H8.96841V5.65269C8.96841 4.88839 8.93784 4.72534 8.78498 4.64381C8.67288 4.58267 8.5404 4.58267 8.4283 4.64381ZM9.27413 9.9328V12.6843H8.61173H7.94933V9.9328V7.1813H8.61173H9.27413V9.9328Z" fill="black"/>
<path d="M15.6136 4.65401C15.532 4.73553 15.4913 5.11259 15.4913 5.67308V6.56987H15.1346C14.5028 6.56987 14.462 6.73292 14.4926 9.32137C14.5231 11.3901 14.5435 11.6041 14.7066 11.706C14.8594 11.7977 14.9206 11.7773 15.0429 11.6245C15.155 11.4614 15.1855 10.9926 15.1855 9.30098V7.18131H15.797H16.4084L16.4288 9.22965C16.4594 11.0232 16.4798 11.2984 16.6326 11.3901C16.7549 11.4716 16.8466 11.4614 16.9587 11.3697C17.1014 11.2474 17.1218 10.9213 17.1218 9.12774C17.1218 6.73292 17.081 6.56987 16.4492 6.56987H16.1027V5.67308C16.1027 4.85782 16.011 4.53172 15.797 4.53172C15.7664 4.53172 15.6849 4.58267 15.6136 4.65401Z" fill="black"/>
<path d="M4.81128 7.30363C4.73995 7.37496 4.689 7.74183 4.689 8.27175C4.689 9.10739 4.689 9.11758 4.43423 9.11758C4.29156 9.11758 4.05717 9.22968 3.92469 9.37235L3.66992 9.61693V11.92V14.2231L3.92469 14.4677C4.05717 14.6104 4.29156 14.7225 4.43423 14.7225C4.689 14.7225 4.689 14.7327 4.689 15.5785C4.689 16.4651 4.81128 16.7504 5.14758 16.618C5.26987 16.5772 5.30044 16.3734 5.30044 15.6397C5.30044 14.7429 5.31063 14.7225 5.54502 14.7225C5.6775 14.7225 5.90169 14.6308 6.05455 14.5085L6.31951 14.3047V11.92V9.5354L6.05455 9.33159C5.90169 9.2093 5.6775 9.11758 5.54502 9.11758C5.32082 9.11758 5.31063 9.08701 5.28006 8.18003C5.25968 7.42592 5.21891 7.23229 5.09663 7.20172C5.00491 7.19153 4.88262 7.23229 4.81128 7.30363ZM5.70807 11.92V14.0091H5.04567H4.38327V11.92V9.83093H5.04567H5.70807V11.92Z" fill="black"/>
<path d="M11.9243 7.375C11.8734 7.4871 11.8224 7.9253 11.8224 8.34312C11.8224 9.08705 11.8122 9.11762 11.5881 9.11762C11.4556 9.11762 11.2518 9.20934 11.1295 9.32144C10.9155 9.52525 10.9053 9.59659 10.9053 11.8691C10.9053 14.0397 10.9155 14.213 11.0887 14.3047C11.476 14.5085 11.5167 14.2741 11.5167 12.0016V9.83097H12.1791H12.8415V11.0539C12.8415 12.0933 12.8619 12.2971 13.0046 12.3481C13.0963 12.3787 13.2491 12.3685 13.3409 12.3073C13.4733 12.2156 13.5039 11.9812 13.5039 10.85C13.5039 9.56601 13.4937 9.49468 13.2593 9.31124C13.1269 9.20934 12.9128 9.11762 12.7804 9.11762C12.546 9.11762 12.5358 9.09724 12.5358 8.27179C12.5358 7.43615 12.4441 7.18138 12.1587 7.18138C12.0874 7.18138 11.9855 7.2731 11.9243 7.375Z" fill="black"/>
<path d="M15.2769 12.2258C14.2681 12.4703 13.5547 12.878 12.7802 13.6423C10.6911 15.7314 10.7013 18.9109 12.8006 21C16.0718 24.2508 21.636 21.9375 21.6461 17.3211C21.6461 13.9684 18.4972 11.4513 15.2769 12.2258ZM18.3953 13.1939C19.659 13.7951 20.6169 15.018 20.9124 16.3836C20.9736 16.6689 20.9939 17.2702 20.9634 17.7084C20.8615 19.2778 19.873 20.6739 18.3545 21.428C17.6208 21.7949 17.5495 21.8051 16.5202 21.8051C15.603 21.8051 15.3381 21.7643 14.798 21.5503C13.5139 21.0407 12.4949 19.9503 12.0872 18.6459C11.9446 18.2077 11.914 17.8409 11.9446 17.0867C11.9751 16.2409 12.0261 15.9963 12.3012 15.4155C12.8413 14.2537 13.7891 13.4079 15.0324 12.9595C15.4298 12.827 15.7865 12.7863 16.6119 12.8168C17.58 12.8474 17.7431 12.878 18.3953 13.1939Z" fill="black"/>
<path d="M15.3788 13.5404C14.7266 13.7137 14.0744 14.1213 13.5648 14.6716C11.8222 16.5569 12.3827 19.6243 14.6654 20.786C17.0297 21.9784 19.8016 20.5618 20.3009 17.8919C20.4945 16.832 20.1175 15.548 19.3634 14.6818C18.4462 13.6423 16.7851 13.1634 15.3788 13.5404ZM17.9061 14.427C19.0271 14.9671 19.6691 16.0372 19.6691 17.3518C19.6691 19.0842 18.222 20.5313 16.4896 20.5313C15.1546 20.5313 14.1151 19.8994 13.5445 18.7377C13.1368 17.9021 13.0859 17.0257 13.4018 16.1594C13.626 15.5378 14.4514 14.6003 14.9508 14.4066C16.1023 13.9379 16.9176 13.9379 17.9061 14.427Z" fill="black"/>
<path d="M16.1732 14.7938C16.1324 14.8244 16.1019 14.9671 16.1019 15.0995C16.1019 15.2626 16.0203 15.3747 15.8573 15.4358C15.256 15.66 14.9707 16.618 15.3478 17.1581C15.5516 17.4536 16.0815 17.6778 16.5503 17.6778C16.9477 17.6778 17.1821 17.953 17.07 18.2892C16.9987 18.5236 16.7948 18.5848 15.8981 18.6153C15.2866 18.6459 15.2357 18.6663 15.2051 18.8905C15.1643 19.186 15.3274 19.3083 15.7758 19.3083C16.0305 19.3083 16.1019 19.3491 16.1019 19.5019C16.1019 19.7465 16.3566 19.9605 16.5604 19.879C16.6522 19.8484 16.7439 19.6956 16.7745 19.5325C16.8152 19.3491 16.9375 19.2064 17.1311 19.1147C17.6407 18.8905 17.8649 18.2383 17.6305 17.637C17.498 17.2804 16.9579 16.9644 16.4891 16.9644C16.0917 16.9644 15.7961 16.7504 15.7961 16.4651C15.7961 16.1492 16.0203 16.0473 16.6929 16.0473C17.4165 16.0473 17.7324 15.925 17.7324 15.6498C17.7324 15.4256 17.5388 15.3339 17.1107 15.3339C16.8967 15.3339 16.8152 15.283 16.8152 15.1505C16.8152 14.8244 16.377 14.5798 16.1732 14.7938Z" fill="black"/>
</svg>
