<svg width="12" height="12" viewBox="0 0 12 12" fill="none" xmlns="http://www.w3.org/2000/svg">
<path d="M10.5 2.98999C8.835 2.82499 7.16 2.73999 5.49 2.73999C4.5 2.73999 3.51 2.78999 2.52 2.88999L1.5 2.98999" stroke="#B1B1B1" stroke-width="0.8" stroke-linecap="round" stroke-linejoin="round"/>
<path d="M4.25 2.485L4.36 1.83C4.44 1.355 4.5 1 5.345 1H6.655C7.5 1 7.565 1.375 7.64 1.835L7.75 2.485" stroke="#B1B1B1" stroke-width="0.8" stroke-linecap="round" stroke-linejoin="round"/>
<path d="M9.4252 4.56995L9.1002 9.60495C9.0452 10.3899 9.0002 10.9999 7.6052 10.9999H4.3952C3.0002 10.9999 2.9552 10.3899 2.9002 9.60495L2.5752 4.56995" stroke="#B1B1B1" stroke-width="0.8" stroke-linecap="round" stroke-linejoin="round"/>
<path d="M5.16504 8.25H6.83004" stroke="#B1B1B1" stroke-width="0.8" stroke-linecap="round" stroke-linejoin="round"/>
<path d="M4.75 6.25H7.25" stroke="#B1B1B1" stroke-width="0.8" stroke-linecap="round" stroke-linejoin="round"/>
</svg>
