<svg width="32" height="32" viewBox="0 0 32 32" fill="none" xmlns="http://www.w3.org/2000/svg">
<g filter="url(#filter0_d_798_464)">
<rect x="4" y="4" width="24" height="24" rx="12" fill="#F9F9F9"/>
<path d="M18.7158 10.2958C18.6228 10.2021 18.5122 10.1277 18.3904 10.0769C18.2685 10.0261 18.1378 10 18.0058 10C17.8738 10 17.7431 10.0261 17.6212 10.0769C17.4994 10.1277 17.3888 10.2021 17.2958 10.2958L12.2958 15.2958C12.2021 15.3888 12.1277 15.4994 12.0769 15.6212C12.0261 15.7431 12 15.8738 12 16.0058C12 16.1378 12.0261 16.2685 12.0769 16.3904C12.1277 16.5122 12.2021 16.6228 12.2958 16.7158L17.2958 21.7158C17.3888 21.8095 17.4994 21.8839 17.6212 21.9347C17.7431 21.9855 17.8738 22.0116 18.0058 22.0116C18.1378 22.0116 18.2685 21.9855 18.3904 21.9347C18.5122 21.8839 18.6228 21.8095 18.7158 21.7158C18.8095 21.6228 18.8839 21.5122 18.9347 21.3904C18.9855 21.2685 19.0116 21.1378 19.0116 21.0058C19.0116 20.8738 18.9855 20.7431 18.9347 20.6212C18.8839 20.4994 18.8095 20.3888 18.7158 20.2958L14.4158 16.0058L18.7158 11.7158C18.8095 11.6228 18.8839 11.5122 18.9347 11.3904C18.9855 11.2685 19.0116 11.1378 19.0116 11.0058C19.0116 10.8738 18.9855 10.7431 18.9347 10.6212C18.8839 10.4994 18.8095 10.3888 18.7158 10.2958Z" fill="#656565"/>
</g>
<defs>
<filter id="filter0_d_798_464" x="0" y="0" width="32" height="32" filterUnits="userSpaceOnUse" color-interpolation-filters="sRGB">
<feFlood flood-opacity="0" result="BackgroundImageFix"/>
<feColorMatrix in="SourceAlpha" type="matrix" values="0 0 0 0 0 0 0 0 0 0 0 0 0 0 0 0 0 0 127 0" result="hardAlpha"/>
<feOffset/>
<feGaussianBlur stdDeviation="2"/>
<feComposite in2="hardAlpha" operator="out"/>
<feColorMatrix type="matrix" values="0 0 0 0 0 0 0 0 0 0 0 0 0 0 0 0 0 0 0.12 0"/>
<feBlend mode="normal" in2="BackgroundImageFix" result="effect1_dropShadow_798_464"/>
<feBlend mode="normal" in="SourceGraphic" in2="effect1_dropShadow_798_464" result="shape"/>
</filter>
</defs>
</svg>
