<svg width="19" height="14" viewBox="0 0 19 14" fill="none" xmlns="http://www.w3.org/2000/svg">
<path fill-rule="evenodd" clip-rule="evenodd" d="M5.35009 0.216255C8.32098 -0.0170721 11.3056 -0.0170721 14.2765 0.216255L16.2716 0.373015C16.812 0.415141 17.3227 0.636926 17.7223 1.00303C18.122 1.36912 18.3876 1.85847 18.4769 2.39307C18.9374 5.14527 18.9374 7.95358 18.4769 10.7049C18.3877 11.2393 18.1222 11.7286 17.7227 12.0947C17.3232 12.4608 16.8127 12.6826 16.2725 12.7249L14.2774 12.8808C11.3062 13.1142 8.32127 13.1142 5.35009 12.8808L3.35497 12.7249C2.81461 12.6828 2.30389 12.461 1.90422 12.0949C1.50454 11.7288 1.23891 11.2395 1.14965 10.7049C0.689699 7.95337 0.689699 5.14459 1.14965 2.39307C1.23887 1.85861 1.50437 1.36937 1.90387 1.00328C2.30337 0.637201 2.81388 0.415331 3.35408 0.373015L5.35009 0.216255ZM8.03192 8.74895V4.349C8.03199 4.30178 8.04458 4.25542 8.06839 4.21465C8.09221 4.17387 8.1264 4.14014 8.1675 4.11688C8.20859 4.09362 8.25511 4.08166 8.30233 4.08222C8.34954 4.08279 8.39577 4.09586 8.43629 4.1201L12.1032 6.32007C12.1427 6.34384 12.1753 6.37741 12.198 6.41751C12.2207 6.45762 12.2326 6.50291 12.2326 6.54898C12.2326 6.59505 12.2207 6.64033 12.198 6.68044C12.1753 6.72055 12.1427 6.75412 12.1032 6.77788L8.43629 8.97786C8.39577 9.0021 8.34954 9.01516 8.30233 9.01573C8.25511 9.0163 8.20859 9.00434 8.1675 8.98108C8.1264 8.95782 8.09221 8.92408 8.06839 8.8833C8.04458 8.84253 8.03199 8.79617 8.03192 8.74895Z" fill="url(#paint0_linear_798_641)"/>
<defs>
<linearGradient id="paint0_linear_798_641" x1="9.81348" y1="0.0412598" x2="9.81348" y2="13.0558" gradientUnits="userSpaceOnUse">
<stop stop-color="#D425FC"/>
<stop offset="1" stop-color="#9733EE"/>
</linearGradient>
</defs>
</svg>
